<svg width="24" height="24" viewBox="0 0 24 24" fill="none" xmlns="http://www.w3.org/2000/svg">
<path d="M9.22999 22.7501C9.21999 22.7501 9.20999 22.7501 9.18999 22.7501C7.50999 22.7401 6.30999 21.2301 5.45999 19.9201C3.28999 16.5901 2.84999 12.4001 4.41999 9.97007C5.46999 8.34007 7.16999 7.33005 8.84999 7.33005C9.71999 7.33005 10.4 7.57007 11 7.79007C11.48 7.96007 11.89 8.11005 12.32 8.11005C12.7 8.11005 13.03 7.98007 13.45 7.82007C14.03 7.60007 14.74 7.33005 15.77 7.33005C17.25 7.33005 18.77 8.12006 19.83 9.46006C19.97 9.63006 20.02 9.86007 19.98 10.0701C19.94 10.2901 19.8 10.4701 19.61 10.5801C18.48 11.2001 17.86 12.3301 17.95 13.6101C18.04 14.9101 18.84 16.0101 20.04 16.4601C20.23 16.5301 20.39 16.6801 20.47 16.8701C20.55 17.0601 20.55 17.2801 20.46 17.4601C20.02 18.4401 19.8 18.8901 19.23 19.7701C18.28 21.2301 17.08 22.7301 15.44 22.7501C14.73 22.7501 14.25 22.5401 13.83 22.3401C13.41 22.1501 13 22.0001 12.35 21.9801C11.65 21.9801 11.28 22.1501 10.85 22.3401C10.41 22.5401 9.92999 22.7501 9.22999 22.7501ZM8.84999 8.83005C7.66999 8.83005 6.45999 9.58006 5.67999 10.7801C4.61999 12.4201 4.62999 15.8901 6.71999 19.1001C7.36999 20.1001 8.23999 21.2401 9.20999 21.2501C9.56999 21.2401 9.83999 21.1401 10.21 20.9801C10.7 20.7601 11.31 20.4901 12.32 20.4801C13.31 20.4601 13.95 20.7501 14.44 20.9801C14.8 21.1501 15.04 21.2601 15.41 21.2501C16.35 21.2401 17.26 20.0201 17.96 18.9601C18.33 18.3901 18.54 18.0301 18.77 17.5201C17.43 16.7301 16.55 15.3401 16.44 13.7201C16.33 12.1901 16.95 10.7601 18.09 9.81006C17.39 9.19006 16.56 8.84006 15.76 8.84006C15.01 8.84006 14.51 9.03008 13.98 9.23008C13.48 9.42008 12.96 9.62006 12.31 9.62006C11.62 9.62006 11.05 9.41007 10.49 9.22007C9.95999 9.01007 9.44999 8.83005 8.84999 8.83005ZM11.82 7.13007C11.79 7.13007 11.75 7.13007 11.72 7.13007C11.37 7.12007 11.07 6.86007 11.01 6.51007C10.8 5.38007 11.2 4.08005 12.07 3.02005C12.87 2.05005 14.19 1.33006 15.36 1.25006C15.77 1.23006 16.1 1.50008 16.15 1.89008C16.32 3.06008 15.95 4.34007 15.12 5.41007C14.31 6.46007 13.02 7.13007 11.82 7.13007ZM14.65 2.95008C14.11 3.17008 13.58 3.54007 13.23 3.97007C12.9 4.37007 12.59 4.93007 12.49 5.51007C13.03 5.33007 13.57 4.97006 13.94 4.49006C14.14 4.24006 14.52 3.66008 14.65 2.95008Z" fill="#FF91A4"/>
</svg>
