<svg width="36" height="36" viewBox="0 0 36 36" fill="none" xmlns="http://www.w3.org/2000/svg">
<path d="M24.7349 34.125H11.2499C8.6699 34.125 6.73491 33.435 5.53491 32.07C4.33491 30.705 3.86989 28.725 4.18489 26.16L5.53491 14.91C5.92491 11.595 6.76491 8.625 12.6149 8.625H23.4149C29.2499 8.625 30.0899 11.595 30.4949 14.91L31.8449 26.16C32.1449 28.725 31.6949 30.72 30.4949 32.07C29.2499 33.435 27.3299 34.125 24.7349 34.125ZM12.5999 10.875C8.27989 10.875 8.0699 12.585 7.7549 15.165L6.40491 26.415C6.17991 28.32 6.4499 29.715 7.2149 30.57C7.9799 31.425 9.3299 31.86 11.2499 31.86H24.7349C26.6549 31.86 28.0049 31.425 28.7699 30.57C29.5349 29.715 29.8049 28.32 29.5799 26.415L28.2299 15.165C27.9149 12.57 27.7199 10.875 23.3849 10.875H12.5999Z" fill="#2E2E2E"/>
<path d="M24 13.125C23.385 13.125 22.875 12.615 22.875 12V6.75C22.875 5.13 21.87 4.125 20.25 4.125H15.75C14.13 4.125 13.125 5.13 13.125 6.75V12C13.125 12.615 12.615 13.125 12 13.125C11.385 13.125 10.875 12.615 10.875 12V6.75C10.875 3.885 12.885 1.875 15.75 1.875H20.25C23.115 1.875 25.125 3.885 25.125 6.75V12C25.125 12.615 24.615 13.125 24 13.125Z" fill="#FF91A4"/>
<path d="M30.615 26.67H12C11.385 26.67 10.875 26.16 10.875 25.545C10.875 24.93 11.385 24.42 12 24.42H30.615C31.23 24.42 31.74 24.93 31.74 25.545C31.74 26.16 31.23 26.67 30.615 26.67Z" fill="#FF91A4"/>
</svg>
