<svg width="50" height="50" viewBox="0 0 50 50" fill="none" xmlns="http://www.w3.org/2000/svg">
<path d="M17.6343 25L11.7418 30.8926C9.70781 32.9266 9.70781 36.2243 11.7418 38.2583V38.2583C13.7758 40.2923 17.0735 40.2923 19.1075 38.2583L25 32.3657M17.6343 25L25 32.3657M17.6343 25L25 17.6343M25 32.3657L32.3657 25M25 17.6343L30.8926 11.7418C32.9266 9.7078 36.2243 9.70781 38.2583 11.7418V11.7418C40.2923 13.7758 40.2923 17.0735 38.2583 19.1075L32.3657 25M25 17.6343L32.3657 25" stroke="#22202A" stroke-width="2.08333"/>
<path d="M33.2424 25.8094L38.2866 30.8927C40.3073 32.9289 40.3009 36.2157 38.2725 38.2441C36.233 40.2836 32.9243 40.2772 30.8927 38.2299L25.8645 33.1628C25.3865 32.6812 25.388 31.9037 25.8678 31.4239L31.4857 25.806C31.9712 25.3205 32.7588 25.3221 33.2424 25.8094Z" stroke="#FF91A4" stroke-width="2.08333"/>
<path d="M19.1074 11.7702L24.1357 16.8373C24.6136 17.3189 24.6121 18.0963 24.1323 18.5761L18.5144 24.194C18.0289 24.6795 17.2414 24.678 16.7578 24.1907L11.7135 19.1074C9.69288 17.0712 9.69921 13.7844 11.7276 11.7559C13.7671 9.71644 17.0758 9.72281 19.1074 11.7702Z" stroke="#FF91A4" stroke-width="2.08333"/>
<path opacity="0.5" d="M25 21.8541H25.0208V21.8749H25V21.8541Z" stroke="#22202A" stroke-width="2.08333" stroke-linejoin="round"/>
<path opacity="0.5" d="M25 25H25.0208V25.0208H25V25Z" stroke="#22202A" stroke-width="2.08333" stroke-linejoin="round"/>
<path opacity="0.5" d="M28.125 25H28.1458V25.0208H28.125V25Z" stroke="#22202A" stroke-width="2.08333" stroke-linejoin="round"/>
<path opacity="0.5" d="M21.875 25H21.8958V25.0208H21.875V25Z" stroke="#22202A" stroke-width="2.08333" stroke-linejoin="round"/>
<path opacity="0.5" d="M25 28.1042H25.0208V28.125H25V28.1042Z" stroke="#22202A" stroke-width="2.08333" stroke-linejoin="round"/>
</svg>
