<svg width="25" height="24" viewBox="0 0 25 24" fill="none" xmlns="http://www.w3.org/2000/svg">
<path d="M12.6999 22.75C8.65994 22.75 5.01994 20.52 3.15994 16.93C3.12994 16.9 3.10994 16.86 3.08994 16.82C2.32994 15.3 1.93994 13.68 1.93994 12C1.93994 10.32 2.32994 8.69999 3.08994 7.17999C4.92994 3.51999 8.60994 1.25 12.6899 1.25C15.4299 1.25 17.9199 2.21999 19.8899 4.04999C20.0399 4.18999 20.1299 4.38 20.1299 4.59C20.1299 4.8 20.0499 4.99001 19.8999 5.14001L17.0799 7.89999C16.7899 8.17999 16.3399 8.19 16.0399 7.91C15.4099 7.32 14.3199 6.62 12.6899 6.62C10.6299 6.62 8.73994 7.86001 7.88994 9.79001C7.81994 9.95001 7.75994 10.1 7.69994 10.27C7.50994 10.85 7.41994 11.44 7.41994 12.01C7.41994 12.58 7.51994 13.15 7.69994 13.72C7.69994 13.73 7.70994 13.74 7.70994 13.76C8.42994 15.94 10.4299 17.4 12.6899 17.4C13.8799 17.4 14.8999 17.11 15.7299 16.53C16.4899 16 16.9699 15.29 17.2299 14.65H12.6999C12.2899 14.65 11.9499 14.31 11.9499 13.9V10.19C11.9499 9.78 12.2899 9.44 12.6999 9.44H22.0899C22.4399 9.44 22.7399 9.67999 22.8199 10.02C22.9799 10.72 23.0499 11.38 23.0499 12.23C23.0499 15.41 21.9099 18.22 19.8299 20.14C17.9799 21.84 15.5099 22.75 12.6999 22.75ZM4.37994 16.05C4.40994 16.09 4.43994 16.14 4.45994 16.19C6.02994 19.3 9.18994 21.25 12.6999 21.25C15.1299 21.25 17.2399 20.48 18.8099 19.03C20.5799 17.4 21.5499 14.98 21.5499 12.22C21.5499 11.72 21.5299 11.32 21.4699 10.93H13.4499V13.14H18.2099C18.4199 13.14 18.6299 13.23 18.7699 13.39C18.9099 13.55 18.9799 13.77 18.9499 13.98C18.8199 15.1 18.1199 16.68 16.5899 17.75C15.5099 18.5 14.1999 18.89 12.6899 18.89C9.79994 18.89 7.23994 17.03 6.29994 14.25C6.29994 14.24 6.28994 14.23 6.28994 14.22C6.03994 13.49 5.91994 12.75 5.91994 12.01C5.91994 11.28 6.03994 10.54 6.27994 9.79999C6.34994 9.57999 6.42994 9.37999 6.51994 9.17999C7.61994 6.70999 10.0399 5.12 12.6899 5.12C14.3999 5.12 15.6599 5.72001 16.5199 6.35001L18.2699 4.64001C16.6899 3.40001 14.7699 2.75 12.6899 2.75C9.17994 2.75 6.00994 4.70001 4.42994 7.85001C3.77994 9.16001 3.43994 10.56 3.43994 12C3.44994 13.41 3.75994 14.77 4.37994 16.05Z" fill="#6F6F6F"/>
</svg>
