<svg width="421" height="369" viewBox="0 0 421 369" fill="none" xmlns="http://www.w3.org/2000/svg">
<path opacity="0.2" d="M40.1211 0.267746L71.959 12.127C72.9915 12.511 73.834 13.2811 74.3078 14.2773L81.1515 28.6453C82.0221 30.4736 81.2081 32.6581 79.3542 33.4731L64.778 39.8624C63.7687 40.3061 62.6269 40.3381 61.5944 39.9541L29.7565 28.095C27.5615 27.2779 26.4447 24.8352 27.2624 22.64L34.6664 2.76162C35.4839 0.566422 37.9261 -0.54932 40.1211 0.267746Z" fill="#E1E6EB"/>
<g style="mix-blend-mode:luminosity" opacity="0.2">
<path d="M42.8701 1.29175L74.7078 13.151C75.7403 13.535 76.5827 14.3051 77.0566 15.3013L83.9003 29.6693C84.7709 31.4976 83.9568 33.6822 82.1027 34.495L67.5265 40.8864C66.5175 41.3302 65.3757 41.3621 64.3432 40.976L32.5053 29.119C30.3103 28.3019 29.1935 25.8592 30.0112 23.664L37.415 3.78563C38.2327 1.59043 40.6749 0.474686 42.8701 1.29175Z" fill="#F0F2F5"/>
</g>
<path d="M75.4 29.2512C75.836 28.08 77.0386 27.4165 78.2271 27.6171C79.2586 28.2421 79.7324 29.5307 79.2961 30.7019C78.8594 31.8752 77.6586 32.5386 76.4688 32.3381C75.4386 31.7109 74.9631 30.4245 75.4 29.2512Z" fill="white"/>
<path d="M78.2272 27.6171C78.3859 27.6427 78.5437 27.6853 78.6997 27.7429C80.0279 28.2379 80.704 29.7163 80.2097 31.0432C79.7149 32.3701 78.237 33.0464 76.9085 32.5514C76.7528 32.4938 76.6065 32.4213 76.4689 32.3381C77.6586 32.5386 78.8595 31.8752 79.2962 30.7019C79.7324 29.5307 79.2586 28.2421 78.2272 27.6171Z" fill="#E1E6EB"/>
<path opacity="0.2" d="M6.16738 166.57L37.0653 152.443C38.0673 151.984 39.2084 151.935 40.2469 152.304L55.2468 157.625C57.1547 158.301 58.1245 160.421 57.3883 162.307L51.6003 177.134C51.1997 178.16 50.4153 178.99 49.413 179.449L18.5151 193.575C16.3848 194.55 13.8683 193.612 12.8942 191.483L4.07372 172.191C3.09964 170.062 4.03703 167.545 6.16738 166.57Z" fill="#E1E6EB"/>
<g style="mix-blend-mode:luminosity" opacity="0.2">
<path d="M8.8351 165.351L39.733 151.222C40.735 150.766 41.8762 150.715 42.9147 151.084L57.9143 156.404C59.8224 157.081 60.792 159.201 60.056 161.087L54.2681 175.914C53.8672 176.94 53.0828 177.77 52.0807 178.228L21.1828 192.357C19.0525 193.33 16.536 192.394 15.5619 190.262L6.74145 170.971C5.76737 168.842 6.70475 166.324 8.8351 165.351Z" fill="#F0F2F5"/>
</g>
<path d="M51.6077 162.119C51.0881 160.982 51.4686 159.662 52.4508 158.964C53.6231 158.678 54.8692 159.254 55.3889 160.389C55.9092 161.529 55.529 162.847 54.5456 163.545C53.3748 163.83 52.1278 163.257 51.6077 162.119Z" fill="white"/>
<path d="M52.4509 158.964C52.5821 158.87 52.7229 158.789 52.8742 158.719C54.1634 158.13 55.6866 158.698 56.2756 159.984C56.865 161.275 56.2969 162.796 55.0077 163.387C54.8565 163.455 54.7022 163.506 54.5456 163.545C55.5291 162.847 55.9093 161.529 55.389 160.389C54.8693 159.254 53.6232 158.678 52.4509 158.964Z" fill="#E1E6EB"/>
<path opacity="0.2" d="M381.319 0.267746L349.481 12.127C348.448 12.511 347.606 13.2811 347.132 14.2773L340.288 28.6453C339.418 30.4736 340.233 32.6581 342.087 33.4731L356.661 39.8624C357.671 40.3061 358.814 40.3381 359.847 39.9541L391.684 28.095C393.88 27.2779 394.995 24.8352 394.178 22.64L386.773 2.76162C385.956 0.566422 383.514 -0.54932 381.319 0.267746Z" fill="#E1E6EB"/>
<g style="mix-blend-mode:luminosity" opacity="0.2">
<path d="M378.571 1.29175L346.733 13.151C345.7 13.535 344.858 14.3051 344.384 15.3013L337.54 29.6693C336.67 31.4976 337.483 33.6822 339.337 34.495L353.914 40.8864C354.923 41.3302 356.064 41.3621 357.097 40.976L388.935 29.119C391.13 28.3019 392.248 25.8592 391.428 23.664L384.026 3.78563C383.209 1.59043 380.766 0.474686 378.571 1.29175Z" fill="#F0F2F5"/>
</g>
<path d="M346.04 29.2512C345.604 28.08 344.401 27.4165 343.213 27.6171C342.182 28.2421 341.707 29.5307 342.144 30.7019C342.581 31.8752 343.783 32.5386 344.971 32.3381C346.001 31.7109 346.477 30.4245 346.04 29.2512Z" fill="white"/>
<path d="M343.213 27.6171C343.055 27.6427 342.897 27.6853 342.742 27.7429C341.412 28.2379 340.736 29.7163 341.231 31.0432C341.726 32.3701 343.202 33.0464 344.531 32.5514C344.687 32.4938 344.834 32.4213 344.971 32.3381C343.783 32.5386 342.582 31.8752 342.144 30.7019C341.707 29.5307 342.183 28.2421 343.213 27.6171Z" fill="#E1E6EB"/>
<path opacity="0.2" d="M415.273 166.57L384.376 152.443C383.373 151.984 382.232 151.935 381.193 152.304L366.193 157.625C364.286 158.301 363.315 160.421 364.051 162.307L369.839 177.134C370.24 178.16 371.025 178.99 372.028 179.449L402.925 193.575C405.056 194.55 407.571 193.612 408.546 191.483L417.368 172.191C418.34 170.062 417.404 167.545 415.273 166.57Z" fill="#E1E6EB"/>
<g style="mix-blend-mode:luminosity" opacity="0.2">
<path d="M412.606 165.351L381.707 151.222C380.704 150.766 379.565 150.715 378.526 151.084L363.526 156.404C361.617 157.081 360.649 159.201 361.385 161.087L367.172 175.914C367.573 176.94 368.356 177.77 369.359 178.228L400.258 192.357C402.387 193.33 404.905 192.394 405.877 190.262L414.699 170.971C415.674 168.842 414.735 166.324 412.606 165.351Z" fill="#F0F2F5"/>
</g>
<path d="M369.833 162.119C370.353 160.982 369.971 159.662 368.99 158.964C367.817 158.678 366.571 159.254 366.052 160.389C365.532 161.529 365.912 162.847 366.895 163.545C368.066 163.83 369.312 163.257 369.833 162.119Z" fill="white"/>
<path d="M368.99 158.964C368.858 158.87 368.717 158.789 368.565 158.719C367.277 158.13 365.754 158.698 365.165 159.984C364.576 161.275 365.144 162.796 366.432 163.387C366.584 163.455 366.737 163.506 366.895 163.545C365.912 162.847 365.532 161.529 366.052 160.389C366.571 159.254 367.817 158.678 368.99 158.964Z" fill="#E1E6EB"/>
<path d="M326.08 225.407C324.928 233.437 321.148 255.018 312.77 264.074C310.475 266.555 306.899 267.389 303.733 266.201C302.099 265.588 301.259 263.777 301.843 262.132L286.5 258.047L283.676 262.209C281.242 277.268 281.956 303.877 283.277 326.67V326.672C283.881 337.081 284.61 346.693 285.22 354.049C285.944 362.706 286.5 368.229 286.5 368.229H150.884C150.884 368.229 151.588 363.44 152.436 355.397C153.248 347.722 154.191 337.085 154.778 324.816C155.694 305.842 155.761 282.966 153.194 261.113L150.884 258.047L138.59 261.381C138.509 263.082 137.337 264.534 135.69 264.974L132.538 265.81C130.612 266.322 128.551 265.695 127.26 264.174C116.704 251.737 112.762 231.673 111.554 223.591C111.246 221.529 112.391 219.527 114.321 218.74L120.105 216.385C120.574 216.197 121.06 216.106 121.541 216.106C122.769 216.106 123.957 216.699 124.689 217.761C135.638 213.398 154.575 198.399 157.347 201.857C156.994 198.459 163.516 199.28 172.169 199.421C176.506 199.491 181.378 199.391 186.189 198.501C186.189 198.501 188.397 192.246 194.556 195.771C201.212 199.579 208.303 201.029 214.923 201.174C215.492 201.187 216.053 201.189 216.614 201.185C216.998 201.181 217.382 201.172 217.762 201.162C227.554 200.848 235.955 197.913 239.81 196.037C241.826 195.06 243.384 194.853 244.582 195.058C245.071 195.139 245.498 195.286 245.873 195.481C247.785 196.468 248.307 198.582 248.307 198.582C253.536 199.739 260.301 199.367 266.099 198.996C272.728 198.572 278.091 198.145 278.445 200.003C284.751 197.938 306.473 216.259 315.384 218.768C316.51 217.245 318.645 216.895 320.205 217.974L323.979 220.59C325.536 221.669 326.351 223.534 326.08 225.407Z" fill="#FFDEE4"/>
<path d="M235.081 233.887C235.213 234.947 235.283 236.007 235.33 237.068C235.36 237.597 235.366 238.128 235.384 238.657L235.401 240.246L235.384 241.838C235.366 242.367 235.36 242.898 235.33 243.427C235.283 244.487 235.215 245.548 235.081 246.608C234.948 245.548 234.878 244.487 234.831 243.427C234.801 242.898 234.795 242.367 234.778 241.838L234.761 240.246L234.78 238.657C234.797 238.128 234.803 237.597 234.833 237.068C234.88 236.007 234.948 234.947 235.081 233.887Z" fill="white"/>
<path d="M271.407 253.471C272.25 254.126 273.048 254.828 273.83 255.542C274.227 255.896 274.605 256.268 274.993 256.63L276.13 257.742L277.242 258.877C277.604 259.265 277.976 259.645 278.328 260.039C279.044 260.822 279.744 261.62 280.401 262.465C279.556 261.81 278.758 261.108 277.976 260.394C277.579 260.039 277.201 259.668 276.813 259.306L275.678 258.194L274.566 257.057C274.204 256.671 273.833 256.291 273.478 255.894C272.764 255.111 272.062 254.314 271.407 253.471Z" fill="white"/>
<path d="M227.812 273.484C227.155 274.326 226.456 275.126 225.739 275.907C225.385 276.304 225.016 276.684 224.653 277.07L223.541 278.207L222.404 279.318C222.018 279.681 221.639 280.052 221.244 280.406C220.461 281.123 219.661 281.823 218.818 282.478C219.473 281.635 220.173 280.835 220.89 280.052C221.244 279.658 221.615 279.278 221.976 278.892L223.089 277.755L224.226 276.643C224.612 276.281 224.992 275.909 225.387 275.557C226.17 274.841 226.97 274.139 227.812 273.484Z" fill="white"/>
<path d="M146.637 210.147C146.769 211.207 146.838 212.268 146.886 213.328C146.915 213.857 146.921 214.386 146.939 214.917L146.957 216.507L146.94 218.096C146.922 218.627 146.916 219.156 146.886 219.687C146.84 220.748 146.77 221.806 146.637 222.866C146.504 221.806 146.434 220.748 146.387 219.687C146.357 219.156 146.352 218.627 146.334 218.096L146.317 216.507L146.335 214.917C146.352 214.386 146.359 213.857 146.388 213.328C146.435 212.268 146.504 211.207 146.637 210.147Z" fill="white"/>
<path d="M192.482 228.349C193.325 229.004 194.123 229.703 194.906 230.42C195.303 230.774 195.682 231.146 196.068 231.506L197.206 232.62L198.317 233.755C198.68 234.143 199.051 234.521 199.405 234.917C200.12 235.7 200.822 236.498 201.476 237.343C200.632 236.686 199.834 235.986 199.051 235.269C198.654 234.917 198.276 234.546 197.888 234.183L196.753 233.072L195.642 231.935C195.279 231.547 194.908 231.167 194.554 230.772C193.839 229.989 193.137 229.191 192.482 228.349Z" fill="white"/>
<path d="M274.443 204.266C273.788 205.11 273.086 205.908 272.369 206.691C272.017 207.086 271.646 207.466 271.283 207.852L270.172 208.989L269.035 210.102C268.649 210.463 268.269 210.834 267.874 211.188C267.091 211.905 266.293 212.605 265.449 213.26C266.104 212.417 266.803 211.617 267.52 210.836C267.874 210.439 268.245 210.06 268.608 209.674L269.72 208.537L270.857 207.425C271.243 207.062 271.622 206.693 272.017 206.339C272.8 205.622 273.6 204.923 274.443 204.266Z" fill="white"/>
<path d="M171.053 282.386C171.185 283.444 171.256 284.504 171.303 285.565C171.332 286.096 171.339 286.625 171.356 287.156L171.373 288.746L171.356 290.335C171.339 290.864 171.332 291.395 171.303 291.924C171.256 292.984 171.187 294.045 171.053 295.105C170.921 294.045 170.85 292.984 170.803 291.924C170.773 291.395 170.769 290.864 170.75 290.335L170.733 288.746L170.752 287.156C170.769 286.625 170.776 286.096 170.805 285.565C170.852 284.504 170.921 283.444 171.053 282.386Z" fill="white"/>
<path d="M271.407 342.676C271.539 343.737 271.608 344.797 271.654 345.857C271.684 346.386 271.691 346.917 271.708 347.446L271.727 349.038L271.71 350.627C271.691 351.156 271.687 351.687 271.657 352.217C271.61 353.277 271.539 354.337 271.407 355.397C271.273 354.337 271.204 353.277 271.157 352.217C271.128 351.687 271.121 351.156 271.104 350.627L271.087 349.038L271.104 347.446C271.121 346.917 271.128 346.386 271.157 345.857C271.204 344.797 271.275 343.737 271.407 342.676Z" fill="white"/>
<path d="M217.713 314.45C218.558 315.107 219.356 315.807 220.139 316.524C220.533 316.878 220.913 317.247 221.301 317.61L222.436 318.721L223.55 319.858C223.913 320.244 224.282 320.624 224.636 321.019C225.353 321.802 226.052 322.602 226.707 323.444C225.865 322.789 225.067 322.09 224.284 321.373C223.887 321.019 223.509 320.647 223.121 320.287L221.984 319.173L220.873 318.036C220.51 317.65 220.141 317.27 219.787 316.876C219.07 316.093 218.37 315.293 217.713 314.45Z" fill="white"/>
<path d="M180.553 345.55C179.898 346.393 179.198 347.192 178.481 347.975C178.127 348.37 177.756 348.75 177.395 349.136L176.282 350.273L175.147 351.385C174.758 351.747 174.381 352.118 173.984 352.473C173.201 353.189 172.403 353.889 171.558 354.544C172.216 353.701 172.915 352.901 173.632 352.118C173.984 351.724 174.355 351.344 174.718 350.958L175.829 349.821L176.966 348.709C177.355 348.347 177.734 347.975 178.129 347.623C178.912 346.907 179.71 346.207 180.553 345.55Z" fill="white"/>
<path d="M285.22 354.049L272.674 349.031V320.436L283.277 326.67V326.672C283.881 337.081 284.61 346.693 285.22 354.049Z" fill="#FFD3DB"/>
<path d="M152.436 355.397C153.248 347.722 154.191 337.085 154.778 324.816L166.204 320.436V349.031L152.436 355.397Z" fill="#FFD3DB"/>
<path d="M189.5 358.137C188.316 358.137 187.117 358.105 185.907 358.038C243.424 352.78 269.922 294.681 271.345 291.463C262.705 311.139 235.057 358.139 189.5 358.137ZM271.345 291.463C271.367 291.419 271.386 291.372 271.407 291.325C271.405 291.329 271.386 291.376 271.345 291.463Z" fill="#FFD3DB"/>
<path d="M186.189 198.499C186.225 198.399 187.58 194.695 191.047 194.693C187.58 194.698 186.225 198.399 186.189 198.499Z" fill="#DCBDB1"/>
<path d="M207.087 273.484C204.433 273.484 199.243 272.313 198.05 263.442C198.05 263.442 197.811 268.357 199.431 270.576C199.431 270.576 199.33 270.589 199.155 270.589C198.119 270.589 194.46 270.107 193.434 263.442C193.434 263.442 192.894 265.358 193.255 267.698C193.255 267.698 190.136 266.557 190.737 261.942C190.737 261.942 189.959 264.519 190.618 266.738C190.618 266.738 184.124 261.177 188.683 254.427C193.24 247.679 203.719 248.415 206.027 237.462C202.906 237.646 199.94 238.352 196.824 238.821C195.475 239.024 194.095 239.141 192.691 239.141C192.393 239.141 192.092 239.137 191.793 239.124C190.938 239.092 190.074 239.003 189.223 238.806C188.373 238.606 187.541 238.284 186.784 237.844C186.025 237.407 185.342 236.857 184.751 236.242C184.158 235.623 183.655 234.943 183.207 234.233C182.323 232.807 181.562 231.227 181.233 229.52C181.069 228.673 181.026 227.805 181.075 226.949C181.118 226.094 181.248 225.247 181.429 224.419C181.619 223.594 181.856 222.783 182.176 222.002C182.477 221.236 182.835 220.498 183.29 219.807C182.793 219.905 180.67 220.287 178.197 220.287C172.525 220.287 165.009 218.273 171.055 206.183C171.055 206.183 170.688 203.248 172.169 199.421C172.254 199.421 172.337 199.423 172.42 199.423C172.463 199.425 172.504 199.425 172.544 199.425C172.551 199.425 172.559 199.425 172.565 199.425C173.139 199.434 173.72 199.438 174.311 199.438C174.315 199.438 174.317 199.438 174.319 199.438C178.001 199.438 181.978 199.254 185.92 198.55C185.941 198.546 185.963 198.542 185.984 198.54C185.993 198.538 185.999 198.535 186.005 198.535C186.067 198.525 186.127 198.514 186.189 198.501C186.189 198.501 186.189 198.501 186.189 198.499C186.225 198.399 187.58 194.698 191.047 194.693H191.049C191.051 194.693 191.051 194.693 191.051 194.693C192.03 194.695 193.176 194.99 194.507 195.743C194.524 195.751 194.539 195.762 194.556 195.771C201.212 199.579 208.303 201.029 214.923 201.174C215.881 205.919 215.034 210.55 213.988 213.921C214.626 212.345 215.196 210.759 215.669 209.166C216.16 207.504 216.576 205.819 216.668 204.103C216.717 203.141 216.721 202.16 216.615 201.185C216.999 201.181 217.383 201.172 217.762 201.162C218.029 202.126 218.185 203.124 218.2 204.131C218.21 205.074 218.159 206.021 218.018 206.949C217.888 207.882 217.69 208.799 217.417 209.691C216.871 211.476 216.071 213.155 215.145 214.738C214.215 216.317 213.156 217.808 211.934 219.165C212.932 219.67 223.202 225.087 219.868 231.248C219.868 231.248 217.624 222.265 212.337 220.084C212.337 220.084 224.625 230.39 214.055 244.53C214.055 244.53 215.326 250.755 209.822 257.531C207.97 259.813 207.209 262.838 208.011 265.663C208.465 267.263 209.365 268.562 211.096 268.562C212.117 268.562 213.429 268.108 215.113 266.992C215.113 266.992 214.293 272.558 210.027 272.558C209.193 272.558 208.224 272.345 207.106 271.835C207.145 271.89 207.791 272.752 208.664 273.334C208.664 273.334 208.039 273.484 207.087 273.484ZM182.584 228.146C182.586 228.551 182.592 228.959 182.607 229.362C182.628 230.145 182.69 230.937 182.842 231.719C183 232.496 183.26 233.264 183.657 233.962C184.435 235.365 185.722 236.466 187.198 236.955C187.93 237.215 188.693 237.347 189.461 237.426C190.012 237.49 190.571 237.514 191.132 237.514C191.268 237.514 191.405 237.511 191.541 237.509C185.169 237.091 182.991 232.733 182.584 228.146ZM201.476 237.343C200.821 236.498 200.12 235.7 199.405 234.917C199.051 234.521 198.68 234.143 198.317 233.755L197.205 232.62L196.068 231.506C195.682 231.146 195.303 230.774 194.906 230.42C194.123 229.703 193.325 229.004 192.482 228.349C193.137 229.191 193.839 229.989 194.554 230.772C194.908 231.167 195.279 231.547 195.642 231.935L196.753 233.072L197.888 234.183C198.276 234.546 198.654 234.917 199.051 235.269C199.834 235.986 200.632 236.686 201.476 237.343Z" fill="#FFD3DB"/>
<path d="M201.476 237.343C200.632 236.686 199.834 235.986 199.051 235.269C198.654 234.917 198.276 234.546 197.888 234.183L196.753 233.072L195.642 231.935C195.279 231.547 194.908 231.167 194.554 230.772C193.839 229.989 193.137 229.191 192.482 228.349C193.325 229.004 194.123 229.703 194.906 230.42C195.303 230.774 195.682 231.146 196.068 231.506L197.206 232.62L198.317 233.755C198.68 234.143 199.051 234.521 199.405 234.917C200.12 235.7 200.822 236.498 201.476 237.343Z" fill="#DBBDB1"/>
<path d="M165.491 306.222L162.238 255.374C162.238 255.374 164.066 270.646 172.657 283.621C171.74 282.499 169.85 280.481 168.224 280.481C166.718 280.481 165.44 282.209 165.37 287.982C165.314 292.541 165.491 306.222 165.491 306.222Z" fill="#FFD3DB"/>
<path d="M257.871 289.392C257.871 289.392 269.946 285.554 274.351 275.449L273.534 288.229C272.647 287.193 271.362 286.617 270.033 286.617C269.677 286.617 269.319 286.657 268.964 286.742L257.871 289.392Z" fill="#FFD3DB"/>
<path d="M156.551 202.706C155.812 203.777 155.227 204.942 154.731 206.139C154.668 206.288 154.597 206.433 154.538 206.582L154.364 207.037L154.016 207.943C153.817 208.56 153.599 209.17 153.409 209.789C152.652 212.266 152.139 214.811 151.77 217.373C151.365 219.933 151.204 222.525 151.056 225.113C151.026 225.761 151.029 226.41 151.01 227.058L150.968 229.006C150.982 230.303 151.011 231.602 151.012 232.903C150.914 231.609 150.844 230.309 150.759 229.01C150.74 227.709 150.714 226.405 150.723 225.104C150.803 222.499 150.947 219.89 151.349 217.311L151.489 216.342C151.533 216.02 151.608 215.702 151.666 215.38C151.796 214.74 151.903 214.096 152.051 213.46L152.526 211.562C152.704 210.934 152.903 210.311 153.093 209.689C153.302 209.07 153.532 208.458 153.756 207.845L154.139 206.943L154.33 206.493C154.396 206.343 154.47 206.198 154.541 206.051C154.687 205.761 154.825 205.465 154.977 205.177L155.451 204.321C155.792 203.764 156.13 203.205 156.551 202.706Z" fill="#A65B3C"/>
<path d="M126.636 226.282C126.888 227.818 127.168 229.347 127.489 230.87C127.798 232.394 128.134 233.913 128.502 235.423C128.875 236.931 129.248 238.442 129.665 239.937C130.08 241.435 130.531 242.922 131.011 244.4C131.946 247.361 133.039 250.273 134.279 253.121C135.52 255.967 136.947 258.734 138.591 261.381C137.697 260.106 136.875 258.779 136.1 257.426C135.348 256.059 134.633 254.672 133.98 253.255C132.671 250.422 131.576 247.493 130.605 244.53C129.667 241.554 128.847 238.542 128.183 235.495C127.853 233.972 127.552 232.443 127.285 230.909C127.033 229.371 126.793 227.83 126.636 226.282Z" fill="#A65B3C"/>
<path d="M279.061 201.046C280.578 202.574 281.788 204.387 282.82 206.277C283.851 208.174 284.666 210.179 285.327 212.236L285.756 213.795C285.824 214.055 285.907 214.314 285.963 214.578L286.129 215.37C286.234 215.897 286.357 216.423 286.445 216.955L286.671 218.555L286.782 219.355L286.842 220.161L286.955 221.772C286.978 222.038 286.974 222.307 286.974 222.578V223.385C286.976 223.922 286.974 224.458 286.965 224.995C286.876 223.922 286.85 222.851 286.746 221.785L286.562 220.189L286.475 219.393L286.342 218.602L286.078 217.021C285.98 216.496 285.848 215.978 285.734 215.457L285.562 214.674C285.506 214.414 285.423 214.16 285.355 213.902L284.92 212.362C284.275 210.326 283.486 208.338 282.526 206.431L282.163 205.716L281.771 205.019C281.638 204.788 281.515 204.549 281.372 204.323L280.949 203.643C280.38 202.738 279.761 201.861 279.061 201.046Z" fill="#A65B3C"/>
<path d="M247.992 201.027C247.932 201.648 247.821 202.262 247.687 202.873C247.552 203.483 247.396 204.089 247.215 204.686C246.85 205.883 246.4 207.054 245.858 208.185C244.785 210.45 243.335 212.543 241.594 214.354L240.924 215.02L240.222 215.649C239.994 215.865 239.74 216.05 239.497 216.249C239.251 216.445 239.008 216.645 238.748 216.82L237.976 217.362L237.176 217.859C236.913 218.032 236.636 218.179 236.359 218.326C236.081 218.471 235.81 218.631 235.527 218.764C233.269 219.865 230.85 220.592 228.388 220.978C230.818 220.43 233.178 219.6 235.375 218.467C237.56 217.311 239.573 215.835 241.287 214.058C243.002 212.285 244.44 210.245 245.56 208.037C246.123 206.934 246.607 205.793 247.017 204.622C247.435 203.453 247.768 202.252 247.992 201.027Z" fill="#A65B3C"/>
<path d="M271.426 291.333C269.566 295.762 267.407 300.063 265.056 304.255C263.874 306.346 262.645 308.413 261.37 310.448C260.096 312.485 258.75 314.478 257.368 316.445C255.975 318.403 254.53 320.323 253.039 322.207C252.29 323.148 251.533 324.078 250.763 324.999L249.602 326.378L248.425 327.741C245.255 331.348 241.914 334.811 238.349 338.034C234.78 341.249 230.993 344.238 226.953 346.858C224.932 348.163 222.857 349.383 220.725 350.503C218.594 351.626 216.403 352.628 214.17 353.529C209.707 355.34 205.035 356.626 200.286 357.401C195.535 358.186 190.699 358.361 185.907 358.06L185.909 358.017C188.307 358.109 190.707 358.07 193.099 357.921C193.696 357.876 194.296 357.844 194.891 357.787L196.679 357.599L198.458 357.358C199.051 357.279 199.64 357.166 200.231 357.072C202.588 356.66 204.924 356.123 207.224 355.459C209.523 354.798 211.789 354.019 214.005 353.121C218.439 351.318 222.699 349.095 226.735 346.521C230.767 343.933 234.594 341.029 238.193 337.859C241.796 334.695 245.18 331.278 248.314 327.645L249.481 326.275L250.626 324.889C251.379 323.954 252.122 323.013 252.851 322.06C254.308 320.157 255.714 318.213 257.077 316.24C258.453 314.277 259.763 312.27 261.052 310.247C262.338 308.225 263.58 306.173 264.772 304.093C267.164 299.937 269.385 295.679 271.388 291.316L271.426 291.333Z" fill="#A65B3C"/>
<path d="M162.238 255.374C162.454 256.62 162.701 257.859 162.985 259.088C163.126 259.705 163.275 260.319 163.422 260.931L163.898 262.764C164.551 265.2 165.312 267.606 166.172 269.974C166.581 271.167 167.068 272.33 167.531 273.503C167.772 274.085 168.032 274.659 168.282 275.237L168.661 276.103L169.069 276.955L169.89 278.659L170.78 280.33L171.221 281.168L171.701 281.983C172.024 282.525 172.341 283.071 172.657 283.621C172.303 283.097 171.953 282.572 171.605 282.043L171.083 281.249L170.599 280.432L169.643 278.789C169.346 278.23 169.063 277.665 168.77 277.102L168.337 276.255L167.943 275.391C167.68 274.813 167.409 274.241 167.157 273.659C166.682 272.485 166.189 271.316 165.771 270.119C164.915 267.734 164.167 265.309 163.576 262.845C162.976 260.385 162.505 257.891 162.238 255.374Z" fill="#A65B3C"/>
<path d="M272.367 279.037C272.045 279.6 271.667 280.129 271.266 280.641C270.87 281.153 270.441 281.644 269.999 282.122C269.11 283.067 268.145 283.95 267.119 284.752C265.071 286.367 262.78 287.655 260.384 288.679C259.179 289.172 257.948 289.605 256.698 289.966C255.441 290.307 254.174 290.617 252.89 290.817C250.323 291.25 247.719 291.408 245.131 291.325C247.719 291.242 250.298 290.973 252.83 290.489C255.362 290.009 257.843 289.275 260.22 288.287C262.588 287.282 264.854 286.03 266.919 284.487C267.949 283.717 268.932 282.879 269.852 281.977C270.774 281.074 271.635 280.106 272.367 279.037Z" fill="#A65B3C"/>
<path d="M182.349 295.417C181.124 295.308 179.928 294.969 178.769 294.555C177.611 294.137 176.493 293.607 175.407 293.029C174.325 292.441 173.287 291.779 172.284 291.067C171.78 290.715 171.305 290.326 170.818 289.951C170.351 289.552 169.884 289.157 169.429 288.746C169.944 289.081 170.436 289.443 170.944 289.785L171.708 290.288C171.964 290.454 172.209 290.636 172.472 290.791C172.992 291.107 173.496 291.453 174.027 291.749C174.289 291.901 174.547 292.065 174.812 292.214L175.612 292.654C176.679 293.234 177.771 293.77 178.891 294.245C179.452 294.476 180.017 294.704 180.593 294.9C181.167 295.107 181.752 295.28 182.349 295.417Z" fill="#A65B3C"/>
<path d="M283.635 262.465C283.663 259.839 283.751 257.215 283.885 254.593C284.015 251.969 284.188 249.349 284.399 246.732C284.623 244.116 284.868 241.501 285.195 238.894C285.519 236.287 285.91 233.686 286.422 231.111C286.072 233.714 285.794 236.321 285.528 238.93L285.336 240.888L285.161 242.847C285.039 244.152 284.932 245.46 284.824 246.766C284.604 249.379 284.414 251.997 284.216 254.612L283.635 262.465Z" fill="#A65B3C"/>
<path d="M153.194 261.113C152.945 259.146 152.721 257.177 152.521 255.205C152.315 253.234 152.132 251.263 151.95 249.29C151.777 247.316 151.604 245.343 151.45 243.367C151.289 241.394 151.152 239.417 151.012 237.439C151.317 239.399 151.565 241.366 151.781 243.335C152.003 245.307 152.194 247.278 152.375 249.251C152.548 251.225 152.714 253.2 152.852 255.178C152.995 257.153 153.11 259.133 153.194 261.113Z" fill="#A65B3C"/>
<path d="M100.929 187.495L103.653 189.748C104.504 190.452 105.575 190.838 106.68 190.838C107.879 190.838 109.033 190.384 109.912 189.569C110.756 188.786 111.144 187.628 110.944 186.495L110.915 186.331H111.505C113.458 186.331 115.248 185.219 116.086 183.455C116.098 183.429 116.11 183.404 116.122 183.378C116.122 183.378 121.445 184.466 122.999 180.076C122.999 180.076 125.137 183.261 127.39 182.755C129.644 182.252 130.11 180.076 130.11 180.076C130.11 180.076 135.321 179.259 135.622 176.396C136.024 172.569 128.637 171.178 128.637 171.178C128.637 171.178 127.508 169.403 126.945 166.279C126.737 165.127 126.292 164.031 125.636 163.06C123.221 159.483 117.108 152.321 109.869 158.132C109.869 158.132 106.54 158.075 103.958 158.386C103.038 158.497 102.196 158.96 101.607 159.677L99.9398 161.697C99.3953 162.356 98.6348 162.802 97.7928 162.954C96.7028 163.152 95.7633 163.837 95.2432 164.814L94.142 166.885C94.0229 167.109 93.8807 167.318 93.7175 167.515L88.5966 173.605C87.8854 174.452 87.0621 175.197 86.1497 175.82C84.3148 177.074 82.8584 178.809 81.9387 180.831L81.0621 182.759C80.661 183.643 80.1567 184.473 79.5581 185.236C73.8958 192.449 43.1538 232.34 42.2465 249.174C42.2465 249.174 36.9162 267.609 62.6798 266.721C62.6798 266.721 102.07 271.269 129.312 261.294C129.312 261.294 126.365 239.267 114.525 224.342C114.525 224.342 95.72 232.867 81.5863 232.551C81.5863 232.551 91.7324 190.401 100.929 187.495Z" fill="#FFC89F"/>
<path d="M116.122 183.378C116.004 182.627 115.761 181.908 115.451 181.226C115.142 180.541 114.759 179.894 114.326 179.286C113.893 178.674 113.393 178.124 112.865 177.584C112.335 177.04 111.816 176.483 111.309 175.914C110.304 174.77 109.37 173.556 108.556 172.266C107.732 170.983 107.045 169.616 106.48 168.208C106.849 168.871 107.199 169.541 107.603 170.181C107.99 170.832 108.404 171.463 108.833 172.082C109.263 172.701 109.711 173.309 110.18 173.898C110.645 174.491 111.128 175.069 111.63 175.632C112.125 176.202 112.639 176.754 113.156 177.307C113.671 177.866 114.189 178.448 114.6 179.099C115.436 180.381 116.039 181.853 116.122 183.378Z" fill="#FF9A6C"/>
<path d="M110.944 186.495C110.443 185.977 109.916 185.488 109.368 185.023C108.826 184.554 108.269 184.101 107.703 183.662C107.138 183.231 106.548 182.798 106.005 182.311C105.462 181.825 104.953 181.307 104.464 180.769C103.496 179.687 102.624 178.527 101.833 177.315C101.04 176.108 100.325 174.849 99.7164 173.541C100.097 174.154 100.479 174.762 100.884 175.357C101.281 175.954 101.69 176.545 102.107 177.127C102.947 178.29 103.823 179.425 104.781 180.483C105.256 181.017 105.754 181.529 106.276 182.013C106.79 182.503 107.358 182.93 107.912 183.404C109.013 184.34 110.064 185.349 110.944 186.495Z" fill="#FF9A6C"/>
<path d="M114.174 163.391C114.814 163.882 115.411 164.426 115.979 164.997C116.547 165.569 117.091 166.166 117.583 166.806C118.071 167.449 118.507 168.129 118.949 168.801C119.386 169.477 119.83 170.149 120.22 170.86C120.414 171.212 120.602 171.579 120.749 171.956C120.904 172.327 121.049 172.707 121.178 173.089C121.441 173.855 121.665 174.634 121.847 175.416L122.362 177.763C122.539 178.54 122.756 179.306 123.019 180.067L122.98 180.084C122.587 179.378 122.288 178.621 122.039 177.853C121.79 177.083 121.604 176.298 121.405 175.523C121.031 173.974 120.619 172.428 120.01 170.962C119.693 170.233 119.296 169.533 118.835 168.88C118.602 168.554 118.354 168.24 118.095 167.935C117.839 167.628 117.574 167.327 117.308 167.03C116.269 165.819 115.213 164.624 114.145 163.421L114.174 163.391Z" fill="#FF9A6C"/>
<path d="M128.637 171.178C128.939 171.875 129.179 172.596 129.392 173.324C129.608 174.051 129.783 174.789 129.93 175.534C130.002 175.907 130.06 176.285 130.117 176.66C130.158 177.038 130.213 177.415 130.229 177.797C130.273 178.555 130.276 179.329 130.11 180.076C130.098 179.314 130.002 178.574 129.898 177.831C129.789 177.091 129.658 176.351 129.511 175.615C129.234 174.139 128.903 172.673 128.637 171.178Z" fill="#FF9A6C"/>
<path d="M100.929 187.495C100.326 187.033 99.716 186.593 99.0958 186.171C98.4722 185.755 97.8416 185.351 97.185 184.999C96.529 184.647 95.8525 184.34 95.1532 184.089C94.4477 183.854 93.7232 183.69 92.9637 183.609C93.72 183.51 94.4995 183.587 95.2488 183.769C95.9952 183.965 96.7077 184.268 97.3876 184.626C98.0609 184.995 98.6984 185.424 99.2931 185.904C99.8862 186.384 100.448 186.905 100.929 187.495Z" fill="#FF9A6C"/>
<path d="M95.5609 185.955C95.1808 186.066 94.784 186.119 94.3865 186.147C94.1873 186.162 93.9878 186.156 93.7873 186.16C93.5878 186.149 93.3875 186.139 93.1878 186.119C92.9894 186.092 92.7895 186.066 92.5918 186.03L92.0036 185.891C91.8105 185.834 91.6217 185.761 91.4306 185.697C91.2375 185.635 91.0605 185.535 90.8746 185.456C90.7838 185.411 90.6912 185.371 90.6022 185.324L90.3434 185.166L90.0849 185.006C89.9978 184.955 89.9121 184.901 89.8357 184.835L89.363 184.458C89.2047 184.332 89.0747 184.176 88.9325 184.035C88.637 183.76 88.4164 183.421 88.177 183.105L88.0902 182.983L88.0164 182.853L87.8718 182.591C87.7764 182.418 87.6847 182.243 87.5957 182.066C87.7235 182.22 87.8485 182.371 87.9699 182.525C88.0975 182.674 88.1975 182.843 88.3426 182.977C88.6148 183.254 88.861 183.553 89.1635 183.796C89.7269 184.319 90.3771 184.737 91.0607 185.072C91.7427 185.415 92.4793 185.648 93.2362 185.791C93.994 185.934 94.7725 185.989 95.5609 185.955Z" fill="#FF9A6C"/>
<path d="M81.5862 232.551C81.3332 234.237 80.9799 235.907 80.5543 237.558C80.133 239.212 79.6295 240.846 79.0474 242.452C78.7474 243.252 78.4364 244.048 78.0886 244.831C77.7349 245.61 77.3671 246.382 76.9465 247.129C76.5266 247.875 76.0654 248.601 75.5472 249.283C75.0209 249.957 74.4488 250.606 73.7693 251.124C74.3841 250.533 74.9138 249.868 75.3774 249.162C75.848 248.46 76.2638 247.722 76.6529 246.973C77.416 245.462 78.0667 243.897 78.6469 242.305C79.2323 240.716 79.7499 239.099 80.2348 237.471C80.7124 235.841 81.1715 234.205 81.5862 232.551Z" fill="#FF9A6C"/>
<path d="M336.943 187.495L334.221 189.748C333.368 190.452 332.299 190.838 331.194 190.838C329.995 190.838 328.838 190.384 327.962 189.569C327.117 188.786 326.729 187.628 326.929 186.495L326.957 186.331H326.368C324.414 186.331 322.624 185.219 321.788 183.455C321.775 183.429 321.762 183.404 321.752 183.378C321.752 183.378 316.427 184.466 314.874 180.076C314.874 180.076 312.736 183.261 310.483 182.755C308.228 182.252 307.763 180.076 307.763 180.076C307.763 180.076 302.552 179.259 302.251 176.396C301.85 172.569 309.235 171.178 309.235 171.178C309.235 171.178 310.364 169.403 310.929 166.279C311.136 165.127 311.582 164.031 312.237 163.06C314.652 159.483 320.764 152.321 328.004 158.132C328.004 158.132 331.332 158.075 333.916 158.386C334.835 158.497 335.676 158.96 336.267 159.677L337.933 161.697C338.477 162.356 339.238 162.802 340.079 162.954C341.169 163.152 342.11 163.837 342.63 164.814L343.731 166.885C343.849 167.109 343.992 167.318 344.156 167.515L349.276 173.605C349.988 174.452 350.81 175.197 351.723 175.82C353.557 177.074 355.014 178.809 355.934 180.831L356.811 182.759C357.212 183.643 357.715 184.473 358.315 185.236C363.977 192.449 394.718 232.34 395.627 249.174C395.627 249.174 400.956 267.609 375.194 266.721C375.194 266.721 335.802 271.269 308.561 261.294C308.561 261.294 311.507 239.267 323.347 224.342C323.347 224.342 342.153 232.867 356.286 232.551C356.286 232.551 346.14 190.401 336.943 187.495Z" fill="#FFC89F"/>
<path d="M321.752 183.378C321.833 181.853 322.436 180.381 323.273 179.099C323.684 178.448 324.203 177.866 324.717 177.307C325.233 176.754 325.747 176.202 326.242 175.632C326.746 175.069 327.228 174.491 327.693 173.898C328.162 173.309 328.61 172.701 329.039 172.082C329.468 171.463 329.882 170.832 330.27 170.181C330.673 169.541 331.023 168.871 331.392 168.208C330.829 169.616 330.142 170.983 329.316 172.266C328.504 173.556 327.569 174.77 326.562 175.914C326.057 176.483 325.538 177.04 325.007 177.584C324.48 178.124 323.981 178.674 323.546 179.286C323.115 179.894 322.731 180.541 322.421 181.226C322.112 181.908 321.869 182.627 321.752 183.378Z" fill="#FF9A6C"/>
<path d="M326.929 186.495C327.808 185.349 328.86 184.34 329.961 183.404C330.515 182.93 331.083 182.503 331.597 182.013C332.117 181.529 332.617 181.017 333.092 180.483C334.05 179.425 334.925 178.29 335.765 177.127C336.184 176.545 336.591 175.954 336.99 175.357C337.393 174.762 337.775 174.154 338.157 173.541C337.547 174.849 336.832 176.108 336.039 177.315C335.249 178.527 334.377 179.687 333.408 180.769C332.92 181.307 332.41 181.825 331.868 182.311C331.324 182.798 330.735 183.231 330.17 183.662C329.604 184.101 329.048 184.554 328.504 185.023C327.957 185.488 327.431 185.977 326.929 186.495Z" fill="#FF9A6C"/>
<path d="M323.727 163.421C322.66 164.624 321.604 165.819 320.565 167.03C320.299 167.327 320.034 167.628 319.778 167.935C319.518 168.24 319.27 168.554 319.038 168.88C318.577 169.533 318.18 170.233 317.862 170.962C317.254 172.428 316.843 173.974 316.467 175.523C316.269 176.298 316.083 177.083 315.834 177.853C315.584 178.621 315.285 179.378 314.893 180.084L314.854 180.067C315.117 179.306 315.334 178.54 315.509 177.763L316.026 175.416C316.207 174.634 316.431 173.855 316.693 173.089C316.824 172.707 316.969 172.327 317.124 171.956C317.272 171.579 317.457 171.212 317.653 170.86C318.044 170.149 318.488 169.477 318.925 168.801C319.366 168.129 319.802 167.449 320.29 166.806C320.781 166.166 321.325 165.569 321.894 164.997C322.462 164.426 323.057 163.882 323.699 163.391L323.727 163.421Z" fill="#FF9A6C"/>
<path d="M309.235 171.178C308.971 172.673 308.638 174.139 308.361 175.615C308.216 176.351 308.083 177.091 307.975 177.831C307.87 178.574 307.774 179.314 307.763 180.076C307.597 179.329 307.599 178.555 307.644 177.797C307.659 177.415 307.714 177.038 307.755 176.66C307.812 176.285 307.87 175.907 307.943 175.534C308.09 174.789 308.265 174.051 308.48 173.324C308.693 172.596 308.935 171.875 309.235 171.178Z" fill="#FF9A6C"/>
<path d="M336.943 187.495C337.425 186.905 337.986 186.384 338.579 185.904C339.174 185.424 339.812 184.995 340.484 184.626C341.165 184.268 341.877 183.965 342.624 183.769C343.373 183.587 344.154 183.51 344.909 183.609C344.149 183.69 343.424 183.854 342.72 184.089C342.02 184.34 341.344 184.647 340.687 184.999C340.03 185.351 339.401 185.755 338.778 186.171C338.157 186.593 337.547 187.033 336.943 187.495Z" fill="#FF9A6C"/>
<path d="M342.313 185.955C343.1 185.989 343.879 185.934 344.636 185.791C345.393 185.648 346.129 185.415 346.812 185.072C347.495 184.737 348.145 184.319 348.708 183.796C349.011 183.553 349.259 183.254 349.53 182.977C349.675 182.843 349.775 182.674 349.903 182.525C350.025 182.371 350.148 182.22 350.276 182.066C350.189 182.243 350.097 182.418 350.001 182.591L349.856 182.853L349.784 182.983L349.696 183.105C349.457 183.421 349.235 183.76 348.941 184.035C348.798 184.176 348.668 184.332 348.51 184.458L348.036 184.835C347.962 184.901 347.874 184.955 347.787 185.006L347.529 185.166L347.271 185.324C347.181 185.371 347.089 185.411 346.998 185.456C346.812 185.535 346.635 185.635 346.443 185.697C346.251 185.761 346.063 185.834 345.869 185.891L345.28 186.03C345.084 186.066 344.883 186.092 344.685 186.119C344.484 186.139 344.284 186.149 344.086 186.16C343.885 186.156 343.687 186.162 343.486 186.147C343.089 186.119 342.692 186.066 342.313 185.955Z" fill="#FF9A6C"/>
<path d="M356.286 232.551C356.702 234.205 357.161 235.841 357.639 237.471C358.123 239.099 358.641 240.716 359.226 242.305C359.806 243.897 360.457 245.462 361.22 246.973C361.609 247.722 362.025 248.46 362.496 249.162C362.959 249.868 363.488 250.533 364.103 251.124C363.424 250.606 362.852 249.957 362.325 249.283C361.807 248.601 361.346 247.875 360.926 247.129C360.506 246.382 360.139 245.61 359.785 244.831C359.437 244.048 359.125 243.252 358.825 242.452C358.242 240.846 357.739 239.212 357.319 237.558C356.892 235.907 356.54 234.237 356.286 232.551Z" fill="#FF9A6C"/>
<path d="M70.0193 221.799L144.924 220.298L149.104 223.052L160.058 221.324L167.928 344.295L135.773 352.993L64.3167 340.938L70.0193 221.799Z" fill="#F7F7F7"/>
<path d="M144.924 220.298L135.773 352.993L150.183 325.729L149.105 223.052L144.924 220.298Z" fill="#E7E7E7"/>
<path d="M144.924 220.298L143.832 236.889L142.707 253.475L140.455 286.653L138.131 319.824L136.969 336.411L135.773 352.993L136.865 336.404L137.99 319.815L140.242 286.638L142.565 253.467L143.728 236.88L144.924 220.298Z" fill="#1B1A2E"/>
<path d="M150.183 325.729C149.021 328.02 147.839 330.303 146.653 332.583L143.072 339.412L139.448 346.215L137.62 349.61L135.773 352.993L137.528 349.561L139.303 346.139L142.884 339.312L146.509 332.507C147.725 330.243 148.944 327.98 150.183 325.729Z" fill="#1B1A2E"/>
<path d="M149.104 223.052L149.291 235.886L149.445 248.72L149.75 274.388L149.984 300.059L150.101 312.893L150.183 325.729L149.996 312.895L149.843 300.061L149.538 274.392L149.304 248.722L149.187 235.888L149.104 223.052Z" fill="#1B1A2E"/>
<path d="M150.183 325.729C151.694 327.246 153.187 328.778 154.678 330.314L159.132 334.939L163.55 339.598L165.747 341.938L167.928 344.295L165.67 342.011L163.433 339.711L158.978 335.086L154.56 330.427C153.094 328.867 151.63 327.306 150.183 325.729Z" fill="#1B1A2E"/>
<path d="M130.151 175.792C130.466 176.942 130.729 178.107 130.983 179.271C131.239 180.438 131.465 181.61 131.697 182.779C132.125 185.125 132.527 187.478 132.883 189.838C133.602 194.555 134.227 199.286 134.756 204.027C135.032 206.397 135.243 208.773 135.485 211.148C135.708 213.522 135.91 215.899 136.119 218.275L136.669 225.411L137.117 232.551L136.565 225.418L135.978 218.288C135.757 215.914 135.543 213.537 135.308 211.165C135.055 208.793 134.83 206.418 134.545 204.05C134.039 199.308 133.438 194.576 132.743 189.859C132.4 187.498 132.007 185.147 131.595 182.798C131.38 181.625 131.171 180.451 130.932 179.282C130.696 178.115 130.45 176.946 130.151 175.792Z" fill="#952C3E"/>
<path d="M99.7164 186.962C99.2601 188.893 98.8368 190.83 98.424 192.769C98.0036 194.706 97.5972 196.647 97.1965 198.589C96.3963 202.471 95.6185 206.361 94.8712 210.254C94.1032 214.145 93.3836 218.045 92.6538 221.942L90.5074 233.644L91.4739 227.775L92.4925 221.913C92.84 219.961 93.1912 218.009 93.5575 216.061C93.9187 214.111 94.2854 212.161 94.6619 210.213C95.4271 206.322 96.202 202.433 97.0367 198.555C97.8719 194.678 98.7396 190.806 99.7164 186.962Z" fill="#952C3E"/>
<path d="M367.853 221.799L292.949 220.298L288.768 223.052L277.813 221.324L269.946 344.295L302.099 352.993L373.555 340.938L367.853 221.799Z" fill="#F7F7F7"/>
<path d="M292.95 220.298L302.099 352.993L287.689 325.729L288.768 223.052L292.95 220.298Z" fill="#E7E7E7"/>
<path d="M292.949 220.298L294.144 236.88L295.307 253.467L297.63 286.638L299.883 319.815L301.007 336.404L302.099 352.993L300.905 336.411L299.742 319.824L297.419 286.653L295.166 253.475L294.042 236.889L292.949 220.298Z" fill="#1B1A2E"/>
<path d="M287.689 325.729C288.93 327.98 290.148 330.243 291.364 332.507L294.989 339.312L298.569 346.139L300.346 349.561L302.099 352.993L300.252 349.61L298.426 346.215L294.801 339.412L291.219 332.583C290.033 330.303 288.851 328.02 287.689 325.729Z" fill="#1B1A2E"/>
<path d="M288.768 223.052L288.685 235.888L288.57 248.722L288.335 274.392L288.03 300.061L287.876 312.895L287.689 325.729L287.772 312.893L287.889 300.059L288.122 274.388L288.427 248.72L288.58 235.886L288.768 223.052Z" fill="#1B1A2E"/>
<path d="M287.689 325.729C286.242 327.306 284.779 328.867 283.313 330.427L278.895 335.086L274.441 339.711L272.201 342.011L269.946 344.295L272.126 341.938L274.323 339.598L278.741 334.939L283.194 330.314C284.685 328.778 286.178 327.246 287.689 325.729Z" fill="#1B1A2E"/>
<path d="M307.723 175.792C307.422 176.946 307.177 178.115 306.942 179.282C306.703 180.451 306.492 181.625 306.279 182.798C305.867 185.147 305.472 187.498 305.131 189.859C304.435 194.576 303.834 199.308 303.328 204.05C303.042 206.418 302.818 208.793 302.564 211.165C302.33 213.537 302.116 215.914 301.895 218.288L301.308 225.418L300.755 232.551L301.203 225.411L301.754 218.275C301.963 215.899 302.166 213.522 302.387 211.148C302.631 208.773 302.842 206.397 303.117 204.027C303.646 199.286 304.271 194.555 304.99 189.838C305.346 187.478 305.747 185.125 306.176 182.779C306.409 181.61 306.635 180.438 306.891 179.271C307.143 178.107 307.407 176.942 307.723 175.792Z" fill="#952C3E"/>
<path d="M338.157 186.962C339.134 190.806 340 194.678 340.836 198.555C341.67 202.433 342.445 206.322 343.211 210.213C343.588 212.161 343.955 214.111 344.316 216.061C344.681 218.009 345.033 219.961 345.38 221.913L346.398 227.775L347.364 233.644L345.218 221.942C344.489 218.045 343.77 214.145 343.002 210.254C342.255 206.361 341.476 202.471 340.676 198.589C340.275 196.647 339.87 194.706 339.45 192.769C339.036 190.83 338.613 188.893 338.157 186.962Z" fill="#952C3E"/>
<path d="M256.152 175.214C256.152 175.214 254.669 182.99 246.776 179.453C246.776 179.453 249.555 178.57 250.944 176.611C250.944 176.611 245.199 182.198 236.61 176.912L249.956 131.53C249.956 131.53 268.017 151.38 256.152 175.214Z" fill="#1B1A2E"/>
<path d="M238.23 192.496V157.401H195.862V192.496C195.862 195.126 193.73 197.255 191.102 197.255C191.102 204.997 197.267 214.898 222.37 214.235C234.223 213.923 242.974 205.567 242.974 197.827C240.346 197.827 238.23 195.126 238.23 192.496Z" fill="#FFC89F"/>
<path d="M217.045 187.026C201.461 187.026 188.83 174.392 188.83 158.808V124.338C188.83 108.754 201.461 96.1205 217.045 96.1205C232.629 96.1205 245.263 108.754 245.263 124.338V158.808C245.263 174.392 232.629 187.026 217.045 187.026Z" fill="#FFC89F"/>
<path d="M217.045 187.026C214.613 187.233 212.132 187.028 209.73 186.469C209.126 186.339 208.538 186.154 207.942 185.987C207.352 185.81 206.778 185.578 206.193 185.375C205.897 185.281 205.624 185.136 205.34 185.014L204.493 184.633C203.932 184.372 203.396 184.061 202.846 183.777C202.306 183.472 201.794 183.122 201.269 182.798C200.755 182.454 200.263 182.079 199.763 181.716C199.277 181.332 198.816 180.921 198.342 180.524C197.884 180.11 197.453 179.668 197.013 179.235C195.305 177.458 193.854 175.434 192.789 173.234C194.219 175.214 195.804 177.042 197.568 178.668C198.027 179.058 198.468 179.461 198.925 179.847C199.398 180.214 199.859 180.596 200.344 180.946C200.838 181.281 201.314 181.646 201.816 181.966C202.33 182.275 202.827 182.604 203.349 182.894C203.876 183.173 204.39 183.481 204.928 183.739C205.472 183.986 206.005 184.255 206.556 184.485C207.113 184.703 207.659 184.95 208.226 185.145L209.077 185.426C209.361 185.518 209.641 185.635 209.933 185.706C212.233 186.39 214.616 186.811 217.045 187.026Z" fill="#FF9A6C"/>
<path d="M242.257 171.498C242.121 171.865 241.978 172.231 241.826 172.598L241.596 173.145L241.325 173.671L240.76 174.719C240.548 175.054 240.324 175.38 240.107 175.713C239.996 175.877 239.891 176.048 239.776 176.208L239.409 176.677C239.16 176.987 238.927 177.309 238.665 177.607C238.402 177.906 238.129 178.194 237.863 178.489C237.596 178.783 237.301 179.05 237.022 179.331L236.589 179.741L236.139 180.129C235.836 180.383 235.548 180.656 235.226 180.891C234.599 181.375 233.961 181.844 233.293 182.271C232.954 182.476 232.623 182.693 232.28 182.887C231.932 183.075 231.591 183.276 231.236 183.451C230.528 183.798 229.811 184.138 229.048 184.353C229.713 183.933 230.351 183.485 230.976 183.024C231.61 182.572 232.22 182.094 232.832 181.625C233.133 181.379 233.429 181.132 233.732 180.895C234.033 180.654 234.321 180.396 234.613 180.146C234.912 179.903 235.192 179.638 235.48 179.385L235.908 178.998L236.32 178.595C237.451 177.552 238.483 176.413 239.475 175.237C239.721 174.941 239.96 174.638 240.211 174.343L240.903 173.411L241.257 172.948L241.581 172.462C241.799 172.14 242.025 171.818 242.257 171.498Z" fill="#FF9A6C"/>
<path d="M187.844 157.691H189.312C192.211 157.691 194.562 155.34 194.562 152.441V143.069C194.562 140.17 192.211 137.821 189.312 137.821H187.844C184.945 137.821 182.594 140.17 182.594 143.069V152.441C182.594 155.34 184.945 157.691 187.844 157.691Z" fill="#FFC89F"/>
<path d="M187.428 143.382C186.865 143.577 186.485 143.997 186.249 144.475C185.997 144.946 185.869 145.482 185.788 146.015C185.647 147.088 185.715 148.202 186.014 149.213C186.17 149.716 186.387 150.192 186.692 150.576C186.837 150.766 187.044 150.962 187.164 151.022C187.189 151.035 187.206 151.039 187.202 151.043L187.189 151.062C187.2 151.073 187.266 151.005 187.313 150.911C187.411 150.715 187.473 150.444 187.529 150.177C187.582 149.908 187.612 149.627 187.644 149.343C187.706 148.775 187.738 148.195 187.778 147.611C187.947 148.174 188.051 148.752 188.12 149.341C188.154 149.637 188.166 149.934 188.164 150.239C188.16 150.548 188.137 150.855 188.024 151.199C187.957 151.37 187.881 151.568 187.648 151.745C187.535 151.83 187.375 151.888 187.228 151.894C187.081 151.905 186.953 151.871 186.844 151.835C186.43 151.664 186.212 151.44 185.978 151.197C185.523 150.706 185.235 150.111 185.045 149.514C184.681 148.308 184.672 147.037 184.998 145.846C185.165 145.253 185.423 144.671 185.826 144.187C186.033 143.95 186.27 143.734 186.547 143.587C186.825 143.44 187.132 143.363 187.428 143.382Z" fill="#FF9A6C"/>
<path d="M188.452 145.857C188.305 145.488 188.231 145.151 188.171 144.824C188.111 144.5 188.073 144.187 188.032 143.901C187.99 143.613 187.947 143.35 187.872 143.163C187.836 143.064 187.789 142.975 187.682 142.887C187.578 142.794 187.418 142.736 187.228 142.661C187.369 142.518 187.554 142.424 187.783 142.399C188.011 142.373 188.273 142.465 188.463 142.621C188.849 142.947 188.982 143.378 189.039 143.756C189.092 144.142 189.058 144.513 188.967 144.865C188.868 145.217 188.721 145.558 188.452 145.857Z" fill="#FF9A6C"/>
<path d="M234.703 139.66C234.703 141.063 233.564 142.201 232.162 142.201C230.759 142.201 229.621 141.063 229.621 139.66C229.621 138.258 230.759 137.121 232.162 137.121C233.564 137.121 234.703 138.258 234.703 139.66Z" fill="#1B1A2E"/>
<path d="M237.402 136.752C237.022 136.468 236.623 136.216 236.205 136.005C235.996 135.896 235.785 135.798 235.571 135.702C235.352 135.621 235.14 135.523 234.916 135.455C234.033 135.169 233.109 134.994 232.181 135.028C231.951 135.009 231.721 135.058 231.49 135.071L231.145 135.103C231.029 135.118 230.918 135.15 230.803 135.171L230.123 135.312C229.903 135.389 229.681 135.459 229.457 135.53L229.124 135.634L228.804 135.779L228.162 136.069C227.742 136.276 227.345 136.532 226.923 136.752C227.3 136.47 227.682 136.182 228.083 135.924L228.715 135.585L229.03 135.416L229.365 135.284C229.589 135.197 229.813 135.109 230.04 135.028C230.272 134.964 230.507 134.913 230.741 134.855C230.859 134.83 230.976 134.796 231.096 134.779L231.456 134.742C231.697 134.725 231.936 134.672 232.177 134.689C233.146 134.661 234.114 134.858 235.006 135.212C235.898 135.566 236.73 136.08 237.402 136.752Z" fill="#1B1A2E"/>
<path d="M208.045 139.66C208.045 141.063 206.908 142.201 205.506 142.201C204.103 142.201 202.965 141.063 202.965 139.66C202.965 138.258 204.103 137.121 205.506 137.121C206.908 137.121 208.045 138.258 208.045 139.66Z" fill="#1B1A2E"/>
<path d="M210.746 136.752C210.366 136.468 209.967 136.216 209.547 136.005C209.34 135.896 209.127 135.798 208.915 135.702C208.696 135.621 208.482 135.523 208.26 135.455C207.375 135.169 206.451 134.994 205.525 135.028C205.293 135.009 205.065 135.058 204.834 135.071L204.489 135.103C204.373 135.118 204.26 135.15 204.147 135.171L203.465 135.312C203.245 135.389 203.023 135.459 202.801 135.53L202.466 135.634L202.148 135.779L201.506 136.069C201.084 136.276 200.689 136.532 200.265 136.752C200.644 136.47 201.026 136.182 201.425 135.924L202.057 135.585L202.375 135.416L202.709 135.284C202.931 135.197 203.157 135.109 203.384 135.028C203.614 134.964 203.851 134.913 204.085 134.855C204.203 134.83 204.318 134.796 204.437 134.779L204.798 134.742C205.039 134.725 205.278 134.672 205.521 134.689C206.49 134.661 207.458 134.858 208.35 135.212C209.242 135.566 210.074 136.08 210.746 136.752Z" fill="#1B1A2E"/>
<path d="M221.86 147.103C222.082 148.18 222.268 149.264 222.449 150.348C222.633 151.431 222.79 152.519 222.948 153.605C223.021 154.141 223.115 154.715 223.057 155.28C223.01 155.843 222.874 156.404 222.62 156.914C222.366 157.418 221.999 157.887 221.498 158.171C221.009 158.427 220.527 158.689 220.034 158.934C220.489 158.623 220.956 158.333 221.412 158.028C221.856 157.74 222.174 157.287 222.383 156.803C222.588 156.315 222.712 155.788 222.737 155.259C222.782 154.725 222.692 154.203 222.611 153.652C222.462 152.564 222.315 151.476 222.191 150.384C222.065 149.292 221.944 148.199 221.86 147.103Z" fill="#1B1A2E"/>
<path d="M222.37 165.106C221.83 166.363 220.87 167.316 219.637 167.963C219.337 168.129 219.002 168.248 218.665 168.368C218.315 168.46 217.965 168.558 217.596 168.588C216.864 168.673 216.094 168.632 215.366 168.432C213.901 168.042 212.674 167.116 211.889 166.002C211.492 165.445 211.187 164.846 210.987 164.214C210.795 163.577 210.671 162.919 210.746 162.23C211.11 162.457 211.452 162.678 211.78 162.881V162.885C211.872 162.943 211.962 163.001 212.049 163.058C212.096 163.088 212.141 163.116 212.186 163.146C212.728 163.491 213.229 163.807 213.726 164.082C214.624 164.583 215.435 164.94 216.235 165.151C216.636 165.264 217.043 165.324 217.476 165.369C217.694 165.398 217.918 165.396 218.153 165.415C218.383 165.403 218.628 165.428 218.878 165.405C219.283 165.396 219.704 165.362 220.152 165.317C220.267 165.304 220.384 165.294 220.508 165.279C220.561 165.272 220.612 165.27 220.666 165.264C221.193 165.208 221.756 165.151 222.37 165.106Z" fill="#E43F5A"/>
<path d="M220.152 165.317C220.066 165.375 219.979 165.428 219.889 165.479C218.744 166.141 217.193 166.363 215.78 165.979C214.36 165.603 213.18 164.686 212.463 163.6C212.365 163.451 212.273 163.301 212.186 163.146C212.728 163.491 213.229 163.807 213.726 164.082C214.624 164.583 215.435 164.94 216.235 165.151C216.636 165.264 217.043 165.324 217.476 165.369C217.694 165.398 217.918 165.396 218.153 165.415C218.383 165.403 218.628 165.428 218.878 165.405C219.283 165.396 219.704 165.362 220.152 165.317Z" fill="white"/>
<path d="M237.402 129.799C236.233 129.731 235.345 129.657 234.502 129.631C233.673 129.603 232.941 129.573 232.205 129.601C232.113 129.595 232.019 129.595 231.928 129.607L231.65 129.62C231.556 129.62 231.465 129.622 231.369 129.618C231.275 129.618 231.181 129.637 231.085 129.642C230.895 129.657 230.699 129.654 230.498 129.659C230.3 129.682 230.095 129.697 229.882 129.703C229.777 129.71 229.666 129.706 229.557 129.708C229.449 129.721 229.342 129.735 229.229 129.742C229.005 129.761 228.77 129.77 228.525 129.774C228.038 129.799 227.537 129.851 226.923 129.799C227.014 129.522 227.13 129.26 227.266 129.017C227.403 128.773 227.546 128.524 227.721 128.315C227.9 128.11 228.09 127.909 228.29 127.719C228.388 127.619 228.495 127.532 228.6 127.44C228.71 127.359 228.824 127.278 228.941 127.205C229.173 127.054 229.417 126.913 229.664 126.779C229.922 126.666 230.189 126.57 230.46 126.482C230.596 126.437 230.731 126.39 230.872 126.358L231.296 126.288C231.582 126.254 231.866 126.194 232.156 126.209C233.314 126.179 234.475 126.518 235.42 127.133C235.541 127.201 235.65 127.297 235.763 127.38C235.874 127.468 235.983 127.553 236.088 127.647C236.294 127.839 236.486 128.044 236.659 128.263C236.998 128.709 237.289 129.209 237.402 129.799Z" fill="#1B1A2E"/>
<path d="M210.746 129.799C209.577 129.731 208.689 129.657 207.847 129.631C207.015 129.603 206.283 129.573 205.547 129.601C205.455 129.595 205.363 129.595 205.272 129.607L204.994 129.62C204.9 129.62 204.807 129.622 204.713 129.618C204.619 129.618 204.525 129.637 204.429 129.642C204.237 129.657 204.041 129.654 203.84 129.659C203.642 129.682 203.439 129.697 203.226 129.703C203.121 129.71 203.01 129.706 202.899 129.708C202.793 129.721 202.686 129.735 202.571 129.742C202.349 129.761 202.114 129.77 201.869 129.774C201.382 129.799 200.881 129.851 200.265 129.799C200.356 129.522 200.474 129.26 200.61 129.017C200.747 128.773 200.888 128.524 201.065 128.315C201.244 128.11 201.432 127.909 201.634 127.719C201.732 127.619 201.837 127.532 201.941 127.44C202.052 127.359 202.168 127.278 202.285 127.205C202.517 127.054 202.761 126.913 203.008 126.779C203.264 126.666 203.533 126.57 203.804 126.482C203.938 126.437 204.075 126.39 204.213 126.358L204.638 126.288C204.924 126.254 205.208 126.194 205.5 126.209C206.658 126.179 207.819 126.518 208.764 127.133C208.885 127.201 208.994 127.297 209.105 127.38C209.216 127.468 209.327 127.553 209.432 127.647C209.636 127.839 209.828 128.044 210.003 128.263C210.343 128.709 210.631 129.209 210.746 129.799Z" fill="#1B1A2E"/>
<path d="M244.779 157.691H246.246C249.146 157.691 251.497 155.34 251.497 152.441V143.069C251.497 140.17 249.146 137.821 246.246 137.821H244.779C241.88 137.821 239.531 140.17 239.531 143.069V152.441C239.531 155.34 241.88 157.691 244.779 157.691Z" fill="#FFC89F"/>
<path d="M246.886 143.382C247.183 143.363 247.49 143.44 247.768 143.587C248.045 143.734 248.282 143.95 248.489 144.187C248.892 144.671 249.15 145.253 249.316 145.846C249.643 147.037 249.634 148.308 249.269 149.514C249.08 150.111 248.792 150.706 248.337 151.197C248.102 151.44 247.885 151.664 247.469 151.835C247.362 151.871 247.234 151.905 247.087 151.894C246.94 151.888 246.78 151.83 246.667 151.745C246.434 151.568 246.357 151.37 246.291 151.199C246.178 150.855 246.155 150.548 246.15 150.239C246.148 149.934 246.161 149.637 246.195 149.341C246.264 148.752 246.368 148.174 246.537 147.611C246.577 148.195 246.609 148.775 246.671 149.343C246.703 149.627 246.733 149.908 246.786 150.177C246.842 150.444 246.904 150.715 247.002 150.911C247.049 151.005 247.115 151.073 247.125 151.062L247.113 151.043C247.108 151.039 247.125 151.035 247.151 151.022C247.271 150.962 247.477 150.766 247.622 150.576C247.928 150.192 248.145 149.716 248.299 149.213C248.6 148.202 248.668 147.088 248.527 146.015C248.446 145.482 248.318 144.946 248.066 144.475C247.829 143.997 247.45 143.577 246.886 143.382Z" fill="#FF9A6C"/>
<path d="M245.862 145.857C245.594 145.558 245.446 145.217 245.348 144.865C245.257 144.513 245.222 144.142 245.276 143.756C245.333 143.378 245.466 142.947 245.852 142.621C246.042 142.465 246.304 142.373 246.532 142.399C246.761 142.424 246.946 142.518 247.087 142.661C246.897 142.736 246.737 142.794 246.633 142.887C246.526 142.975 246.479 143.064 246.443 143.163C246.368 143.35 246.325 143.613 246.283 143.901C246.24 144.187 246.204 144.5 246.144 144.824C246.084 145.151 246.01 145.488 245.862 145.857Z" fill="#FF9A6C"/>
<path d="M241.98 138.706C241.468 138.48 240.984 138.218 240.538 137.91C240.094 137.601 239.693 137.245 239.328 136.859C237.884 135.282 237.188 133.134 236.638 130.949C236.092 128.752 235.642 126.476 235.168 124.195C234.933 123.054 234.699 121.91 234.421 120.771C234.153 119.634 233.831 118.503 233.511 117.377L232.527 114.009L232.019 112.323C231.823 111.769 231.659 111.205 231.456 110.653C231.352 110.378 231.26 110.098 231.162 109.821C231.066 109.541 230.942 109.273 230.84 108.995C230.641 108.436 230.381 107.905 230.153 107.353C229.647 106.275 229.065 105.217 228.359 104.238C227.915 103.621 227.413 103.045 226.872 102.508C231.601 105.861 236.045 111.777 236.203 122.107C236.388 134.149 241.269 138.09 243.789 139.323C243.164 139.156 242.556 138.958 241.98 138.706ZM193.668 232.355C192.969 232.368 192.273 232.349 191.588 232.272C190.82 232.191 190.055 232.059 189.325 231.798C187.851 231.31 186.562 230.209 185.784 228.805C185.387 228.108 185.127 227.34 184.969 226.561C184.815 225.78 184.755 224.991 184.732 224.206C184.721 223.801 184.713 223.395 184.711 222.99C185.118 227.577 187.296 231.935 193.668 232.355ZM215.283 189.548C216.67 190.64 217.726 192.155 218.272 193.821C218.827 195.493 218.88 197.247 218.795 198.947C218.703 200.662 218.287 202.346 217.796 204.01C217.321 205.603 216.753 207.188 216.115 208.763C217.732 203.551 218.876 195.321 213.594 188.321C213.803 188.464 214.012 188.609 214.225 188.75C214.577 189.012 214.944 189.268 215.283 189.548ZM166.567 153.277C166.191 152.722 165.835 152.155 165.53 151.559C165.363 151.269 165.216 150.971 165.073 150.666C164.922 150.369 164.8 150.055 164.67 149.746C164.175 148.502 163.77 147.22 163.445 145.904C162.05 140.658 162.325 134.811 164.032 129.588C164.896 126.973 166.097 124.517 167.52 122.186C168.949 119.852 170.641 117.659 172.243 115.378C172.469 115.06 172.689 114.738 172.913 114.418C170.285 119.982 168.149 125.488 166.319 130.045C159.627 146.721 170.18 156.639 172.258 158.382C169.937 157.166 168.015 155.357 166.567 153.277ZM255.787 111.801C241.76 77.168 215.989 87.1477 215.989 87.1477C199.687 81.9424 188.585 89.7162 180.659 100.85L180.657 100.852C179.81 101.972 179.023 103.12 178.21 104.253C177.376 105.371 176.595 106.518 175.755 107.628C174.123 109.874 172.427 112.071 170.773 114.32C169.948 115.442 169.135 116.588 168.356 117.759L167.209 119.538L166.133 121.377C165.803 122.006 165.479 122.642 165.156 123.278C164.86 123.926 164.587 124.588 164.316 125.247C164.06 125.913 163.864 126.602 163.646 127.278C163.531 127.613 163.458 127.963 163.377 128.308L163.136 129.345C162.951 130.028 162.882 130.736 162.754 131.429L162.579 132.47C162.532 132.818 162.498 133.168 162.456 133.518C162.392 134.218 162.261 134.909 162.21 135.609C162.163 136.306 162.097 137.004 162.029 137.701C161.88 139.097 161.801 140.505 161.775 141.923C161.743 143.342 161.831 144.773 162.063 146.19C162.302 147.606 162.694 149.008 163.288 150.333C163.437 150.663 163.58 150.996 163.753 151.316C163.917 151.641 164.085 151.961 164.275 152.272C164.64 152.899 165.071 153.488 165.513 154.062C165.969 154.627 166.458 155.167 166.991 155.655C167.518 156.153 168.081 156.607 168.681 157.008C169.86 157.797 171.145 158.435 172.527 158.73C172.002 159.203 168.802 162.224 164.809 168.737C160.437 175.865 168.137 179.286 168.137 179.286C164.145 172.349 171.938 160.846 171.938 160.846C161.103 183.85 180.049 186.301 180.049 186.301C172.19 193.098 173.182 201.027 173.182 201.027C164.499 218.39 183.78 214.971 185.417 214.653C184.962 215.342 184.606 216.082 184.303 216.844C183.983 217.625 183.744 218.437 183.556 219.265C183.373 220.093 183.247 220.938 183.204 221.793C183.155 222.649 183.196 223.515 183.36 224.364C183.689 226.07 184.448 227.651 185.333 229.074C185.781 229.787 186.285 230.469 186.878 231.086C187.469 231.702 188.152 232.251 188.909 232.688C189.668 233.127 190.498 233.447 191.349 233.648C192.201 233.849 193.065 233.936 193.92 233.97C195.631 234.032 197.314 233.91 198.951 233.665C202.067 233.194 205.033 232.49 208.154 232.306C205.845 243.259 195.367 242.523 190.81 249.27C186.253 256.02 192.745 261.582 192.745 261.582C192.085 259.363 192.864 256.786 192.864 256.786C192.265 261.403 195.381 262.542 195.381 262.542C195.023 260.204 195.561 258.284 195.561 258.284C196.76 266.079 201.557 265.42 201.557 265.42C199.938 263.201 200.177 258.284 200.177 258.284C201.796 270.335 210.791 268.176 210.791 268.176C209.89 267.577 209.231 266.678 209.231 266.678C216.066 269.795 217.237 261.836 217.237 261.836C212.713 264.842 210.859 263.05 210.138 260.509C209.336 257.682 210.097 254.655 211.949 252.374C217.453 245.597 216.181 239.372 216.181 239.372C226.752 225.234 214.464 214.928 214.464 214.928C219.748 217.108 221.995 226.094 221.995 226.094C225.329 219.929 215.057 214.514 214.063 214.009C215.283 212.652 216.341 211.161 217.272 209.582C218.195 207.999 219 206.32 219.541 204.534C219.817 203.643 220.015 202.725 220.145 201.793C220.284 200.863 220.337 199.918 220.324 198.975C220.301 197.081 219.772 195.201 218.933 193.548C218.104 191.879 217.013 190.407 215.812 189.002C214.581 187.621 213.229 186.38 211.774 185.292C210.308 184.214 208.775 183.25 207.209 182.343C205.807 181.548 204.378 180.799 202.887 180.155C192.738 173.765 190.677 164.285 190.816 157.217C190.904 152.833 192.173 148.573 194.272 144.72C198.127 137.648 197.89 130.147 197.89 130.147C200.173 127.762 202.951 123.199 206.392 109.932C209.165 99.2395 214.596 98.1792 215.889 98.2731C215.908 98.2752 215.932 98.2773 215.953 98.2794C218.202 98.7424 220.307 99.6085 222.204 100.756C222.682 101.051 223.145 101.362 223.593 101.695C224.045 102.021 224.48 102.371 224.898 102.74C225.724 103.487 226.522 104.268 227.256 105.117C227.996 105.962 228.696 106.855 229.336 107.805C229.954 108.765 230.509 109.78 230.944 110.847C231.064 111.111 231.157 111.382 231.251 111.655C231.345 111.929 231.443 112.199 231.527 112.477C231.674 113.036 231.849 113.584 231.968 114.151C232.231 115.282 232.427 116.43 232.602 117.578C232.779 118.725 232.92 119.877 233.084 121.027L233.589 124.475C233.76 125.627 233.935 126.781 234.136 127.939C234.33 129.098 234.573 130.256 234.884 131.41C235.207 132.562 235.595 133.718 236.156 134.821C236.435 135.374 236.751 135.914 237.122 136.423C237.498 136.929 237.924 137.403 238.402 137.821C239.36 138.657 240.516 139.233 241.698 139.527C242.852 139.824 244.026 139.899 245.173 139.837C245.231 139.85 245.263 139.856 245.263 139.856C253.639 155.628 257.873 172.861 254.852 179.15C252.177 184.718 243.567 186.727 243.567 186.727C246.394 190.926 251.644 185.797 251.644 185.797C250.351 188.827 245.901 190.201 245.901 190.201C261.57 193.356 269.813 146.431 255.787 111.801Z" fill="#1B1A2E"/>
<path d="M245.263 139.856C246.411 141.855 247.458 143.911 248.463 145.989C249.449 148.078 250.366 150.196 251.217 152.345C252.913 156.643 254.289 161.072 255.249 165.605C255.691 167.879 256.021 170.183 256.111 172.511C256.147 173.674 256.124 174.843 255.979 176.007C255.829 177.166 255.58 178.348 255.008 179.404L254.56 180.172C254.406 180.426 254.208 180.647 254.035 180.886L253.764 181.236L253.461 181.554C253.254 181.763 253.067 181.991 252.843 182.181C251.985 182.981 251.019 183.643 250.02 184.236C249.013 184.818 247.953 185.292 246.876 185.712C245.796 186.128 244.693 186.482 243.567 186.727C245.773 186.068 247.91 185.166 249.85 183.95C250.81 183.338 251.74 182.668 252.548 181.87C252.76 181.682 252.932 181.456 253.126 181.251L253.41 180.938L253.658 180.596C253.816 180.364 254.001 180.148 254.138 179.905L254.541 179.169C254.616 179.05 254.66 178.919 254.714 178.789C254.765 178.661 254.82 178.535 254.867 178.403C254.944 178.134 255.044 177.874 255.1 177.599C255.234 177.055 255.337 176.5 255.396 175.937C255.526 174.815 255.539 173.674 255.494 172.534C255.388 170.254 255.04 167.984 254.584 165.74C254.133 163.493 253.568 161.266 252.917 159.065C252.267 156.863 251.512 154.691 250.733 152.53C249.944 150.369 249.084 148.236 248.162 146.126C247.262 144.007 246.276 141.927 245.263 139.856Z" fill="#1F4068"/>
<path d="M197.929 130.333C197.976 134.446 197.188 138.608 195.576 142.418C194.765 144.321 193.764 146.13 192.743 147.911C191.721 149.697 190.667 151.461 189.611 153.223C187.524 156.754 185.218 160.185 183.849 163.999C183.16 165.895 182.746 167.886 182.703 169.906C182.648 171.929 183.01 173.955 183.601 175.92L183.537 175.941C182.733 174.049 182.227 171.999 182.17 169.91C182.099 167.82 182.485 165.725 183.168 163.756C183.849 161.778 184.856 159.95 185.912 158.181C186.972 156.411 188.139 154.717 189.297 153.023C190.451 151.327 191.576 149.61 192.551 147.805C193.528 146.002 194.343 144.118 195.051 142.209C195.765 140.302 196.41 138.367 196.862 136.379C197.321 134.393 197.636 132.374 197.86 130.331L197.929 130.333Z" fill="#1F4068"/>
<path d="M202.631 122.028C201.242 125.962 199.066 129.629 196.371 132.825C195.01 134.416 193.521 135.879 192.036 137.341L187.593 141.727L183.181 146.128C181.726 147.606 180.322 149.13 178.978 150.7C176.277 153.827 173.914 157.238 171.94 160.903L171.879 160.876C173.468 157.019 175.736 153.435 178.428 150.233C179.774 148.628 181.235 147.129 182.731 145.676C184.224 144.219 185.777 142.832 187.339 141.456C188.894 140.076 190.436 138.681 191.881 137.187C193.327 135.694 194.663 134.1 195.934 132.468C197.21 130.841 198.432 129.174 199.539 127.429C200.647 125.684 201.649 123.871 202.569 122.002L202.631 122.028Z" fill="#1F4068"/>
<path d="M174.383 128.714C173.914 130.631 173.613 132.571 173.487 134.514C173.391 136.46 173.47 138.412 173.788 140.327C174.087 142.245 174.605 144.129 175.298 145.951C175.648 146.86 176.034 147.758 176.478 148.63C176.907 149.511 177.395 150.363 177.941 151.184C176.636 149.699 175.612 147.969 174.808 146.151C174.4 145.245 174.067 144.304 173.777 143.35C173.498 142.395 173.282 141.418 173.118 140.434C172.804 138.463 172.753 136.451 172.962 134.471C173.178 132.492 173.662 130.55 174.383 128.714Z" fill="#1F4068"/>
<path d="M173.182 201.027C173.323 201.497 173.404 201.968 173.538 202.425C173.688 202.879 173.79 203.342 173.971 203.779L174.217 204.441L174.507 205.081C174.594 205.296 174.705 205.503 174.816 205.708C174.929 205.913 175.023 206.128 175.157 206.32L175.52 206.919L175.925 207.489C176.201 207.869 176.501 208.227 176.813 208.579C177.44 209.279 178.133 209.93 178.912 210.506C177.995 210.177 177.165 209.614 176.437 208.955C175.71 208.291 175.07 207.521 174.573 206.666C174.093 205.804 173.675 204.895 173.466 203.931C173.323 203.461 173.287 202.966 173.214 202.484C173.167 202 173.173 201.509 173.182 201.027Z" fill="#1F4068"/>
<path d="M188.536 215.06C189.075 216.722 189.818 218.288 190.776 219.713C191.729 221.138 192.866 222.435 194.121 223.604C195.371 224.782 196.738 225.836 198.17 226.8C199.606 227.76 201.101 228.641 202.663 229.42C200.992 228.903 199.401 228.138 197.888 227.248C197.129 226.804 196.399 226.311 195.689 225.793C194.983 225.264 194.306 224.697 193.658 224.099C192.376 222.887 191.219 221.522 190.328 219.993C189.425 218.474 188.8 216.788 188.536 215.06Z" fill="#1F4068"/>
<path d="M195.36 115.299C193.53 117.33 191.851 119.478 190.353 121.74C190.163 122.019 189.978 122.303 189.807 122.595L189.272 123.459C188.939 124.05 188.587 124.628 188.282 125.234C187.633 126.422 187.074 127.655 186.556 128.903C186.031 130.149 185.6 131.434 185.216 132.731C184.83 134.028 184.529 135.348 184.286 136.679C184.053 138.015 183.887 139.361 183.806 140.718C183.714 142.073 183.714 143.436 183.846 144.795C183.328 142.107 183.394 139.318 183.763 136.598C184.143 133.872 184.89 131.199 185.929 128.647C186.987 126.105 188.312 123.673 189.918 121.441C191.507 119.201 193.344 117.145 195.36 115.299Z" fill="#1F4068"/>
<path d="M214.099 94.9898C212.693 94.8469 211.294 94.8363 209.935 95.0581C208.576 95.2821 207.262 95.7131 206.046 96.3488C205.432 96.6517 204.847 97.0165 204.286 97.4133C203.716 97.8016 203.183 98.2432 202.66 98.6976C201.63 99.6234 200.676 100.65 199.832 101.78C200.437 100.498 201.301 99.3419 202.296 98.3157C203.294 97.2896 204.452 96.4064 205.737 95.7451C206.383 95.4251 207.051 95.1413 207.746 94.9386C208.442 94.7466 209.15 94.5888 209.869 94.5333C211.302 94.4032 212.751 94.5717 214.099 94.9898Z" fill="#1F4068"/>
<path d="M241.4 111.03C240.935 109.341 240.318 107.713 239.497 106.203C238.656 104.703 237.619 103.32 236.386 102.132C235.157 100.942 233.756 99.9285 232.248 99.0944C230.733 98.273 229.124 97.5968 227.435 97.1381C229.184 97.3194 230.889 97.8677 232.489 98.625C234.091 99.3845 235.569 100.413 236.858 101.646C237.493 102.271 238.076 102.949 238.603 103.668C239.125 104.391 239.573 105.164 239.966 105.959C240.723 107.566 241.212 109.29 241.4 111.03Z" fill="#1F4068"/>
<path d="M252.405 136.697C251.134 137.085 249.739 137.187 248.399 136.912C247.051 136.665 245.79 136.054 244.674 135.278C243.569 134.478 242.599 133.514 241.79 132.438C240.979 131.363 240.292 130.196 239.825 128.946C240.542 130.066 241.336 131.12 242.2 132.101C243.066 133.081 244.015 133.977 245.067 134.725C246.116 135.47 247.275 136.063 248.519 136.398C249.762 136.752 251.079 136.81 252.405 136.697Z" fill="#1F4068"/>
<path d="M252.405 136.697C252.292 136.859 252.173 137.021 252.049 137.179L251.859 137.418C251.793 137.49 251.721 137.561 251.65 137.633L251.211 138.055C251.055 138.183 250.889 138.301 250.729 138.425C250.569 138.553 250.398 138.661 250.219 138.759C250.042 138.86 249.871 138.975 249.688 139.062C249.504 139.152 249.319 139.231 249.133 139.316C248.945 139.397 248.753 139.459 248.561 139.532C247.791 139.788 246.991 139.956 246.187 140.01C245.383 140.065 244.57 140.033 243.789 139.839C244.585 139.751 245.355 139.634 246.116 139.485C246.876 139.329 247.62 139.141 248.344 138.89C249.075 138.659 249.769 138.337 250.447 137.979C251.138 137.629 251.748 137.159 252.405 136.697Z" fill="#1F4068"/>
<path d="M193.118 147.007C192.077 150.38 191.266 153.81 190.701 157.277C190.622 157.71 190.569 158.145 190.511 158.58L190.334 159.884C190.247 160.758 190.134 161.629 190.084 162.503C189.935 164.253 189.884 166.006 189.897 167.76C189.895 169.514 189.997 171.267 190.163 173.012C190.319 174.757 190.571 176.496 190.887 178.222C191.211 179.948 191.61 181.659 192.096 183.348C192.576 185.04 193.148 186.708 193.863 188.321C192.203 185.198 191.125 181.785 190.368 178.326C189.621 174.86 189.246 171.312 189.218 167.764C189.203 164.219 189.513 160.667 190.18 157.187C190.84 153.706 191.83 150.292 193.118 147.007Z" fill="#1F4068"/>
<path d="M208.154 232.306C209.446 232.11 210.805 232.176 212.092 232.607C212.73 232.833 213.336 233.166 213.882 233.584C214.426 234.002 214.876 234.538 215.251 235.107C215.985 236.266 216.361 237.599 216.486 238.922C216.608 240.246 216.523 241.584 216.194 242.853C216.243 241.548 216.173 240.251 215.962 238.992C215.738 237.74 215.354 236.515 214.68 235.472C214.031 234.412 213.041 233.612 211.9 233.098C210.741 232.609 209.459 232.391 208.154 232.306Z" fill="#1F4068"/>
<path d="M190.114 193.599C188.614 195.557 187.211 197.593 186.17 199.803C185.647 200.906 185.227 202.051 184.937 203.225C184.806 203.813 184.691 204.406 184.632 205.006C184.578 205.605 184.55 206.207 184.58 206.809C184.674 209.215 185.645 211.579 187.2 213.473C187.97 214.429 188.875 215.271 189.833 216.039C190.79 216.81 191.825 217.479 192.888 218.098C195.019 219.323 197.267 220.325 199.546 221.245C200.683 221.706 201.845 222.124 202.995 222.61C204.149 223.082 205.263 223.641 206.362 224.231C208.546 225.435 210.605 226.892 212.384 228.65C213.28 229.522 214.08 230.493 214.778 231.527C215.125 232.044 215.437 232.588 215.708 233.149C215.977 233.712 216.213 234.29 216.35 234.902L216.284 234.917C215.887 233.755 215.219 232.705 214.494 231.728C213.762 230.749 212.913 229.863 212.017 229.036C210.217 227.385 208.162 226.03 206.014 224.869C204.941 224.283 203.84 223.747 202.718 223.254C201.602 222.757 200.448 222.316 199.305 221.829C197.022 220.861 194.786 219.754 192.7 218.405C191.65 217.74 190.65 217.002 189.685 216.221C189.208 215.826 188.745 215.41 188.301 214.975C187.855 214.544 187.426 214.092 187.029 213.614C186.223 212.669 185.513 211.628 184.988 210.486C184.454 209.349 184.124 208.108 184.013 206.845C183.913 205.58 184.047 204.304 184.354 203.082C184.668 201.859 185.126 200.684 185.698 199.572C186.854 197.351 188.371 195.357 190.063 193.554L190.114 193.599Z" fill="#1F4068"/>
<path d="M202.268 216.507C202.671 216.66 203.074 216.82 203.475 216.985L204.079 217.232C204.284 217.309 204.478 217.405 204.67 217.507C205.432 217.921 206.227 218.292 206.938 218.8C208.429 219.715 209.745 220.889 210.968 222.137C212.181 223.399 213.212 224.833 214.072 226.352C214.923 227.873 215.61 229.501 215.942 231.207C215.339 229.584 214.534 228.063 213.617 226.625C213.156 225.906 212.664 225.209 212.141 224.537L211.339 223.542L210.475 222.604C210.2 222.277 209.877 221.998 209.574 221.697C209.267 221.403 208.971 221.098 208.636 220.831L207.663 220.001C207.33 219.737 206.978 219.493 206.639 219.233C205.969 218.7 205.225 218.275 204.51 217.799C204.158 217.546 203.765 217.371 203.394 217.151C203.019 216.942 202.643 216.726 202.268 216.507Z" fill="#1F4068"/>
<path d="M201.476 245.65C200.576 246.486 199.682 247.289 198.978 248.259C198.592 248.714 198.296 249.234 197.965 249.725C197.69 250.25 197.376 250.755 197.159 251.31C196.668 252.389 196.303 253.529 196.041 254.698C195.787 255.869 195.618 257.063 195.561 258.284C195.337 257.078 195.356 255.828 195.518 254.604C195.682 253.377 196.036 252.172 196.54 251.033C196.781 250.459 197.109 249.925 197.421 249.386L197.973 248.63C198.067 248.509 198.148 248.374 198.257 248.261L198.575 247.92C199.386 246.975 200.418 246.252 201.476 245.65Z" fill="#1F4068"/>
<path d="M199.736 247.045C198.897 247.651 198.121 248.283 197.438 249.017C196.768 249.759 196.147 250.54 195.605 251.382C195.059 252.221 194.575 253.102 194.121 254.002C193.673 254.909 193.255 255.833 192.864 256.786C192.981 255.76 193.269 254.757 193.634 253.791C194.001 252.82 194.479 251.892 195.038 251.011C195.612 250.141 196.292 249.334 197.071 248.637C197.856 247.943 198.769 247.399 199.736 247.045Z" fill="#1F4068"/>
<path d="M210.381 232.703C211.106 233.106 211.763 233.654 212.292 234.318C212.817 234.988 213.201 235.775 213.415 236.607C213.854 238.277 213.645 240.048 213.122 241.654C212.583 243.265 211.734 244.754 210.667 246.053C209.6 247.348 208.312 248.477 206.833 249.238C208.156 248.238 209.291 247.043 210.247 245.729C211.194 244.411 211.979 242.971 212.478 241.443C212.984 239.922 213.203 238.29 212.9 236.724C212.745 235.948 212.459 235.188 212.024 234.51C211.593 233.827 211.023 233.23 210.381 232.703Z" fill="#1F4068"/>
<path d="M191.996 172.4C192.672 174.179 193.624 175.818 194.718 177.349C195.812 178.883 197.058 180.306 198.317 181.721C199.569 183.143 200.849 184.556 202.163 185.934C203.477 187.31 204.828 188.654 206.114 190.066C207.405 191.474 208.61 192.978 209.624 194.619C210.639 196.253 211.486 198.011 212.038 199.869C212.589 201.725 212.853 203.666 212.826 205.59C212.8 207.519 212.516 209.426 212.036 211.274L211.97 211.259C212.228 209.371 212.38 207.481 212.292 205.601C212.211 203.724 211.908 201.861 211.345 200.078C210.797 198.29 210.029 196.569 209.077 194.947C208.122 193.328 207.014 191.79 205.833 190.309C204.644 188.829 203.358 187.425 202.008 186.087C200.657 184.746 199.238 183.474 197.903 182.107C196.576 180.733 195.339 179.254 194.283 177.646C193.229 176.042 192.376 174.282 191.93 172.419L191.996 172.4Z" fill="#1F4068"/>
<path d="M245.737 122.228C246.293 122.945 246.848 123.666 247.394 124.394C247.94 125.121 248.512 125.831 249.001 126.599L250.509 128.878L250.884 129.447L251.226 130.038L251.911 131.222L252.593 132.406L252.935 132.999C253.041 133.2 253.141 133.405 253.244 133.607L254.477 136.048C254.577 136.253 254.686 136.453 254.782 136.66L255.057 137.287L255.605 138.54L256.156 139.792C256.344 140.208 256.491 140.639 256.661 141.063C258.014 144.449 259.081 147.948 259.902 151.5C260.32 153.273 260.642 155.067 260.92 156.867C261.15 158.672 261.37 160.483 261.402 162.301C261.028 158.687 260.286 155.131 259.388 151.623C258.933 149.872 258.419 148.138 257.869 146.414L256.996 143.845C256.691 142.994 256.35 142.156 256.03 141.311C254.697 137.951 253.203 134.646 251.45 131.481L250.803 130.286L250.481 129.686L250.129 129.106L248.725 126.781C248.28 125.987 247.753 125.251 247.249 124.496C246.739 123.745 246.236 122.99 245.737 122.228Z" fill="#1F4068"/>
<path d="M323.044 368.549H98.3954V367.909H323.044V368.549Z" fill="#1B1A2E"/>
<path d="M303.399 115.888C297.645 109.296 287.637 108.615 281.045 114.369C276.083 118.7 274.47 125.441 276.431 131.323L271.123 136.15L279.526 136.722C285.28 143.314 295.288 143.995 301.88 138.241C308.472 132.487 309.152 122.48 303.399 115.888Z" fill="white"/>
<path d="M271.123 136.15C271.548 135.728 271.977 135.312 272.412 134.902C272.847 134.491 273.286 134.087 273.728 133.684C274.172 133.281 274.616 132.882 275.066 132.487C275.514 132.093 275.97 131.705 276.431 131.323C276.006 131.745 275.578 132.161 275.14 132.571C274.707 132.982 274.266 133.386 273.826 133.789C273.382 134.192 272.939 134.591 272.489 134.986C272.038 135.38 271.584 135.771 271.123 136.15Z" fill="#1B1A2E"/>
<path d="M279.526 136.722C278.825 136.703 278.123 136.673 277.421 136.635C276.721 136.598 276.019 136.556 275.32 136.509C274.62 136.46 273.92 136.409 273.22 136.349C272.521 136.293 271.821 136.227 271.123 136.15C271.825 136.172 272.527 136.199 273.229 136.238C273.929 136.274 274.628 136.319 275.33 136.366C276.03 136.415 276.73 136.464 277.429 136.524C278.129 136.581 278.827 136.647 279.526 136.722Z" fill="#1B1A2E"/>
<path d="M276.431 131.323C276.124 130.401 275.896 129.452 275.757 128.49C275.622 127.525 275.569 126.55 275.612 125.578C275.693 123.632 276.13 121.701 276.907 119.911C277.683 118.122 278.799 116.483 280.171 115.094C281.551 113.716 283.168 112.564 284.954 111.768C285.843 111.367 286.771 111.047 287.721 110.817C288.67 110.589 289.643 110.448 290.618 110.395C292.57 110.29 294.541 110.546 296.401 111.148C298.264 111.745 300.009 112.701 301.525 113.936C302.283 114.555 302.982 115.242 303.618 115.986C304.252 116.731 304.824 117.531 305.308 118.38C306.278 120.08 306.931 121.959 307.221 123.892C307.516 125.827 307.45 127.813 307.032 129.723C306.618 131.634 305.837 133.464 304.755 135.092C303.676 136.722 302.291 138.147 300.7 139.278C299.104 140.406 297.301 141.241 295.409 141.718C293.519 142.196 291.539 142.324 289.602 142.092C287.667 141.855 285.777 141.258 284.06 140.342C282.342 139.427 280.8 138.19 279.526 136.722C280.813 138.177 282.364 139.399 284.085 140.295C285.805 141.194 287.689 141.77 289.615 141.987C291.539 142.205 293.504 142.07 295.377 141.586C297.25 141.104 299.032 140.268 300.604 139.143C301.391 138.582 302.121 137.942 302.79 137.247C303.46 136.551 304.068 135.796 304.602 134.99C305.666 133.379 306.434 131.57 306.842 129.682C307.251 127.794 307.311 125.831 307.019 123.924C306.729 122.015 306.08 120.163 305.12 118.488C304.644 117.648 304.081 116.859 303.456 116.123C302.831 115.387 302.142 114.708 301.395 114.096C299.902 112.874 298.178 111.928 296.339 111.335C294.505 110.738 292.557 110.48 290.628 110.58C288.698 110.68 286.788 111.135 285.02 111.92C283.249 112.699 281.643 113.831 280.269 115.19C278.899 116.56 277.786 118.181 277.003 119.954C276.216 121.725 275.763 123.643 275.663 125.58C275.614 126.548 275.659 127.523 275.782 128.485C275.913 129.447 276.13 130.397 276.431 131.323Z" fill="#1B1A2E"/>
<path d="M289.747 130.544L285.965 126.759L287.121 125.603L289.747 128.229L295.733 122.243L296.89 123.399L289.747 130.544Z" fill="#FF91A4"/>
<path d="M130.062 117.535C135.992 113.797 143.829 115.574 147.567 121.505C150.381 125.968 150.069 131.513 147.214 135.577L150.177 140.502L143.597 139.009C137.667 142.747 129.829 140.97 126.092 135.039C122.354 129.11 124.131 121.273 130.062 117.535Z" fill="white"/>
<path d="M150.177 140.502C149.949 140.08 149.715 139.662 149.475 139.248C149.236 138.832 148.991 138.42 148.745 138.009C148.497 137.599 148.248 137.189 147.993 136.784C147.739 136.379 147.48 135.975 147.214 135.577C147.441 135.999 147.676 136.417 147.916 136.831C148.155 137.245 148.4 137.659 148.646 138.068C148.894 138.478 149.143 138.887 149.398 139.293C149.651 139.7 149.911 140.103 150.177 140.502Z" fill="#1B1A2E"/>
<path d="M143.597 139.009C144.141 139.156 144.685 139.295 145.232 139.427C145.778 139.559 146.326 139.687 146.874 139.811C147.423 139.935 147.972 140.057 148.522 140.172C149.072 140.289 149.624 140.4 150.177 140.502C149.634 140.355 149.089 140.217 148.542 140.084C147.996 139.952 147.448 139.824 146.9 139.7C146.351 139.577 145.802 139.455 145.252 139.34C144.702 139.222 144.15 139.111 143.597 139.009Z" fill="#1B1A2E"/>
<path d="M147.214 135.577C147.661 134.939 148.054 134.262 148.382 133.556C148.705 132.848 148.97 132.112 149.162 131.355C149.546 129.844 149.654 128.261 149.469 126.71C149.285 125.157 148.805 123.643 148.07 122.262C147.329 120.889 146.352 119.632 145.165 118.61C144.574 118.098 143.934 117.642 143.259 117.245C142.583 116.85 141.87 116.519 141.133 116.255C139.659 115.726 138.088 115.47 136.521 115.504C134.955 115.536 133.395 115.867 131.948 116.468C131.225 116.767 130.529 117.136 129.871 117.561C129.213 117.985 128.591 118.467 128.024 119.009C126.889 120.091 125.956 121.383 125.288 122.8C124.618 124.217 124.212 125.757 124.094 127.318C123.973 128.88 124.152 130.465 124.607 131.963C125.063 133.46 125.798 134.873 126.76 136.108C127.725 137.339 128.916 138.393 130.259 139.195C131.601 139.997 133.09 140.549 134.63 140.816C136.17 141.078 137.757 141.055 139.285 140.746C140.814 140.438 142.282 139.843 143.597 139.009C142.274 139.83 140.804 140.413 139.277 140.705C137.751 140.999 136.172 141.008 134.645 140.733C133.117 140.458 131.641 139.903 130.315 139.101C128.987 138.301 127.813 137.251 126.864 136.027C126.389 135.414 125.976 134.755 125.621 134.068C125.267 133.379 124.974 132.66 124.75 131.92C124.303 130.437 124.129 128.874 124.251 127.331C124.37 125.787 124.774 124.268 125.437 122.87C126.099 121.473 127.021 120.199 128.143 119.135C128.702 118.599 129.314 118.122 129.963 117.701C130.612 117.281 131.298 116.918 132.012 116.62C133.439 116.025 134.978 115.694 136.525 115.662C138.072 115.626 139.625 115.875 141.083 116.396C142.54 116.916 143.902 117.703 145.079 118.71C146.258 119.717 147.232 120.955 147.974 122.314C148.709 123.679 149.193 125.181 149.385 126.721C149.583 128.259 149.49 129.836 149.121 131.346C148.937 132.101 148.679 132.837 148.363 133.548C148.042 134.256 147.656 134.934 147.214 135.577Z" fill="#1B1A2E"/>
<path d="M135.416 131.773L132.385 128.741L133.312 127.815L135.416 129.919L140.213 125.121L141.139 126.049L135.416 131.773Z" fill="#FF91A4"/>
<path opacity="0.2" d="M292.156 11.4656H231.339C228.555 11.4656 226.3 13.7205 226.3 16.5045V58.9365C226.3 61.7205 228.555 63.9776 231.339 63.9776H275.646L286.36 78.6187V63.9776H292.156C294.938 63.9776 297.195 61.7205 297.195 58.9365V16.5045C297.195 13.7205 294.938 11.4656 292.156 11.4656Z" fill="#FFF4F6"/>
<path d="M275.701 63.771H275.751L275.781 63.811L275.813 63.8536L275.814 63.8546L286.153 77.9862V63.871V63.771H286.253H292.156C294.821 63.771 296.988 61.6035 296.988 58.9366V16.5046C296.988 13.8398 294.821 11.6723 292.156 11.6723H231.339C228.674 11.6723 226.506 13.8398 226.506 16.5046V58.9366C226.506 61.6035 228.674 63.771 231.339 63.771H275.701ZM286.566 78.9451V79.2511L286.385 79.0041L275.542 64.1843H231.339C228.446 64.1843 226.093 61.8312 226.093 58.9366V16.5046C226.093 13.612 228.446 11.259 231.339 11.259H292.156C295.048 11.259 297.401 13.612 297.401 16.5046V58.9366C297.401 61.8312 295.048 64.1843 292.156 64.1843H286.566V78.9451Z" fill="#FF91A4" stroke="#FF91A4" stroke-width="0.2"/>
<path opacity="0.2" d="M129.285 11.4656H190.101C192.885 11.4656 195.14 13.7205 195.14 16.5045V58.9365C195.14 61.7205 192.885 63.9776 190.101 63.9776H145.794L135.081 78.6187V63.9776H129.285C126.502 63.9776 124.245 61.7205 124.245 58.9365V16.5045C124.245 13.7205 126.502 11.4656 129.285 11.4656Z" fill="#FFF4F6"/>
<path d="M135.187 63.771H135.287V63.871V77.9863L145.659 63.8119L145.689 63.771H145.74H190.102C192.766 63.771 194.934 61.6035 194.934 58.9366V16.5046C194.934 13.8398 192.766 11.6723 190.102 11.6723H129.285C126.62 11.6723 124.452 13.8398 124.452 16.5046V58.9366C124.452 61.6035 126.62 63.771 129.285 63.771H135.187ZM135.055 79.0042L134.874 79.2511V78.9451V64.1843H129.285C126.392 64.1843 124.038 61.8312 124.038 58.9366V16.5046C124.038 13.612 126.392 11.259 129.285 11.259H190.102C192.994 11.259 195.347 13.612 195.347 16.5046V58.9366C195.347 61.8312 192.994 64.1843 190.102 64.1843H145.899L135.055 79.0042Z" fill="#FF91A4" stroke="#FF91A4" stroke-width="0.2"/>
<path opacity="0.2" d="M322.144 66.5312H414.697C417.809 66.5312 420.333 69.0549 420.333 72.1675V119.628C420.333 122.74 417.809 125.264 414.697 125.264H340.608L328.627 141.639V125.264H322.144C319.032 125.264 316.508 122.74 316.508 119.628V72.1675C316.508 69.0549 319.032 66.5312 322.144 66.5312Z" fill="#FFF4F6"/>
<path d="M328.734 125.057H328.834V125.157V141.007L340.474 125.098L340.504 125.057H340.555H414.697C417.69 125.057 420.126 122.621 420.126 119.628V72.1674C420.126 69.172 417.69 66.7378 414.697 66.7378H322.144C319.151 66.7378 316.714 69.172 316.714 72.1674V119.628C316.714 122.621 319.151 125.057 322.144 125.057H328.734ZM328.601 142.025L328.421 142.272V141.966V125.471H322.144C318.923 125.471 316.301 122.849 316.301 119.628V72.1674C316.301 68.9442 318.923 66.3245 322.144 66.3245H414.697C417.918 66.3245 420.539 68.9442 420.539 72.1674V119.628C420.539 122.849 417.918 125.471 414.697 125.471H340.714L328.601 142.025Z" fill="#FF91A4" stroke="#FF91A4" stroke-width="0.2"/>
<path opacity="0.2" d="M99.2957 66.5312H6.74402C3.63064 66.5312 1.10669 69.0549 1.10669 72.1675V119.628C1.10669 122.74 3.63064 125.264 6.74402 125.264H80.8315L92.8136 141.639V125.264H99.2957C102.409 125.264 104.933 122.74 104.933 119.628V72.1675C104.933 69.0549 102.409 66.5312 99.2957 66.5312Z" fill="#FFF4F6"/>
<path d="M80.8856 125.057H80.9358L80.9658 125.098L80.9976 125.14L80.9981 125.141L92.6069 141.007V125.157V125.057H92.7069H99.2957C102.29 125.057 104.726 122.621 104.726 119.628V72.1674C104.726 69.1721 102.29 66.7378 99.2957 66.7378H6.744C3.74959 66.7378 1.31333 69.1721 1.31333 72.1674V119.628C1.31333 122.621 3.74962 125.057 6.744 125.057H80.8856ZM93.0202 141.966V142.272L92.8395 142.025L80.7265 125.471H6.744C3.52163 125.471 0.9 122.849 0.9 119.628V72.1674C0.9 68.9442 3.52166 66.3245 6.744 66.3245H99.2957C102.518 66.3245 105.14 68.9442 105.14 72.1674V119.628C105.14 122.849 102.518 125.471 99.2957 125.471H93.0202V141.966Z" fill="#FF91A4" stroke="#FF91A4" stroke-width="0.2"/>
<path d="M97.2345 265.907C96.7952 266.802 96.7213 267.968 96.5734 270.3L96.2712 275.063C96.264 275.177 96.2604 275.233 96.223 275.266C96.1856 275.299 96.129 275.296 96.0157 275.288L91.2519 274.986C88.9203 274.838 87.7545 274.764 86.8108 275.087C85.5524 275.517 84.5165 276.429 83.9308 277.623C83.4916 278.519 83.4176 279.685 83.2697 282.016C83.1218 284.348 83.0479 285.513 83.3704 286.457C83.8005 287.716 84.7129 288.752 85.9068 289.337C86.8022 289.776 87.968 289.85 90.2996 289.998L95.0634 290.3C95.1767 290.308 95.2333 290.311 95.2662 290.349C95.2992 290.386 95.2956 290.443 95.2884 290.556L94.9862 295.32C94.8383 297.651 94.7644 298.817 95.0869 299.761C95.517 301.019 96.4294 302.055 97.6233 302.641C98.5187 303.08 99.6845 303.154 102.016 303.302C104.348 303.45 105.513 303.524 106.457 303.201C107.716 302.771 108.752 301.859 109.337 300.665C109.776 299.769 109.85 298.604 109.998 296.272L110.3 291.508C110.308 291.395 110.311 291.338 110.349 291.305C110.386 291.272 110.443 291.276 110.556 291.283L115.32 291.585C117.651 291.733 118.817 291.807 119.761 291.485C121.019 291.055 122.055 290.142 122.641 288.948C123.08 288.053 123.154 286.887 123.302 284.556C123.45 282.224 123.524 281.058 123.201 280.114C122.771 278.856 121.859 277.82 120.665 277.234C119.769 276.795 118.604 276.721 116.272 276.573L111.508 276.271C111.395 276.264 111.338 276.26 111.305 276.223C111.272 276.186 111.276 276.129 111.283 276.016L111.585 271.252C111.733 268.92 111.807 267.755 111.485 266.811C111.055 265.552 110.142 264.516 108.948 263.931C108.053 263.492 106.887 263.418 104.556 263.27C102.224 263.122 101.058 263.048 100.114 263.37C98.8561 263.801 97.8201 264.713 97.2345 265.907Z" stroke="#FFE9ED" stroke-width="5.73038"/>
<path d="M123.201 280.114C122.771 278.856 121.859 277.82 120.665 277.234C119.77 276.795 118.604 276.721 116.272 276.573L111.508 276.271C111.395 276.264 111.338 276.26 111.306 276.223C111.273 276.186 111.276 276.129 111.283 276.016L111.586 271.252C111.733 268.92 111.807 267.755 111.485 266.811C111.055 265.552 110.142 264.516 108.948 263.931" stroke="#FF91A4" stroke-width="5.73038"/>
<path d="M331.429 267.712C331.128 268.663 331.228 269.827 331.428 272.154L331.838 276.91C331.848 277.023 331.853 277.08 331.821 277.118C331.789 277.156 331.732 277.161 331.619 277.171L326.863 277.58C324.536 277.781 323.372 277.881 322.487 278.341C321.306 278.953 320.417 280.009 320.016 281.277C319.715 282.228 319.815 283.392 320.015 285.719C320.216 288.047 320.316 289.211 320.776 290.096C321.388 291.276 322.444 292.165 323.712 292.567C324.663 292.868 325.827 292.768 328.154 292.567L332.91 292.157C333.023 292.148 333.08 292.143 333.118 292.175C333.156 292.207 333.161 292.264 333.171 292.377L333.58 297.132C333.781 299.46 333.881 300.624 334.341 301.509C334.953 302.689 336.009 303.578 337.277 303.98C338.228 304.281 339.392 304.181 341.719 303.98C344.047 303.78 345.211 303.679 346.096 303.22C347.276 302.608 348.165 301.551 348.567 300.283C348.868 299.333 348.768 298.169 348.567 295.841L348.157 291.085C348.148 290.972 348.143 290.916 348.175 290.878C348.207 290.84 348.263 290.835 348.377 290.825L353.132 290.415C355.46 290.215 356.624 290.114 357.509 289.655C358.689 289.043 359.578 287.986 359.98 286.719C360.281 285.768 360.181 284.604 359.98 282.276C359.78 279.949 359.679 278.785 359.22 277.9C358.607 276.719 357.551 275.83 356.283 275.429C355.333 275.128 354.169 275.228 351.841 275.429L347.085 275.838C346.972 275.848 346.916 275.853 346.878 275.821C346.84 275.789 346.835 275.732 346.825 275.619L346.415 270.863C346.215 268.536 346.114 267.372 345.655 266.487C345.043 265.306 343.986 264.417 342.719 264.016C341.768 263.715 340.604 263.815 338.276 264.016C335.949 264.216 334.785 264.316 333.9 264.776C332.719 265.388 331.83 266.444 331.429 267.712Z" stroke="#FFE9ED" stroke-width="5.73038"/>
<path d="M359.22 277.9C358.608 276.719 357.551 275.83 356.284 275.429C355.333 275.128 354.169 275.228 351.841 275.429L347.085 275.838C346.972 275.848 346.916 275.853 346.878 275.821C346.84 275.789 346.835 275.732 346.825 275.619L346.415 270.863C346.215 268.536 346.114 267.372 345.655 266.487C345.043 265.306 343.986 264.417 342.719 264.016" stroke="#FF91A4" stroke-width="5.73038"/>
<path d="M253.667 52.5C253.667 51.0272 254.861 49.8333 256.333 49.8333H267.667C269.14 49.8333 270.333 51.0272 270.333 52.5V52.5C270.333 52.8682 270.035 53.1666 269.667 53.1666H254.333C253.965 53.1666 253.667 52.8682 253.667 52.5V52.5Z" stroke="#22202A" stroke-width="1.66667"/>
<path d="M256.915 43.9999C256.915 43.9999 259.187 45.7027 260.563 45.9858C261.789 46.2381 263.06 46.1632 264.248 45.7686C265.436 45.3739 266.5 44.6735 267.331 43.7377C268.163 42.8018 268.734 41.6636 268.986 40.4373C269.238 39.211 269.163 37.9399 268.769 36.7518C268.58 36.1826 268.32 35.6421 267.999 35.142L267.833 34.8333M253.34 43.9999C253.34 43.9999 254.553 45.7603 255.357 46.4749C256.669 47.6409 258.265 48.441 259.985 48.7948C261.704 49.1485 263.486 49.0435 265.152 48.4901C266.818 47.9368 268.309 46.9548 269.475 45.6426C270.641 44.3305 271.441 42.7346 271.795 41.0152C272.149 39.2959 272.044 37.5137 271.49 35.8478C271.2 34.9737 270.791 34.1477 270.279 33.3916L270.157 33.2586M267.833 34.8333C268.887 34.8333 269.789 34.1812 270.157 33.2586M267.833 34.8333C266.953 34.8333 266.178 34.3779 265.733 33.6899M270.157 33.2586C270.271 32.9724 270.333 32.6602 270.333 32.3333C270.333 31.6892 270.09 31.102 269.69 30.6588M265.733 33.6899C265.48 33.2991 265.333 32.8333 265.333 32.3333C265.333 30.9525 266.453 29.8333 267.833 29.8333C268.57 29.8333 269.232 30.1518 269.69 30.6588M265.733 33.6899L260.894 37.3968C260.429 37.7532 259.784 37.6373 259.427 37.1721L257.329 34.4873C257.157 34.2635 257.072 34.1516 257.017 34.0454C256.762 33.5506 256.842 32.9497 257.217 32.5382C257.297 32.4498 257.409 32.3641 257.633 32.1927L265.954 25.8174C266.742 25.214 267.136 24.9123 267.565 24.8993C267.71 24.895 267.853 24.9141 267.991 24.9558C268.403 25.0801 268.704 25.4739 269.308 26.2616L270.333 27.6001C270.732 28.1206 270.931 28.3809 270.998 28.6531C271.077 28.9773 271.032 29.3194 270.871 29.6118C270.736 29.8573 270.476 30.0567 269.955 30.4554L269.69 30.6588" stroke="#22202A" stroke-width="1.66667"/>
<path d="M252.833 44H259.5" stroke="#22202A" stroke-width="1.66667" stroke-linecap="round"/>
<path d="M269.439 26.1555C269.123 25.7432 269.256 25.1976 269.658 24.9055C270.261 24.4663 271.083 24.6275 271.526 25.2059L271.927 25.7285C272.37 26.3069 272.311 27.1422 271.73 27.6107C271.341 27.9246 270.788 27.9164 270.466 27.4967L269.953 26.8261L269.439 26.1555Z" stroke="#FF91A4" stroke-width="1.66667"/>
<path d="M257.721 38.4789L257.721 38.4789L259.427 37.1721L257.329 34.4874L255.643 35.7678L255.643 35.7678C255.243 36.0743 255.043 36.2275 254.93 36.4104C254.756 36.6934 254.71 37.0374 254.805 37.356C254.867 37.562 255.02 37.762 255.326 38.162L255.326 38.162C255.633 38.562 255.786 38.762 255.969 38.8748C256.252 39.0494 256.596 39.0949 256.915 39C257.121 38.9386 257.321 38.7854 257.721 38.4789Z" stroke="#FF91A4" stroke-width="1.66667"/>
<path d="M353.091 101.764L369.368 83.0605C372.065 79.9616 376.763 79.6357 379.862 82.3324C382.961 85.0292 383.287 89.7275 380.59 92.8264L378.15 95.6298C376.946 95.143 375.629 94.875 374.25 94.875C368.497 94.875 363.833 99.5387 363.833 105.292M353.091 101.764C350.395 104.863 350.721 109.561 353.819 112.258C357.66 115.601 362.276 113.871 365.22 110.488C364.338 108.959 363.833 107.184 363.833 105.292M353.091 101.764L362.043 91.4771M363.833 105.292C363.833 102.364 365.041 99.7182 366.986 97.8258" stroke="#22202A" stroke-width="2.08333"/>
<path d="M362.043 91.4771C363.681 94.3552 365.138 96.3033 366.986 97.8258" stroke="#FF91A4" stroke-width="2.08333"/>
<path d="M376.251 84.4286C373.567 83.7361 371.939 85.6064 371.125 86.5416" stroke="#FF91A4" stroke-width="2.08333" stroke-linecap="round"/>
<path d="M384.667 105.292C384.667 111.045 380.003 115.708 374.25 115.708C368.497 115.708 363.833 111.045 363.833 105.292C363.833 99.5387 368.497 94.875 374.25 94.875C380.003 94.875 384.667 99.5387 384.667 105.292Z" stroke="#22202A" stroke-width="2.08333"/>
<path d="M367.207 107.179L381.293 103.404" stroke="#FF91A4" stroke-width="2.08333" stroke-linecap="round"/>
<path d="M65.663 102.205C69.0715 102.077 72.7917 97.9598 72.7917 92.8333C72.7917 89.978 71.6429 87.625 69.6667 87.625C68.2612 87.625 67.4282 88.7961 66.5226 89.7016M65.663 102.205V102.205C65.5631 103.658 64.6533 104.93 63.2741 105.398C60.8003 106.237 56.6698 107.417 53 107.417C49.3303 107.417 45.1997 106.237 42.726 105.398C41.3468 104.93 40.437 103.658 40.3371 102.205V102.205M65.663 102.205L66.5226 89.7016M39.4774 89.7016V89.7016C39.4665 89.5426 39.5745 89.3999 39.7305 89.3672L50.8613 87.032C52.2718 86.7361 53.7283 86.7361 55.1388 87.032L66.2696 89.3672C66.4256 89.3999 66.5336 89.5426 66.5226 89.7016V89.7016M39.4774 89.7016C38.5719 88.7961 37.7389 87.625 36.3334 87.625C34.3572 87.625 33.2084 89.978 33.2084 92.8333C33.2084 97.9598 36.9285 102.077 40.3371 102.205M39.4774 89.7016L40.3371 102.205" stroke="#22202A" stroke-width="2.08333"/>
<path d="M45.7084 92.8333H60.2917" stroke="#FF91A4" stroke-width="2.08333" stroke-linecap="round"/>
<path d="M46.75 97H59.25" stroke="#4F4F4F" stroke-width="2.08333" stroke-linecap="round"/>
<path d="M45.7084 101.167H60.2917" stroke="#FF91A4" stroke-width="2.08333" stroke-linecap="round"/>
<path d="M153.344 38.5L149.219 42.6248C147.795 44.0486 147.795 46.357 149.219 47.7808V47.7808C150.643 49.2046 152.951 49.2046 154.375 47.7808L158.5 43.656M153.344 38.5L158.5 43.656M153.344 38.5L158.5 33.344M158.5 43.656L163.656 38.5M158.5 33.344L162.625 29.2192C164.049 27.7954 166.357 27.7954 167.781 29.2192V29.2192C169.205 30.643 169.205 32.9514 167.781 34.3752L163.656 38.5M158.5 33.344L163.656 38.5" stroke="#22202A" stroke-width="1.45833"/>
<path d="M164.27 39.0665L167.801 42.6248C169.215 44.0502 169.211 46.3509 167.791 47.7708C166.363 49.1985 164.047 49.194 162.625 47.7609L159.105 44.2139C158.771 43.8768 158.772 43.3326 159.107 42.9967L163.04 39.0642C163.38 38.7244 163.931 38.7254 164.27 39.0665Z" stroke="#FF91A4" stroke-width="1.45833"/>
<path d="M154.375 29.2391L157.895 32.7861C158.229 33.1232 158.228 33.6674 157.893 34.0033L153.96 37.9358C153.62 38.2756 153.069 38.2746 152.73 37.9334L149.199 34.3751C147.785 32.9498 147.789 30.649 149.209 29.2291C150.637 27.8015 152.953 27.8059 154.375 29.2391Z" stroke="#FF91A4" stroke-width="1.45833"/>
<path opacity="0.5" d="M158.5 36.2979H158.515V36.3125H158.5V36.2979Z" stroke="#22202A" stroke-width="1.45833" stroke-linejoin="round"/>
<path opacity="0.5" d="M158.5 38.5H158.515V38.5146H158.5V38.5Z" stroke="#22202A" stroke-width="1.45833" stroke-linejoin="round"/>
<path opacity="0.5" d="M160.688 38.5H160.702V38.5146H160.688V38.5Z" stroke="#22202A" stroke-width="1.45833" stroke-linejoin="round"/>
<path opacity="0.5" d="M156.312 38.5H156.327V38.5146H156.312V38.5Z" stroke="#22202A" stroke-width="1.45833" stroke-linejoin="round"/>
<path opacity="0.5" d="M158.5 40.6729H158.515V40.6875H158.5V40.6729Z" stroke="#22202A" stroke-width="1.45833" stroke-linejoin="round"/>
</svg>
