<svg width="38" height="38" viewBox="0 0 38 38" fill="none" xmlns="http://www.w3.org/2000/svg">
<path d="M13.3045 5.46927C13 6.20435 13 7.13623 13 9V12.808C13 12.8985 13 12.9438 12.9719 12.9719C12.9438 13 12.8985 13 12.808 13H9C7.13623 13 6.20435 13 5.46927 13.3045C4.48915 13.7105 3.71046 14.4892 3.30448 15.4693C3 16.2043 3 17.1362 3 19C3 20.8638 3 21.7956 3.30448 22.5307C3.71046 23.5108 4.48915 24.2895 5.46927 24.6955C6.20435 25 7.13623 25 9 25H12.808C12.8985 25 12.9438 25 12.9719 25.0281C13 25.0562 13 25.1015 13 25.192V29C13 30.8638 13 31.7956 13.3045 32.5307C13.7105 33.5108 14.4892 34.2895 15.4693 34.6955C16.2043 35 17.1362 35 19 35C20.8638 35 21.7956 35 22.5307 34.6955C23.5108 34.2895 24.2895 33.5108 24.6955 32.5307C25 31.7956 25 30.8638 25 29V25.192C25 25.1015 25 25.0562 25.0281 25.0281C25.0562 25 25.1015 25 25.192 25H29C30.8638 25 31.7956 25 32.5307 24.6955C33.5108 24.2895 34.2895 23.5108 34.6955 22.5307C35 21.7956 35 20.8638 35 19C35 17.1362 35 16.2043 34.6955 15.4693C34.2895 14.4892 33.5108 13.7105 32.5307 13.3045C31.7957 13 30.8638 13 29 13H25.192C25.1015 13 25.0562 13 25.0281 12.9719C25 12.9438 25 12.8985 25 12.808V9C25 7.13623 25 6.20435 24.6955 5.46927C24.2895 4.48915 23.5108 3.71046 22.5307 3.30448C21.7956 3 20.8638 3 19 3C17.1362 3 16.2043 3 15.4693 3.30448C14.4892 3.71046 13.7105 4.48915 13.3045 5.46927Z" stroke="#E7E7E7" stroke-width="4.57143"/>
<path d="M34.6955 15.4693C34.2896 14.4892 33.5109 13.7105 32.5308 13.3045C31.7957 13 30.8638 13 29 13H25.192C25.1015 13 25.0563 13 25.0281 12.9719C25 12.9438 25 12.8985 25 12.808V9.00002C25 7.13626 25 6.20437 24.6955 5.46929C24.2896 4.48918 23.5109 3.71048 22.5308 3.3045" stroke="#FF91A4" stroke-width="4.57143"/>
</svg>
