<svg width="50" height="50" viewBox="0 0 50 50" fill="none" xmlns="http://www.w3.org/2000/svg">
<path d="M37.663 30.2053C41.0715 30.0771 44.7917 25.9598 44.7917 20.8333C44.7917 17.978 43.6429 15.625 41.6667 15.625C40.2612 15.625 39.4282 16.7961 38.5226 17.7016M37.663 30.2053V30.2053C37.5631 31.6582 36.6533 32.9303 35.2741 33.3981C32.8003 34.2371 28.6698 35.4167 25 35.4167C21.3303 35.4167 17.1997 34.2371 14.726 33.3981C13.3468 32.9303 12.437 31.6582 12.3371 30.2053V30.2053M37.663 30.2053L38.5226 17.7016M11.4774 17.7016V17.7016C11.4665 17.5426 11.5745 17.3999 11.7305 17.3672L22.8613 15.032C24.2718 14.7361 25.7283 14.7361 27.1388 15.032L38.2696 17.3672C38.4256 17.3999 38.5336 17.5426 38.5226 17.7016V17.7016M11.4774 17.7016C10.5719 16.7961 9.73886 15.625 8.33337 15.625C6.35718 15.625 5.20837 17.978 5.20837 20.8333C5.20837 25.9598 8.92855 30.0771 12.3371 30.2053M11.4774 17.7016L12.3371 30.2053" stroke="#22202A" stroke-width="2.08333"/>
<path d="M17.7084 20.8333H32.2917" stroke="#FF91A4" stroke-width="2.08333" stroke-linecap="round"/>
<path d="M18.7501 25H31.2501" stroke="#4F4F4F" stroke-width="2.08333" stroke-linecap="round"/>
<path d="M17.7084 29.1667H32.2917" stroke="#FF91A4" stroke-width="2.08333" stroke-linecap="round"/>
</svg>
