<svg width="50" height="50" viewBox="0 0 50 50" fill="none" xmlns="http://www.w3.org/2000/svg">
<path d="M14.5834 41.875C14.5834 40.034 16.0758 38.5417 17.9167 38.5417H32.0834C33.9243 38.5417 35.4167 40.034 35.4167 41.875V41.875C35.4167 42.3352 35.0436 42.7083 34.5834 42.7083H15.4167C14.9565 42.7083 14.5834 42.3352 14.5834 41.875V41.875Z" stroke="#22202A" stroke-width="2.08333"/>
<path d="M18.6434 31.2499C18.6434 31.2499 21.4831 33.3783 23.2033 33.7323C24.7362 34.0477 26.325 33.954 27.8102 33.4607C29.2954 32.9674 30.6245 32.0919 31.6641 30.9221C32.7036 29.7523 33.417 28.3294 33.7323 26.7966C34.0477 25.2638 33.9541 23.6749 33.4608 22.1897C33.2245 21.4783 32.9005 20.8027 32.4984 20.1775L32.2917 19.7916M14.1749 31.2499C14.1749 31.2499 15.6915 33.4504 16.6966 34.3436C18.3368 35.8011 20.3317 36.8013 22.4809 37.2435C24.6301 37.6857 26.8578 37.5543 28.9401 36.8627C31.0225 36.171 32.8861 34.9434 34.3436 33.3033C35.8012 31.6631 36.8013 29.6682 37.2435 27.519C37.6857 25.3698 37.5544 23.1421 36.8627 21.0598C36.4998 19.9671 35.9893 18.9346 35.349 17.9894L35.1956 17.8233M32.2917 19.7916C33.6089 19.7916 34.7358 18.9765 35.1956 17.8233M32.2917 19.7916C31.1909 19.7916 30.2231 19.2224 29.6664 18.3624M35.1956 17.8233C35.3383 17.4655 35.4167 17.0752 35.4167 16.6666C35.4167 15.8615 35.1122 15.1275 34.6122 14.5735M29.6664 18.3624C29.3502 17.8739 29.1667 17.2917 29.1667 16.6666C29.1667 14.9407 30.5658 13.5416 32.2917 13.5416C33.2125 13.5416 34.0403 13.9398 34.6122 14.5735M29.6664 18.3624L23.6179 22.996C23.0364 23.4415 22.2297 23.2966 21.7842 22.7151L19.1608 19.3592C18.9465 19.0794 18.8394 18.9395 18.7711 18.8068C18.453 18.1882 18.5525 17.4371 19.0206 16.9227C19.1211 16.8123 19.261 16.7051 19.5407 16.4908L29.9431 8.52177C30.9276 7.76751 31.4199 7.39038 31.9568 7.37419C32.137 7.36875 32.3168 7.39257 32.4893 7.44471C33.0035 7.60012 33.3806 8.0924 34.1348 9.07696L35.4167 10.7502C35.9151 11.4008 36.1643 11.7261 36.2474 12.0664C36.3463 12.4716 36.2897 12.8992 36.0886 13.2648C35.9199 13.5717 35.5946 13.8209 34.9439 14.3193L34.6122 14.5735" stroke="#22202A" stroke-width="2.08333"/>
<path d="M13.5417 31.25H21.8751" stroke="#22202A" stroke-width="2.08333" stroke-linecap="round"/>
<path d="M34.2984 8.94428C33.9036 8.42897 34.0705 7.74702 34.5722 7.38189C35.3267 6.83279 36.3538 7.03437 36.9077 7.75734L37.4081 8.41059C37.962 9.13355 37.8892 10.1778 37.1626 10.7633C36.6758 11.1557 35.9847 11.1455 35.5829 10.6209L34.9406 9.78259L34.2984 8.94428Z" stroke="#FF91A4" stroke-width="2.08333"/>
<path d="M18.6434 25C18.9007 24.9233 19.1508 24.7317 19.6508 24.3486L21.7842 22.7152L19.1608 19.3592L17.0541 20.9597L17.0541 20.9597C16.5541 21.3429 16.3041 21.5344 16.1631 21.763C15.9449 22.1167 15.888 22.5467 16.0066 22.9451C16.0833 23.2024 16.2749 23.4525 16.658 23.9525L16.658 23.9525C17.0411 24.4525 17.2327 24.7025 17.4613 24.8435C17.815 25.0617 18.245 25.1187 18.6434 25Z" stroke="#FF91A4" stroke-width="2.08333"/>
</svg>
