<svg width="50" height="50" viewBox="0 0 50 50" fill="none" xmlns="http://www.w3.org/2000/svg">
<path d="M10.4167 30.7292C7.25 30.7292 4.6875 28.1667 4.6875 25C4.6875 21.8333 7.25 19.2708 10.4167 19.2708C13.5833 19.2708 16.1458 21.8333 16.1458 25C16.1458 28.1667 13.5833 30.7292 10.4167 30.7292ZM10.4167 22.3958C8.97917 22.3958 7.8125 23.5625 7.8125 25C7.8125 26.4375 8.97917 27.6042 10.4167 27.6042C11.8542 27.6042 13.0208 26.4375 13.0208 25C13.0208 23.5625 11.8542 22.3958 10.4167 22.3958Z" fill="#FF91A4"/>
<path d="M39.5833 30.7292C36.4166 30.7292 33.8541 28.1667 33.8541 25C33.8541 21.8333 36.4166 19.2708 39.5833 19.2708C42.75 19.2708 45.3125 21.8333 45.3125 25C45.3125 28.1667 42.75 30.7292 39.5833 30.7292ZM39.5833 22.3958C38.1458 22.3958 36.9791 23.5625 36.9791 25C36.9791 26.4375 38.1458 27.6042 39.5833 27.6042C41.0208 27.6042 42.1875 26.4375 42.1875 25C42.1875 23.5625 41.0208 22.3958 39.5833 22.3958Z" fill="#FF91A4"/>
<path d="M25 30.7292C21.8334 30.7292 19.2709 28.1667 19.2709 25C19.2709 21.8333 21.8334 19.2708 25 19.2708C28.1667 19.2708 30.7292 21.8333 30.7292 25C30.7292 28.1667 28.1667 30.7292 25 30.7292ZM25 22.3958C23.5625 22.3958 22.3959 23.5625 22.3959 25C22.3959 26.4375 23.5625 27.6042 25 27.6042C26.4375 27.6042 27.6042 26.4375 27.6042 25C27.6042 23.5625 26.4375 22.3958 25 22.3958Z" fill="#2E2E2E"/>
</svg>
