<svg width="50" height="50" viewBox="0 0 50 50" fill="none" xmlns="http://www.w3.org/2000/svg">
<path d="M10.0913 28.764L26.3678 10.0605C29.0646 6.96163 33.7629 6.63566 36.8618 9.33244C39.9607 12.0292 40.2867 16.7275 37.5899 19.8264L35.1503 22.6298C33.9456 22.143 32.6291 21.875 31.25 21.875C25.4971 21.875 20.8334 26.5387 20.8334 32.2917M10.0913 28.764C7.39454 31.8629 7.72052 36.5612 10.8194 39.2579C14.6604 42.6005 19.276 40.8711 22.22 37.488C21.338 35.9586 20.8334 34.1841 20.8334 32.2917M10.0913 28.764L19.0434 18.4771M20.8334 32.2917C20.8334 29.3639 22.0413 26.7182 23.9859 24.8258" stroke="#22202A" stroke-width="2.08333"/>
<path d="M19.0433 18.4771C20.6806 21.3552 22.1383 23.3033 23.9858 24.8258" stroke="#FF91A4" stroke-width="2.08333"/>
<path d="M33.2507 11.4286C30.5666 10.7361 28.9389 12.6064 28.1251 13.5416" stroke="#FF91A4" stroke-width="2.08333" stroke-linecap="round"/>
<path d="M41.6667 32.2917C41.6667 38.0446 37.003 42.7083 31.25 42.7083C25.4971 42.7083 20.8334 38.0446 20.8334 32.2917C20.8334 26.5387 25.4971 21.875 31.25 21.875C37.003 21.875 41.6667 26.5387 41.6667 32.2917Z" stroke="#22202A" stroke-width="2.08333"/>
<path d="M24.2068 34.1789L38.2932 30.4045" stroke="#FF91A4" stroke-width="2.08333" stroke-linecap="round"/>
</svg>
