<svg width="96" height="96" viewBox="0 0 96 96" fill="none" xmlns="http://www.w3.org/2000/svg">
<path d="M48.0003 53.1999C47.4803 53.1999 46.9603 53.0799 46.4803 52.7999L11.1603 32.3599C9.76034 31.5199 9.24034 29.6799 10.0803 28.2399C10.9203 26.7999 12.7603 26.3199 14.2003 27.1599L48.0003 46.7199L81.6003 27.2799C83.0403 26.4399 84.8803 26.9599 85.7203 28.3599C86.5603 29.7999 86.0403 31.6399 84.6403 32.4799L49.5603 52.7999C49.0403 53.0399 48.5203 53.1999 48.0003 53.1999Z" fill="#FF91A4"/>
<path d="M48 89.4402C46.36 89.4402 45 88.0802 45 86.4402V50.1602C45 48.5202 46.36 47.1602 48 47.1602C49.64 47.1602 51 48.5202 51 50.1602V86.4402C51 88.0802 49.64 89.4402 48 89.4402Z" fill="#FF91A4"/>
<path d="M48.0005 91C44.4805 91 41.0005 90.24 38.2405 88.72L16.8805 76.84C11.0805 73.64 6.56055 65.92 6.56055 59.28V36.68C6.56055 30.04 11.0805 22.36 16.8805 19.12L38.2405 7.28C43.7205 4.24 52.2805 4.24 57.7605 7.28L79.1206 19.16C84.9206 22.36 89.4406 30.08 89.4406 36.72V59.32C89.4406 65.96 84.9206 73.64 79.1206 76.88L57.7605 88.72C55.0005 90.24 51.5205 91 48.0005 91ZM48.0005 11C45.4805 11 43.0005 11.52 41.1605 12.52L19.8005 24.4C15.9605 26.52 12.5605 32.28 12.5605 36.68V59.28C12.5605 63.68 15.9605 69.44 19.8005 71.6L41.1605 83.48C44.8005 85.52 51.2005 85.52 54.8405 83.48L76.2005 71.6C80.0405 69.44 83.4406 63.72 83.4406 59.28V36.68C83.4406 32.28 80.0405 26.52 76.2005 24.36L54.8405 12.48C53.0005 11.52 50.5205 11 48.0005 11Z" fill="#2E2E2E"/>
</svg>
