<svg width="96" height="96" viewBox="0 0 96 96" fill="none" xmlns="http://www.w3.org/2000/svg">
<path d="M71.9993 31.6401C71.8793 31.6401 71.7993 31.6401 71.6793 31.6401H71.4793C63.9193 31.4001 58.2793 25.56 58.2793 18.36C58.2793 11 64.2793 5.04004 71.5993 5.04004C78.9193 5.04004 84.9193 11.04 84.9193 18.36C84.8793 25.6 79.2393 31.4401 72.0393 31.6801C72.0393 31.6401 72.0393 31.6401 71.9993 31.6401ZM71.5993 11.0001C67.5593 11.0001 64.2793 14.2801 64.2793 18.3201C64.2793 22.2801 67.3593 25.4801 71.3193 25.6401C71.3593 25.6001 71.6793 25.6001 72.0393 25.6401C75.9193 25.4401 78.9193 22.2401 78.9593 18.3201C78.9593 14.2801 75.6793 11.0001 71.5993 11.0001Z" fill="#FF91A4"/>
<path d="M72.04 61.1201C70.48 61.1201 68.92 61.0001 67.36 60.7201C65.72 60.4401 64.64 58.8801 64.92 57.2401C65.2 55.6001 66.76 54.5201 68.4 54.8001C73.32 55.6401 78.52 54.7201 82 52.4001C83.88 51.1601 84.88 49.6001 84.88 48.0401C84.88 46.4801 83.84 44.9601 82 43.7201C78.52 41.4001 73.24 40.4801 68.28 41.3601C66.64 41.6801 65.08 40.5601 64.8 38.9201C64.52 37.2801 65.6 35.7201 67.24 35.4401C73.76 34.2801 80.52 35.5201 85.32 38.7201C88.84 41.0801 90.88 44.4401 90.88 48.0401C90.88 51.6001 88.88 55.0001 85.32 57.4001C81.68 59.8001 76.96 61.1201 72.04 61.1201Z" fill="#2E2E2E"/>
<path d="M23.8799 31.64C23.8399 31.64 23.7999 31.64 23.7999 31.64C16.5999 31.4 10.9599 25.56 10.9199 18.36C10.9199 11 16.9199 5 24.2399 5C31.5599 5 37.5599 11 37.5599 18.32C37.5599 25.56 31.9199 31.4 24.7199 31.64L23.8799 28.64L24.1599 31.64C24.0799 31.64 23.9599 31.64 23.8799 31.64ZM24.2799 25.64C24.5199 25.64 24.7199 25.64 24.9599 25.68C28.5199 25.52 31.6399 22.32 31.6399 18.36C31.6399 14.32 28.3599 11.04 24.3199 11.04C20.2799 11.04 16.9999 14.32 16.9999 18.36C16.9999 22.28 20.0399 25.44 23.9199 25.68C23.9599 25.64 24.1199 25.64 24.2799 25.64Z" fill="#FF91A4"/>
<path d="M23.84 61.1201C18.92 61.1201 14.2 59.8001 10.56 57.4001C7.04 55.0401 5 51.6401 5 48.0401C5 44.4801 7.04 41.0801 10.56 38.7201C15.36 35.5201 22.12 34.2801 28.64 35.4401C30.28 35.7201 31.36 37.2801 31.08 38.9201C30.8 40.5601 29.24 41.6801 27.6 41.3601C22.64 40.4801 17.4 41.4001 13.88 43.7201C12 44.9601 11 46.4801 11 48.0401C11 49.6001 12.04 51.1601 13.88 52.4001C17.36 54.7201 22.56 55.6401 27.48 54.8001C29.12 54.5201 30.68 55.6401 30.96 57.2401C31.24 58.8801 30.16 60.4401 28.52 60.7201C26.96 61.0001 25.4 61.1201 23.84 61.1201Z" fill="#292D32"/>
<path d="M47.9993 61.52C47.8793 61.52 47.7993 61.52 47.6793 61.52H47.4793C39.9193 61.28 34.2793 55.4399 34.2793 48.2399C34.2793 40.8799 40.2793 34.9199 47.5993 34.9199C54.9193 34.9199 60.9193 40.9199 60.9193 48.2399C60.8793 55.4799 55.2393 61.3199 48.0393 61.5599C48.0393 61.5199 48.0393 61.52 47.9993 61.52ZM47.5993 40.8799C43.5593 40.8799 40.2793 44.16 40.2793 48.2C40.2793 52.16 43.3593 55.36 47.3193 55.52C47.3593 55.48 47.6793 55.48 48.0393 55.52C51.9193 55.32 54.9193 52.12 54.9593 48.2C54.9593 44.2 51.6793 40.8799 47.5993 40.8799Z" fill="#FF91A4"/>
<path d="M47.9991 91.0399C43.1991 91.0399 38.3991 89.7999 34.6791 87.2799C31.1591 84.9199 29.1191 81.5599 29.1191 77.9599C29.1191 74.3999 31.1191 70.9599 34.6791 68.5999C42.1591 63.6399 53.8792 63.6399 61.3192 68.5999C64.8392 70.9599 66.8792 74.3199 66.8792 77.9199C66.8792 81.4799 64.8792 84.9199 61.3192 87.2799C57.5992 89.7599 52.7991 91.0399 47.9991 91.0399ZM37.9991 73.6399C36.1191 74.8799 35.1191 76.4399 35.1191 77.9999C35.1191 79.5599 36.1591 81.0799 37.9991 82.3199C43.3991 85.9599 52.5592 85.9599 57.9592 82.3199C59.8392 81.0799 60.8391 79.5199 60.8391 77.9599C60.8391 76.3999 59.7992 74.8799 57.9592 73.6399C52.5992 69.9999 43.4391 70.0399 37.9991 73.6399Z" fill="#292D32"/>
</svg>
