<svg width="456" height="447" viewBox="0 0 456 447" fill="none" xmlns="http://www.w3.org/2000/svg">
<path d="M23.9487 349.941H251.561V15.768H23.9487V349.941Z" fill="#F0F2F5"/>
<path d="M163.489 349.941H214.759V75.36H163.489V349.941Z" fill="#E1E6EB"/>
<path d="M96.7959 349.941H163.489V137.819H96.7959V349.941Z" fill="#E1E6EB"/>
<path d="M214.759 349.941H251.561V198.405H214.759V349.941Z" fill="#E1E6EB"/>
<path d="M31.6538 349.941H87.4015V120.88L31.6538 84.7894V349.941Z" fill="#E1E6EB"/>
<path d="M176.306 56.7493H201.941V75.36H176.306V56.7493Z" fill="#E1E6EB"/>
<path d="M108.472 119.208H134.106V137.819H108.472V119.208Z" fill="#E1E6EB"/>
<path d="M139.141 119.208H142.339V137.819H139.141V119.208Z" fill="#E1E6EB"/>
<path d="M145.894 119.208H149.091V137.819H145.894V119.208Z" fill="#E1E6EB"/>
<path d="M157.455 75.36H220.793V79.8267H157.455V75.36Z" fill="#E1E6EB"/>
<path d="M186.85 34.5093H191.397V56.7493H186.85V34.5093Z" fill="#E1E6EB"/>
<path d="M0 358.224H275.304V349.941H0V358.224Z" fill="#E1E6EB"/>
<path d="M0 8.28268H275.303V2.86102e-05H0V8.28268Z" fill="#E1E6EB"/>
<path d="M266.999 103.955H8.51172V107.203H266.999V103.955Z" fill="#D2D9E1"/>
<path d="M8.51172 224.731H266.999V221.293H8.51172V224.731Z" fill="#D2D9E1"/>
<path d="M122.235 349.941H130.187V8.28265H122.235V349.941Z" fill="#D2D9E1"/>
<path d="M8.51172 349.941H16.464V8.28265H8.51172V349.941Z" fill="#E1E6EB"/>
<path d="M259.047 349.941H266.999V8.28265H259.047V349.941Z" fill="#E1E6EB"/>
<path d="M259.047 8.28265H16.4639V349.941H259.047V8.28265ZM251.561 15.768V342.456H23.9487V15.768H251.561Z" fill="#D2D9E1"/>
<path d="M417.951 149.688H345.383C342.548 149.688 340.249 151.987 340.249 154.821V181.88L331.025 189.123H340.249H417.951C420.785 189.123 423.084 186.824 423.084 183.987V154.821C423.084 151.987 420.785 149.688 417.951 149.688Z" fill="#F0F2F5"/>
<path d="M419.687 208.403H371.652C369.775 208.403 368.252 209.925 368.252 211.803V229.712L362.148 234.507H368.252H419.687C421.564 234.507 423.084 232.987 423.084 231.109V211.803C423.084 209.925 421.564 208.403 419.687 208.403Z" fill="#F0F2F5"/>
<path d="M413.434 56.5147L328.671 56.5654C323.364 56.568 319.063 60.8747 319.066 66.184L319.095 116.837L301.839 130.405L319.103 130.395L413.479 130.339C418.788 130.336 423.087 126.029 423.084 120.723L423.052 66.12C423.05 60.8133 418.743 56.512 413.434 56.5147Z" fill="#F0F2F5"/>
<path d="M279.228 289.683C279.228 289.683 292.9 294.8 305.964 307.709C318.361 319.965 325.164 331.627 325.164 331.627C315.167 328.616 305.671 323.368 297.441 315.856C289.217 308.347 283.132 299.363 279.228 289.683Z" fill="#F0F2F5"/>
<path d="M312.625 334.44C320.183 334.797 327.257 336.853 333.495 340.219C326.967 342.981 319.732 344.36 312.175 344.003C304.623 343.645 297.548 341.592 291.311 338.229C297.836 335.464 305.073 334.083 312.625 334.44Z" fill="#F0F2F5"/>
<path d="M340.074 295.456C341.564 302.384 341.564 309.752 339.799 317.104C338.034 324.459 334.69 331.024 330.212 336.52C328.722 329.589 328.724 322.224 330.492 314.869C332.258 307.517 335.599 300.952 340.074 295.456Z" fill="#F0F2F5"/>
<path d="M313.847 395.475C305.132 390.637 303.543 385.197 307.697 378.877C311.855 372.557 317.223 367.515 323.297 363.861C323.297 363.861 322.657 374.349 315.697 384.136C312.22 389.027 311.66 392.635 313.847 395.475Z" fill="#F0F2F5"/>
<path d="M318.222 355.176C318.422 355.117 318.622 355.061 318.825 355.011L319.86 354.739C320.204 354.653 320.55 354.576 320.897 354.491L321.417 354.368L321.94 354.256L322.985 354.037C324.38 353.763 325.785 353.525 327.196 353.331C330.022 352.968 332.865 352.755 335.713 352.712C338.529 352.669 341.353 352.768 344.148 353.125C344.086 353.04 344.022 352.955 343.958 352.872C342.057 350.355 340.092 347.885 338.068 345.467C336.041 343.048 333.95 340.68 331.804 338.368C330.737 337.208 329.646 336.069 328.542 334.941C327.436 333.816 326.318 332.701 325.164 331.627C326.324 332.693 327.452 333.8 328.564 334.917C329.676 336.037 330.774 337.171 331.852 338.325C334.006 340.632 336.1 342.995 338.134 345.408C340.166 347.824 342.137 350.291 344.049 352.805C344.577 353.504 345.105 354.208 345.625 354.915C345.74 353.965 345.9 353.021 346.124 352.091C346.353 351.136 346.62 350.189 346.929 349.259C347.244 348.328 347.582 347.408 347.964 346.501C348.345 345.597 348.75 344.704 349.212 343.837C349.006 344.283 348.804 344.731 348.617 345.181C348.422 345.632 348.238 346.085 348.057 346.541C347.7 347.451 347.358 348.371 347.054 349.301C346.737 350.227 346.47 351.168 346.222 352.115L346.046 352.827C345.988 353.067 345.942 353.307 345.892 353.544C345.782 353.997 345.716 354.461 345.628 354.917C346.982 356.749 348.305 358.603 349.577 360.491C350.025 361.141 350.454 361.803 350.889 362.464C351.318 363.125 351.761 363.779 352.174 364.451L353.433 366.456L354.654 368.485C354.854 368.824 355.062 369.16 355.26 369.501L355.846 370.531L356.436 371.557C356.63 371.901 356.83 372.243 357.014 372.589L358.142 374.672L358.422 375.192L358.694 375.72L359.233 376.773C359.966 378.171 360.63 379.603 361.318 381.024C361.654 381.739 361.966 382.464 362.294 383.181L362.777 384.261C362.937 384.621 363.084 384.989 363.236 385.355L364.137 387.541L364.977 389.755L365.396 390.861L365.782 391.981L366.27 393.411H366.366C366.308 391.469 366.244 389.528 366.166 387.589C365.972 382.603 365.721 377.621 365.409 372.643C365.1 367.661 364.734 362.688 364.31 357.717C364.054 354.757 363.774 351.797 363.473 348.843C362.524 349.459 361.534 349.979 360.542 350.323C353.966 352.595 346.87 349.909 346.87 349.909C349.897 346.949 353.617 344.605 357.897 343.155C359.5 342.611 361.118 342.216 362.737 341.96L362.414 339.107L361.958 335.392C361.926 335.109 361.886 334.824 361.852 334.541C355.729 341.024 349.212 343.837 349.212 343.837C350.588 336.885 353.508 330.123 358.041 324.069C358.692 323.203 359.364 322.456 360.062 321.827L359.868 320.573L359.577 318.725L359.268 316.883L358.956 315.037C358.852 314.421 358.75 313.805 358.636 313.195L357.966 309.512C357.857 308.899 357.737 308.288 357.614 307.675L357.252 305.84L356.892 304.005C356.769 303.392 356.633 302.784 356.505 302.173L356.436 301.848C356.033 301.741 346.105 299.075 337.969 290.573C333.822 286.237 330.382 285.011 327.182 286.624C333.574 278.976 339.217 278.44 344.641 283.707C350.036 288.949 353.964 295.133 356.414 301.744L355.724 298.515C355.062 295.552 354.35 292.6 353.601 289.659L353.564 289.683C353.564 289.683 353.572 289.651 353.588 289.603C353.108 287.728 352.617 285.859 352.1 283.995V283.997C352.1 283.997 343.388 273.683 335.99 257.899C328.196 241.269 327.95 226.672 327.95 226.672C335.766 233.592 342.193 242.331 346.518 252.597C350.844 262.864 352.609 273.568 352.1 283.995C352.622 285.843 353.116 287.699 353.601 289.555C353.921 288.467 356.42 280.301 361.972 270.984C368.257 260.44 376.246 254.832 376.246 254.832C375.345 261.752 372.913 268.587 368.852 274.827C364.804 281.045 359.561 286.021 353.622 289.645C354.388 292.587 355.11 295.539 355.785 298.501L356.574 302.16C356.705 302.771 356.841 303.379 356.964 303.989L357.329 305.824L357.692 307.661C357.814 308.272 357.937 308.883 358.046 309.499L358.724 313.179C359.23 316.029 359.702 318.885 360.15 321.747C364.305 318.067 369.353 318.643 375.74 324.216C372.326 323.125 369.124 324.875 365.705 329.808C364.518 331.517 363.246 333.053 361.956 334.429C362.278 336.931 362.582 339.435 362.868 341.941C365.521 341.536 368.172 341.504 370.756 341.819C370.886 341.757 367.612 346.109 363.59 348.765C363.886 351.744 364.166 354.723 364.42 357.707C364.836 362.68 365.196 367.656 365.497 372.635C365.913 379.555 366.233 386.48 366.406 393.411H366.596L366.697 391.645L366.734 391L366.753 390.68L366.782 390.357L366.9 389.072L367.017 387.789L367.078 387.147L367.158 386.507L367.476 383.947L367.516 383.624L367.564 383.307L367.665 382.669L367.865 381.395L368.062 380.12L368.297 378.851C368.457 378.005 368.604 377.157 368.774 376.315L369.31 373.792C370.79 367.069 372.726 360.453 374.988 353.957C376.132 350.712 377.342 347.491 378.636 344.301C379.932 341.115 381.292 337.955 382.721 334.827C384.62 330.68 386.622 326.581 388.764 322.557C382.982 318.488 377.996 313.096 374.305 306.52C370.604 299.925 368.601 292.837 368.15 285.763C373.95 289.835 378.953 295.24 382.652 301.835C386.334 308.397 388.337 315.443 388.804 322.477C389.881 320.456 390.99 318.451 392.145 316.472C391.278 317.96 390.454 319.467 389.641 320.984C389.361 321.507 389.086 322.032 388.812 322.56L388.814 322.592L388.798 322.581C388.281 323.571 387.769 324.565 387.265 325.563C385.713 328.629 384.222 331.731 382.801 334.861C381.724 337.24 380.681 339.635 379.678 342.048C382.289 340.984 384.993 340.157 387.726 339.464C390.484 338.763 393.281 338.224 396.102 337.832C397.513 337.648 398.929 337.504 400.348 337.397L401.414 337.333L401.948 337.301L402.481 337.283C402.836 337.269 403.19 337.253 403.548 337.245L404.614 337.229C404.969 337.221 405.326 337.227 405.681 337.232C406.036 337.237 406.393 337.235 406.748 337.248C407.46 337.277 408.172 337.288 408.881 337.344C410.3 337.427 411.716 337.592 413.124 337.776C419.793 335.373 427.094 334.392 434.62 335.16C442.142 335.931 449.092 338.371 455.137 342.075C455.278 342.072 452.604 343.555 448.766 345.037C444.422 346.715 438.588 348.395 433.66 347.92C422.062 346.803 413.124 337.776 413.124 337.776C411.71 337.613 410.297 337.469 408.876 337.408C408.166 337.36 407.457 337.349 406.745 337.325C406.39 337.315 406.036 337.317 405.681 337.315C405.326 337.312 404.969 337.307 404.614 337.317L403.55 337.339C403.193 337.349 402.838 337.368 402.484 337.381L401.953 337.403L401.42 337.437L400.356 337.509C398.94 337.621 397.526 337.773 396.118 337.963C393.302 338.341 390.505 338.864 387.748 339.549C386.366 339.891 384.996 340.269 383.638 340.691C382.305 341.099 380.977 341.536 379.678 342.048C379.361 342.811 379.046 343.576 378.737 344.344C377.452 347.533 376.249 350.755 375.113 354C372.838 360.488 370.889 367.096 369.396 373.811L368.854 376.331C368.684 377.173 368.534 378.021 368.374 378.864L368.137 380.133L367.934 381.405L367.732 382.68L367.63 383.317L367.58 383.635L367.54 383.955L367.204 386.512L367.121 387.152L367.057 387.792L366.932 389.077L366.806 390.36L366.774 390.68L366.753 391.003L366.713 391.645L366.601 393.411H392.796V402.352V402.749V445.901H340.302V393.411H366.265L365.766 391.987L365.374 390.869L364.948 389.765L364.092 387.56L363.177 385.379C363.02 385.016 362.876 384.648 362.716 384.288L362.228 383.211C361.902 382.493 361.585 381.771 361.249 381.056C360.558 379.637 359.892 378.208 359.153 376.813L358.612 375.763L358.342 375.235L358.06 374.715L356.926 372.637C356.742 372.291 356.542 371.949 356.345 371.608L355.756 370.581L355.166 369.557C354.969 369.216 354.761 368.88 354.558 368.541L353.334 366.517L352.073 364.517C351.657 363.845 351.214 363.195 350.782 362.533C350.348 361.875 349.918 361.213 349.468 360.565C347.769 358.035 345.982 355.563 344.15 353.125C342.764 352.965 341.372 352.885 339.98 352.835C338.558 352.779 337.137 352.771 335.713 352.8C334.233 352.829 332.753 352.907 331.278 353.027C330.462 353.763 329.702 354.555 328.974 355.376C328.428 355.995 327.897 356.629 327.39 357.283C330.356 359.184 332.953 361.76 334.934 364.952C336.929 368.163 338.089 371.659 338.47 375.181C335.484 373.277 332.862 370.688 330.868 367.477C328.892 364.293 327.737 360.832 327.345 357.341C327.169 357.568 326.998 357.797 326.833 358.029C326.657 358.253 326.494 358.488 326.332 358.72C326.172 358.955 326.001 359.184 325.846 359.424L325.382 360.139C325.302 360.256 325.228 360.379 325.156 360.501L324.934 360.864C324.334 361.832 323.812 362.845 323.297 363.861L323.654 363.085C323.774 362.827 323.892 362.565 324.025 362.315L324.425 361.557C324.553 361.304 324.708 361.061 324.846 360.813C325.414 359.821 326.054 358.875 326.726 357.952C327.401 357.032 328.129 356.149 328.9 355.307C329.286 354.885 329.684 354.477 330.092 354.08C330.476 353.717 330.862 353.36 331.268 353.027C329.913 353.136 328.561 353.28 327.214 353.461C325.806 353.651 324.401 353.877 323.006 354.144L321.961 354.36L321.438 354.467L320.918 354.589C320.574 354.669 320.225 354.747 319.881 354.832L318.849 355.096C318.662 355.141 318.476 355.192 318.292 355.245C315.657 357.579 312.473 359.376 308.862 360.416C305.23 361.459 301.55 361.624 298.057 361.032C300.702 358.675 303.908 356.861 307.54 355.816C311.132 354.781 314.766 354.611 318.222 355.176Z" fill="#F0F2F5"/>
<path d="M424.932 263.611C423.81 273.989 420.399 284.288 414.53 293.755C408.655 303.221 400.946 310.856 392.146 316.472C392.146 316.472 395.519 303.4 404.114 288.235C413.167 272.256 424.932 263.611 424.932 263.611Z" fill="#F0F2F5"/>
<path d="M386.625 326.965C391.711 322.027 397.959 318.123 405.132 315.725C412.305 313.325 419.641 312.685 426.676 313.568C421.588 318.501 415.34 322.403 408.169 324.803C400.996 327.203 393.657 327.845 386.625 326.965Z" fill="#F0F2F5"/>
<path d="M391.812 351.2C392.852 347.589 394.649 344.403 396.985 341.768C396.318 341.277 395.636 340.811 394.94 340.363C393.983 339.749 392.998 339.173 391.974 338.672C392.5 338.893 393.009 339.155 393.513 339.419C394.015 339.693 394.511 339.976 394.993 340.277C395.967 340.877 396.905 341.528 397.807 342.229C398.703 342.936 399.577 343.672 400.393 344.472C400.596 344.672 400.809 344.864 401.001 345.072L401.59 345.693C401.79 345.899 401.972 346.117 402.158 346.333L402.716 346.984C401.943 346.147 401.164 345.312 400.324 344.547L400.009 344.256C399.908 344.157 399.804 344.061 399.694 343.968L399.052 343.408C398.838 343.219 398.615 343.045 398.393 342.864C398.175 342.683 397.953 342.504 397.727 342.333C397.503 342.157 397.276 341.981 397.044 341.811C397.617 345.277 397.449 348.923 396.412 352.523C395.369 356.157 393.551 359.36 391.193 362.008C390.604 358.512 390.769 354.832 391.812 351.2Z" fill="#F0F2F5"/>
<path d="M420.414 374.832C421.745 371.504 420.222 368.184 415.545 364.424C406.182 356.901 402.716 346.984 402.716 346.984C409.553 348.848 416.092 352.237 421.812 357.189C427.529 362.136 427.481 367.805 420.414 374.832Z" fill="#F0F2F5"/>
<path d="M335.19 441.091H397.91V445.901H335.19V441.091Z" fill="#E1E6EB"/>
<path d="M340.303 403.045H392.796V404.091H340.303V403.045Z" fill="#E1E6EB"/>
<path d="M238.9 162.157L289.052 197.512C291.615 199.317 293.729 201.685 295.233 204.437L331.327 270.4C331.327 270.4 399.585 358.355 365.86 376.429C365.86 376.429 340.953 413.501 294.948 428.555C290.639 429.965 285.921 429.304 282.177 426.747L275.529 422.205L269.961 424.371C269.087 424.712 268.097 424.587 267.343 424.027C263.988 421.541 255.175 412.925 252.129 389.437C251.967 388.184 252.673 386.979 253.849 386.517L257.215 385.195L257.513 381.923C257.817 378.587 260.108 375.763 263.311 374.779L287.737 367.264C287.737 367.264 288.119 358.296 294.033 354.861L290.74 351.157C288.916 349.104 287.967 346.419 288.1 343.675L289.647 311.747L280.871 299.539L238.9 362.112L237.612 386.288L241.463 445.901H38.9028L40.7718 424.133C41.4585 416.136 43.2313 408.267 46.0406 400.747L82.0452 304.371C82.0452 304.371 49.4934 328.128 35.0057 294.968L29.0966 289.165C27.1161 287.221 26.0038 284.563 26.0177 281.787C26.0812 269.064 27.8382 230.851 45.1726 193.688C46.6345 190.555 49.582 188.373 53.0065 187.893L60.5572 186.832L62.3572 178.187C62.6246 176.901 63.431 175.795 64.575 175.152C67.6814 173.408 74.7316 170.541 85.7393 172.085L100.76 158.077C104.348 154.731 109.135 152.973 114.036 153.203L238.9 162.157Z" fill="#FF91A4"/>
<path d="M241.14 163.736L237.751 175.085C237.505 175.92 237.348 176.781 237.287 177.653L229.692 283.296C228.913 294.104 225.66 304.587 220.191 313.941C212.946 326.339 200.334 346.104 179.815 373.315C178.333 375.28 177.309 377.549 176.81 379.957L176.085 383.453C176.085 383.453 128.448 385.16 100.025 361.608C97.023 359.123 94.2372 356.357 91.7446 353.277L100.774 302.467L109.39 296.688C110.917 295.667 112.194 294.365 113.176 292.877C113.472 292.432 113.738 291.971 113.978 291.493L113.983 291.483L114.005 291.443V291.437H114.007C115.05 289.347 115.559 286.987 115.423 284.576L113.208 245.208L140.317 190.016L148.752 172.843C149.368 171.587 149.712 170.213 149.759 168.816L150.189 154.888L151.178 153.896C153.622 151.445 157.192 150.496 160.532 151.403C169.021 153.704 179.852 156.205 193.459 157.645C204.49 158.813 217.345 159.283 232.257 158.387C236.044 158.157 239.577 160.28 241.14 163.736Z" fill="#FFDEE4"/>
<path d="M226.017 117.24L227.567 156.307C227.647 158.288 228.751 160.083 230.481 161.045L235.575 163.872C235.575 163.872 186.264 205.856 157.039 156.8L166.64 155.872L167.419 120.824L226.017 117.24Z" fill="#FFC89F"/>
<path d="M176.086 383.453L174.547 445.901H81.584L91.7453 353.277C91.7453 353.277 115.231 381.563 176.086 383.453Z" fill="#1B1A2E"/>
<path d="M229.692 283.296C229.625 284.205 229.54 285.109 229.438 286.013C229.524 285.104 229.606 284.197 229.692 283.296Z" fill="#FFDEE4"/>
<mask id="mask0_23_9325" style="mask-type:luminance" maskUnits="userSpaceOnUse" x="151" y="151" width="7" height="3">
<path d="M151.22 153.853C153.046 152.045 155.49 151.067 157.995 151.067C155.49 151.069 153.046 152.045 151.22 153.853Z" fill="white"/>
</mask>
<g mask="url(#mask0_23_9325)">
<path d="M151.22 153.853H160.532V151.065H151.22V153.853Z" fill="#92A2B3"/>
</g>
<path d="M194.723 262.771C191.122 262.771 185.218 261.088 182.984 250.72C182.984 250.72 183.174 257.077 185.485 259.768C185.485 259.768 185.209 259.829 184.752 259.829C183.058 259.829 178.878 259 177.04 251.192C177.04 251.192 176.538 253.717 177.239 256.693C177.239 256.693 173.11 255.541 173.411 249.536C173.411 249.536 172.67 252.931 173.742 255.723C173.531 255.568 164.883 249.109 170.004 240.067C175.184 230.917 188.753 230.797 190.612 216.456C186.613 217.011 182.867 218.221 178.9 219.144C176.818 219.624 174.661 219.955 172.452 220.048C172.148 220.059 171.844 220.067 171.538 220.067C170.732 220.067 169.919 220.019 169.109 219.896C167.994 219.723 166.89 219.395 165.869 218.907C164.848 218.419 163.913 217.781 163.089 217.048C162.265 216.315 161.548 215.488 160.898 214.616C159.613 212.875 158.474 210.915 157.877 208.752C157.579 207.675 157.437 206.563 157.416 205.456C157.381 204.352 157.458 203.251 157.61 202.165C157.768 201.08 157.994 200.011 158.328 198.971C158.637 197.957 159.024 196.968 159.538 196.035C158.768 196.251 154.916 197.259 150.855 197.259C146.046 197.259 140.944 195.843 140.317 190.016L148.752 172.843C149.368 171.587 149.712 170.213 149.759 168.816L150.189 154.888L151.178 153.896C151.192 153.883 151.206 153.869 151.22 153.853C153.046 152.045 155.49 151.069 157.996 151.067C157.998 151.067 158 151.067 158.003 151.067C158.004 151.067 158.004 151.067 158.005 151.067C158.824 151.067 159.65 151.171 160.462 151.384C160.485 151.392 160.509 151.397 160.532 151.403C162.466 151.928 164.522 152.461 166.704 152.992L166.64 155.872L157.039 156.8C167.816 174.891 181.324 180.6 194.084 180.6C195.835 180.6 197.573 180.493 199.286 180.293C199.11 182.115 198.813 183.816 198.47 185.331C199.009 183.632 199.485 181.925 199.888 180.221C200.726 180.115 201.559 179.987 202.385 179.837C201.862 182.083 201.031 184.227 200.046 186.267C199.006 188.395 197.796 190.421 196.362 192.293C197.695 192.845 211.472 198.773 207.806 207.048C207.806 207.048 204 195.707 196.972 193.437C196.972 193.437 213.844 205.459 201.67 224.739C201.67 224.739 203.938 232.627 197.543 241.915C195.389 245.04 194.714 249.016 196.037 252.573C196.744 254.483 197.944 256.005 199.968 256.005C201.338 256.005 203.086 255.307 205.314 253.56C205.314 253.56 204.793 261.267 198.807 261.267C197.85 261.267 196.754 261.072 195.498 260.613C195.554 260.677 196.474 261.723 197.655 262.381C197.655 262.381 196.456 262.771 194.723 262.771ZM159.477 206.843C159.522 207.365 159.573 207.888 159.629 208.408C159.738 209.416 159.895 210.427 160.172 211.419C160.455 212.405 160.868 213.368 161.449 214.227C162.596 215.952 164.366 217.237 166.314 217.717C167.282 217.979 168.279 218.072 169.276 218.096C169.459 218.101 169.642 218.104 169.826 218.104C170.536 218.104 171.25 218.061 171.966 217.992C171.886 217.992 171.806 217.995 171.726 217.995C163.653 217.995 160.456 212.653 159.477 206.843Z" fill="#142E4F"/>
<path d="M194.084 180.6C181.324 180.6 167.816 174.891 157.039 156.8L166.64 155.872L166.704 152.992C174.1 154.789 182.952 156.533 193.459 157.645C194.362 158.352 195.234 159.109 196.074 159.912C197.761 161.603 199.315 163.387 200.552 165.451C201.8 167.493 202.675 169.859 202.896 172.296C203.01 173.512 203.037 174.733 202.952 175.947C202.88 177.157 202.717 178.36 202.453 179.536C202.431 179.637 202.408 179.739 202.385 179.837C201.559 179.987 200.726 180.115 199.887 180.221C199.98 179.827 200.07 179.432 200.155 179.035C200.616 176.848 200.979 174.637 200.926 172.419C200.859 170.219 200.614 167.968 199.731 165.869C198.857 163.779 197.346 161.936 195.447 160.669C194.981 160.344 194.482 160.051 194.002 159.749C193.715 159.587 193.429 159.427 193.144 159.261C199.007 165.872 199.91 173.843 199.286 180.293C197.573 180.493 195.835 180.6 194.084 180.6Z" fill="#A58C79"/>
<path d="M267.801 319.021L270.374 309.715C271.518 305.573 271.596 301.211 270.598 297.029L265.844 277.091L280.87 299.539L267.801 319.021Z" fill="#E17487"/>
<path d="M300.839 351.339L314.095 339.933C316.268 338.064 319.015 337.072 321.812 337.072C322.898 337.072 323.991 337.221 325.063 337.528L337.036 340.949C334.786 340.389 332.7 340.176 330.826 340.176C324.863 340.176 321.066 342.339 321.066 342.339L300.839 351.339ZM338.868 341.475L337.036 340.949C337.636 341.099 338.247 341.272 338.868 341.475Z" fill="#E17487"/>
<path d="M213.359 445.901H174.547L176.086 383.453H176.085L176.81 379.957C177.308 377.549 178.332 375.28 179.815 373.315C200.334 346.104 212.946 326.339 220.191 313.941C222.807 309.467 224.916 304.733 226.489 299.829C226.492 299.827 226.492 299.819 226.495 299.813C226.497 299.803 226.5 299.795 226.505 299.784C226.508 299.768 226.513 299.755 226.519 299.741C226.519 299.741 226.519 299.741 226.519 299.739C227.929 295.32 228.908 290.763 229.428 286.133C222.831 357.245 213.359 445.901 213.359 445.901Z" fill="#E17487"/>
<path d="M226.505 299.784C226.508 299.771 226.513 299.755 226.519 299.741C226.513 299.755 226.508 299.768 226.505 299.784ZM226.519 299.739C227.943 295.283 228.921 290.685 229.439 286.013C229.436 286.051 229.433 286.093 229.428 286.133C228.908 290.763 227.929 295.32 226.519 299.739Z" fill="#1B3048"/>
<path d="M174.547 445.901L176.085 383.453C176.086 383.453 176.086 383.453 176.086 383.453L174.547 445.901" fill="#171320"/>
<path d="M113.961 258.6L113.208 245.208L134.228 202.411L113.961 258.6Z" fill="#142E4F"/>
<path d="M91.7452 353.28L91.7446 353.277C91.7446 353.277 91.7452 353.277 91.7452 353.28L91.7454 353.277L91.7452 353.28Z" fill="#A17215"/>
<path d="M98.5742 359.525C93.8942 355.864 91.7454 353.277 91.7454 353.277C91.7452 353.277 91.7446 353.277 91.7446 353.277L100.774 302.467L109.39 296.688C110.641 295.851 111.724 294.827 112.614 293.667C109.097 298.571 102.615 307.221 99.4889 324.264C94.4006 352 98.5364 359.459 98.5742 359.525Z" fill="#142E4F"/>
<path d="M98.5744 359.525C94.1624 356.077 92.0006 353.579 91.7659 353.304L91.7451 353.28L91.7454 353.277C91.7454 353.277 93.8942 355.864 98.5742 359.525C98.5744 359.525 98.5744 359.525 98.5744 359.525Z" fill="#111223"/>
<path d="M112.614 293.667C112.811 293.392 112.999 293.128 113.176 292.877C112.998 293.147 112.811 293.408 112.614 293.667Z" fill="#A17215"/>
<path d="M114.004 291.443V291.437H114.007L114.004 291.443Z" fill="#142E4F"/>
<path d="M313.055 369.405C312.825 369.237 312.596 369.069 312.367 368.907C312.82 369.211 313.055 369.405 313.055 369.405ZM312.367 368.907C310.695 367.781 306.041 365.149 299.097 365.149C296.425 365.149 293.415 365.539 290.103 366.555C290.103 366.555 291.068 365.2 292.633 363.616C294.151 362.083 296.177 361.285 298.228 361.285C299.58 361.285 300.943 361.629 302.175 362.339C304.887 363.901 308.532 366.144 312.367 368.907Z" fill="#E17487"/>
<path d="M241.463 445.901H232.793L234.708 423.195L240.001 423.269L241.463 445.901Z" fill="#E17487"/>
<path d="M57.2557 445.901H49.7607L69.4354 366.963C62.0407 398.144 57.2557 445.901 57.2557 445.901Z" fill="#E17487"/>
<path d="M289.647 311.747L283.316 302.939L284.601 303.067C284.743 303.08 284.887 303.085 285.028 303.085C287.1 303.085 288.916 301.611 289.305 299.533L291.143 289.733L289.647 311.747Z" fill="#E17487"/>
<path d="M77.0821 220.176C74.2283 220.176 71.3931 219.181 69.1296 217.24C66.6133 215.083 63.9328 212.029 61.8677 207.8C63.6779 211.2 68.9123 216.155 77.4352 216.155C82.5485 216.155 88.8451 214.373 96.2981 209.397C96.2981 209.397 90.4968 214.296 83.2277 218.52C81.3192 219.629 79.1955 220.176 77.0821 220.176ZM61.8677 207.8C61.7235 207.528 61.6008 207.267 61.5 207.019C61.6203 207.283 61.7429 207.544 61.8677 207.8Z" fill="#E17487"/>
<path d="M229.692 283.296L227.844 303.64L225.905 323.976L221.911 364.637L217.708 405.277L215.569 425.595L213.361 445.901L217.532 405.259L221.647 364.611L225.732 323.96L229.692 283.296Z" fill="#A65B3C"/>
<path d="M238.9 362.112L239.892 338.272L240.924 314.432L242.991 266.752L245.148 219.08L246.225 195.24L246.372 192.261C246.433 191.269 246.516 190.275 246.633 189.288C246.865 187.312 247.215 185.347 247.665 183.411L250.324 171.779L247.729 183.427C247.287 185.363 246.951 187.325 246.732 189.299C246.62 190.285 246.54 191.277 246.484 192.269L246.356 195.248L245.324 219.085L243.257 266.765L241.1 314.44L240.02 338.277L238.9 362.112Z" fill="#A65B3C"/>
<path d="M100.356 206.259C100.585 204.019 100.843 201.781 101.105 199.547L101.924 192.843C101.99 192.283 102.09 191.725 102.106 191.179C102.123 190.627 102.068 190.072 101.94 189.536C101.688 188.459 101.154 187.451 100.404 186.637C99.6319 185.832 98.7967 185.069 97.9453 184.339C97.0959 183.603 96.2095 182.909 95.3042 182.24C97.1802 183.488 98.9426 184.904 100.554 186.496C101.353 187.317 101.904 188.368 102.176 189.48C102.313 190.035 102.375 190.611 102.36 191.184C102.346 191.763 102.251 192.317 102.188 192.877L101.307 199.573C101.003 201.803 100.694 204.032 100.356 206.259Z" fill="#A65B3C"/>
<path d="M113.208 245.208L112.714 239.859L112.248 234.507L111.36 223.803C111.285 222.912 111.231 222.011 111.141 221.131C111.031 220.251 110.831 219.384 110.535 218.547C109.943 216.875 108.971 215.347 107.728 214.075L104.032 210.176L100.356 206.259L104.126 210.085L107.875 213.933C109.159 215.197 110.15 216.765 110.763 218.467C111.07 219.317 111.278 220.203 111.394 221.099C111.49 222 111.548 222.885 111.626 223.781L112.452 234.491L112.844 239.848L113.208 245.208Z" fill="#A65B3C"/>
<path d="M60.2916 188.704C60.0038 189.944 59.8132 191.205 59.6742 192.469C59.5382 193.733 59.4641 195.005 59.4614 196.277C59.451 198.816 59.7121 201.368 60.4052 203.811C61.0945 206.245 62.2393 208.571 63.9169 210.467C65.5836 212.373 67.7694 213.779 70.135 214.664C72.5001 215.568 75.0358 216.003 77.5678 215.995C80.1038 215.995 82.6273 215.557 85.0617 214.845C87.498 214.128 89.8476 213.125 92.0881 211.923C94.3289 210.725 96.4865 209.352 98.4676 207.752C96.5142 209.387 94.3782 210.8 92.1516 212.04C89.9161 213.267 87.5665 214.299 85.1217 215.045C82.6788 215.789 80.1305 216.227 77.5686 216.24C75.0102 216.253 72.4374 215.829 70.0414 214.912C68.8422 214.459 67.6897 213.872 66.623 213.16C65.5577 212.443 64.5828 211.589 63.7364 210.624C62.0385 208.693 60.878 206.331 60.2116 203.864C59.5366 201.392 59.2948 198.824 59.3348 196.275C59.3585 195 59.454 193.725 59.611 192.461C59.7716 191.197 59.9833 189.939 60.2916 188.704Z" fill="#A65B3C"/>
<path d="M105.866 211.989L105.801 206.805L105.764 201.624L105.732 191.256L105.763 180.891L105.8 175.707L105.866 170.523L105.931 175.707L105.968 180.891L105.999 191.256L105.968 201.624L105.931 206.805L105.866 211.989Z" fill="#A65B3C"/>
<path d="M111.756 227.08L115.13 221.237L118.528 215.408L125.361 203.771L132.247 192.168L135.709 186.376L139.195 180.6L135.821 186.443L132.423 192.272L125.59 203.907L118.704 215.512L115.242 221.301L111.756 227.08Z" fill="#A65B3C"/>
<path d="M85.0024 302.291L86.7606 301.083L87.64 300.48L88.4795 299.824L90.1611 298.515L91.7614 297.109C92.0264 296.872 92.2982 296.645 92.5574 296.403L93.3211 295.661C93.8259 295.163 94.3499 294.683 94.839 294.168L96.2918 292.611C96.412 292.48 96.5358 292.352 96.6534 292.219L96.9987 291.813L97.6891 291.005C99.5355 288.848 101.246 286.573 102.822 284.211L103.98 282.421C104.346 281.813 104.725 281.211 105.081 280.597C105.805 279.373 106.486 278.125 107.114 276.848C105.949 279.445 104.534 281.928 102.994 284.323C101.448 286.717 99.7296 288.997 97.8923 291.176L97.1942 291.987L96.8451 292.392C96.7262 292.525 96.6016 292.651 96.48 292.781L95.0126 294.336C94.5187 294.851 93.9894 295.328 93.4798 295.827L92.7078 296.565C92.4432 296.805 92.1664 297.029 91.8963 297.261L90.267 298.645L88.5571 299.928L87.6982 300.563L86.8 301.141L85.0024 302.291Z" fill="#A65B3C"/>
<path d="M34.5567 291.437C34.2322 287.947 33.9495 284.448 33.8199 280.941L33.7583 279.629L33.722 278.312L33.654 275.683C33.6348 273.928 33.6007 272.176 33.6122 270.421C33.6316 266.912 33.7015 263.405 33.8647 259.901C33.9476 258.149 34.0442 256.397 34.1591 254.648C34.2863 252.899 34.425 251.149 34.5983 249.405C34.4682 251.155 34.3732 252.904 34.2892 254.656C34.2012 256.405 34.1274 258.157 34.0695 259.909C33.9492 263.413 33.8772 266.917 33.8783 270.421C33.8591 272.173 33.8852 273.925 33.8962 275.68L33.9519 278.307C33.9682 279.184 33.9914 280.059 34.0239 280.936L34.1122 283.563L34.2436 286.189L34.3042 287.501L34.3884 288.813L34.5567 291.437Z" fill="#A65B3C"/>
<path d="M100.773 302.467C100.088 302.904 99.3942 303.328 98.7051 303.76C98.3582 303.971 98.0145 304.184 97.6574 304.387C97.2974 304.584 96.9291 304.765 96.5494 304.92C95.0294 305.541 93.3553 305.776 91.7169 305.632C90.0974 305.443 88.4883 305.248 86.8753 305.04L84.4587 304.72C83.6545 304.603 82.8491 304.496 82.0454 304.371C82.8561 304.435 83.6646 304.517 84.4739 304.589L86.8993 304.835L91.7419 305.368C93.3393 305.531 94.9702 305.299 96.4745 304.731C96.8515 304.589 97.2182 304.421 97.5779 304.24C97.9331 304.051 98.2854 303.845 98.6393 303.648C99.3505 303.253 100.057 302.853 100.773 302.467Z" fill="#A65B3C"/>
<path d="M57.2559 445.901C58.3799 433.928 59.9063 421.992 61.67 410.096C63.4377 398.197 65.4764 386.341 67.7732 374.536L69.5852 365.696L69.8124 364.592L70.0596 363.493L70.5537 361.291L71.542 356.891L72.5334 352.491L73.615 348.112L74.6964 343.733L75.2369 341.541L75.5097 340.448L75.8065 339.36C78.8495 327.723 82.3887 316.219 86.4071 304.883L83.5455 313.435L82.8303 315.573C82.7127 315.931 82.5886 316.285 82.4761 316.643L82.154 317.723L80.8655 322.045L79.5676 326.363L78.919 328.523L78.3308 330.699L75.978 339.405L75.6841 340.493L75.4143 341.587L74.879 343.779L73.8092 348.157L72.739 352.539L71.7588 356.939L70.7817 361.341L70.2932 363.544L70.0489 364.643L69.8247 365.747L68.0343 374.587C65.7089 386.384 63.6417 398.232 61.8449 410.123L61.1876 414.584C60.9687 416.069 60.7444 417.557 60.5479 419.048C60.1484 422.027 59.7172 425.003 59.3511 427.987L58.774 432.459L58.2367 436.936C57.8844 439.923 57.5524 442.909 57.2559 445.901Z" fill="#A65B3C"/>
<path d="M290.292 202.731C289.393 206.24 288.593 209.773 287.849 213.32C287.463 215.088 287.116 216.867 286.748 218.64L285.735 223.979C284.436 231.104 283.369 238.272 282.516 245.464C281.604 252.651 281.02 259.875 280.655 267.107L280.441 272.536C280.396 274.347 280.409 276.157 280.388 277.968L280.361 280.685C280.367 281.589 280.404 282.496 280.425 283.4L280.569 288.832C280.231 281.597 280.105 274.341 280.479 267.099C280.812 259.861 281.367 252.627 282.252 245.432C283.135 238.237 284.233 231.072 285.559 223.947C286.887 216.821 288.423 209.733 290.292 202.731Z" fill="#A65B3C"/>
<path d="M210.947 324.557C203.518 330.661 195.659 336.235 187.545 341.395C179.424 346.541 171.015 351.256 162.263 355.259C160.07 356.248 157.857 357.189 155.624 358.083C153.389 358.973 151.13 359.8 148.852 360.576C146.575 361.352 144.268 362.037 141.946 362.667C139.625 363.296 137.277 363.832 134.913 364.275C130.187 365.173 125.373 365.648 120.561 365.568C115.752 365.459 110.946 364.728 106.373 363.237C110.96 364.688 115.764 365.371 120.563 365.437C125.365 365.499 130.166 365.011 134.879 364.099C137.238 363.651 139.579 363.109 141.894 362.475C144.21 361.84 146.51 361.147 148.781 360.365C151.052 359.584 153.305 358.752 155.533 357.856C157.76 356.957 159.966 356.008 162.153 355.016C170.903 351.048 179.319 346.363 187.451 341.245C191.517 338.685 195.508 336.005 199.428 333.224C203.349 330.448 207.216 327.589 210.947 324.557Z" fill="#1B1A2E"/>
<path d="M123.278 386.523C122.71 388.96 122.188 391.408 121.689 393.861L120.947 397.541L120.244 401.229C119.327 406.152 118.494 411.088 117.766 416.04C117.587 417.277 117.387 418.515 117.223 419.755L116.726 423.475C116.557 424.715 116.429 425.96 116.279 427.203C116.134 428.445 115.981 429.688 115.863 430.933L115.484 434.667L115.178 438.411L115.019 440.28L114.903 442.155L114.674 445.901C114.868 440.899 115.147 435.896 115.659 430.912C116.148 425.928 116.762 420.955 117.502 416C118.252 411.048 119.083 406.107 120.043 401.192C121.001 396.277 122.061 391.379 123.278 386.523Z" fill="#FFDEE4"/>
<path d="M90.0464 368.763C91.4211 370.075 92.9221 371.248 94.4512 372.371C95.9872 373.488 97.5632 374.549 99.1803 375.544C102.404 377.552 105.764 379.336 109.203 380.944C116.09 384.144 123.299 386.635 130.662 388.48C134.334 389.448 138.059 390.2 141.795 390.875C143.669 391.176 145.539 391.512 147.424 391.744L150.247 392.12L153.08 392.419C154.966 392.645 156.863 392.755 158.756 392.909C159.702 392.995 160.651 393.032 161.599 393.08L164.445 393.219C166.343 393.293 168.242 393.323 170.141 393.376L175.841 393.363L170.141 393.44C168.241 393.408 166.34 393.403 164.44 393.349L161.592 393.221C160.643 393.179 159.693 393.144 158.745 393.064C156.85 392.915 154.951 392.813 153.062 392.597L150.225 392.307L147.397 391.941C145.509 391.717 143.635 391.389 141.757 391.093C138.013 390.432 134.278 389.696 130.597 388.739C123.226 386.859 116.013 384.336 109.128 381.101C105.69 379.477 102.33 377.683 99.1115 375.656C97.5035 374.64 95.9371 373.56 94.4125 372.424C92.8949 371.28 91.4061 370.091 90.0464 368.763Z" fill="#FFDEE4"/>
<path d="M136.882 395.179C136.573 397.283 136.289 399.392 136.012 401.499C135.729 403.608 135.455 405.715 135.192 407.827C134.663 412.045 134.156 416.267 133.704 420.496C133.462 422.608 133.249 424.723 133.026 426.837C132.823 428.955 132.609 431.069 132.418 433.187L132.127 436.363L131.865 439.541C131.671 441.659 131.532 443.781 131.363 445.901C131.488 443.779 131.585 441.653 131.735 439.533L131.96 436.349L132.214 433.171C132.561 428.931 132.982 424.696 133.44 420.467C133.914 416.24 134.417 412.013 134.99 407.8C135.277 405.691 135.574 403.587 135.883 401.483C136.204 399.379 136.531 397.277 136.882 395.179Z" fill="#FFDEE4"/>
<path d="M129.215 293.827C127.908 293.744 126.613 293.504 125.34 293.187C124.067 292.864 122.825 292.424 121.617 291.909L120.723 291.493L119.855 291.024C119.561 290.877 119.288 290.691 119.008 290.52C118.731 290.341 118.444 290.181 118.188 289.973C117.105 289.224 116.155 288.301 115.301 287.312L116.01 287.989C116.128 288.101 116.242 288.219 116.364 288.325L116.745 288.632C116.999 288.837 117.242 289.053 117.503 289.245L118.305 289.803C119.393 290.512 120.522 291.165 121.724 291.664C122.911 292.197 124.142 292.627 125.394 292.989C126.02 293.168 126.651 293.331 127.289 293.467C127.925 293.616 128.568 293.728 129.215 293.827Z" fill="#1B1A2E"/>
<path d="M221.503 296.035C219.079 297.445 216.481 298.549 213.831 299.467C212.502 299.928 211.151 300.315 209.787 300.653C208.424 300.992 207.045 301.275 205.655 301.48C204.263 301.68 202.864 301.832 201.459 301.885C200.055 301.944 198.646 301.955 197.244 301.837C194.439 301.659 191.663 301.091 189.007 300.195C190.357 300.571 191.709 300.941 193.093 301.157L193.609 301.251L194.129 301.323L195.168 301.464C195.864 301.525 196.559 301.611 197.257 301.635C200.048 301.795 202.853 301.64 205.615 301.216C208.383 300.821 211.104 300.133 213.764 299.275C215.095 298.843 216.407 298.355 217.7 297.816C218.996 297.285 220.268 296.696 221.503 296.035Z" fill="#1B1A2E"/>
<path d="M235.065 175.627C233.905 176.557 232.676 177.403 231.439 178.229C230.809 178.629 230.185 179.035 229.548 179.419C228.905 179.795 228.273 180.192 227.62 180.552C226.967 180.912 226.324 181.288 225.66 181.627L223.668 182.643L221.647 183.592C221.311 183.755 220.967 183.901 220.625 184.045L219.596 184.483L218.564 184.915L217.519 185.309C216.82 185.568 216.127 185.84 215.423 186.085C214.001 186.539 212.599 187.048 211.151 187.405L210.073 187.699C209.712 187.792 209.356 187.901 208.99 187.973L206.808 188.453C206.443 188.528 206.082 188.621 205.714 188.677L204.611 188.853L202.405 189.2C205.331 188.659 208.251 188.08 211.095 187.208C212.53 186.819 213.929 186.32 215.343 185.856C216.041 185.608 216.732 185.333 217.428 185.072L218.468 184.675L219.492 184.237L220.521 183.805C220.863 183.664 221.207 183.52 221.54 183.36L223.564 182.424L225.553 181.421C226.217 181.085 226.863 180.72 227.521 180.373C230.124 178.941 232.665 177.384 235.065 175.627Z" fill="#1B1A2E"/>
<path d="M294.033 354.861C297.908 352.715 301.857 350.701 305.857 348.797C309.855 346.885 313.905 345.088 318.009 343.413C319.041 343.005 320.063 342.579 321.103 342.192C322.14 341.805 323.161 341.381 324.228 341.048C326.353 340.389 328.583 340.048 330.807 340.067C331.919 340.075 333.031 340.165 334.129 340.339C335.228 340.504 336.303 340.792 337.377 341.051L343.825 342.656L337.348 341.179C336.268 340.931 335.196 340.659 334.103 340.504C333.012 340.344 331.908 340.267 330.807 340.272C328.604 340.285 326.401 340.616 324.3 341.28C323.252 341.611 322.228 342.04 321.193 342.429C320.159 342.821 319.137 343.251 318.111 343.659C314.004 345.312 309.959 347.112 305.943 348.981C303.935 349.912 301.94 350.872 299.956 351.853C297.969 352.829 295.991 353.824 294.033 354.861Z" fill="#A65B3C"/>
<path d="M289.646 311.747L290.316 301.259C290.532 297.763 290.756 294.267 290.948 290.768C291.161 287.272 291.345 283.773 291.532 280.275L292.068 269.779L291.932 275.032C291.873 276.784 291.809 278.536 291.737 280.285C291.593 283.787 291.406 287.285 291.212 290.784C290.998 294.28 290.78 297.779 290.521 301.272L290.113 306.512L289.646 311.747Z" fill="#A65B3C"/>
<path d="M280.87 299.539C279.572 297.699 278.297 295.843 277.028 293.984L273.246 288.389L269.516 282.76L267.668 279.933L265.844 277.091L267.774 279.861L269.684 282.645L273.468 288.24L277.198 293.869C278.433 295.752 279.662 297.637 280.87 299.539Z" fill="#A65B3C"/>
<path d="M297.572 350.859C298.27 349.683 299.038 348.552 299.812 347.424C300.601 346.309 301.412 345.208 302.249 344.128C303.921 341.965 305.694 339.88 307.553 337.875L308.249 337.123L308.966 336.387C309.449 335.901 309.918 335.405 310.406 334.928C311.396 333.984 312.358 333.013 313.396 332.117C313.908 331.667 314.406 331.197 314.932 330.76L316.508 329.448C317.028 329.008 317.574 328.597 318.118 328.184L319.75 326.944C317.628 328.664 315.516 330.395 313.532 332.269C312.521 333.184 311.556 334.149 310.577 335.099C310.092 335.579 309.628 336.077 309.15 336.565L308.441 337.301L307.748 338.053C305.878 340.04 304.113 342.123 302.409 344.253C300.708 346.387 299.073 348.576 297.572 350.859Z" fill="#A65B3C"/>
<path d="M290.103 366.555C291.975 365.853 293.951 365.443 295.94 365.203C297.932 364.971 299.948 364.963 301.948 365.163C302.943 365.277 303.935 365.443 304.913 365.669C305.887 365.909 306.857 366.176 307.793 366.544C309.671 367.251 311.444 368.224 313.055 369.405C312.209 368.872 311.364 368.341 310.463 367.912C309.58 367.453 308.657 367.072 307.721 366.736C306.785 366.403 305.828 366.133 304.86 365.904C303.889 365.688 302.905 365.533 301.919 365.427C299.943 365.208 297.943 365.219 295.961 365.405C294.969 365.499 293.983 365.643 293.004 365.832C292.025 366.016 291.055 366.251 290.103 366.555Z" fill="#A65B3C"/>
<path d="M275.529 418.493C275.087 417.005 274.681 415.509 274.228 414.024L273.497 411.816C273.252 411.083 273.025 410.341 272.735 409.621C272.172 408.176 271.663 406.712 271.023 405.299L270.567 404.232C270.412 403.875 270.268 403.517 270.092 403.171L269.084 401.077C267.7 398.307 266.159 395.613 264.407 393.056L263.74 392.104L263.407 391.629L263.055 391.168L262.351 390.243C262.113 389.936 261.86 389.645 261.615 389.344C260.631 388.149 259.588 386.995 258.431 385.96C259.628 386.949 260.695 388.091 261.716 389.259C261.967 389.557 262.225 389.845 262.468 390.149L263.188 391.067L263.551 391.523L263.892 391.995L264.575 392.939C266.369 395.48 267.916 398.187 269.321 400.96L270.324 403.064C270.497 403.413 270.641 403.773 270.793 404.131L271.247 405.205C271.879 406.627 272.393 408.093 272.927 409.552C273.207 410.277 273.423 411.024 273.657 411.765L274.353 413.987C274.764 415.485 275.145 416.992 275.529 418.493Z" fill="#A65B3C"/>
<path d="M132.363 396.976C132.363 399.163 130.591 400.936 128.405 400.936C126.219 400.936 124.448 399.163 124.448 396.976C124.448 394.792 126.219 393.019 128.405 393.019C130.591 393.019 132.363 394.792 132.363 396.976Z" fill="#FFDEE4"/>
<path d="M110.72 108.333L106.508 110.861C103.901 106.568 104.106 97.4453 104.106 97.4453C105.844 94.8693 106.833 90.3413 106.833 90.3413C108.782 92.7707 112.229 94.48 112.229 94.48C112.256 96.4667 113.207 99.3893 113.207 99.3893L110.72 108.333ZM124.801 95.5253L121.44 91.9013L120.157 87.0187C119.576 84.8107 116.788 84.0693 115.212 85.7253C115.175 85.7653 115.156 85.7867 115.156 85.7867L111.371 81.616C110.667 80.8507 109.686 80.3973 108.649 80.352L100.073 79.9867C98.6518 79.9253 97.3454 80.7653 96.807 82.08L93.4427 90.3333L92.904 89.92C92.1016 89.3067 91.5659 88.4053 91.4086 87.4053C87.5723 62.8373 82.4832 50.5867 80.1214 45.912C79.5694 44.8187 78.4603 44.1654 77.2846 44.1654C76.9915 44.1654 76.6902 44.208 76.3942 44.2933C74.792 44.7653 73.835 46.3947 74.1896 48.0267C78.0283 65.6587 79.524 89.824 79.524 89.824L77.8392 84.296C77.2262 82.28 76.3704 80.344 75.2907 78.5307C70.3614 70.2453 66.4398 65.7573 64.2432 63.48C63.6435 62.856 62.8275 62.5254 61.9984 62.5254C61.5827 62.5254 61.1614 62.608 60.7643 62.7787C58.9408 63.56 58.2928 65.8267 59.4392 67.4454C67.9248 79.416 70.7374 96.9653 70.7374 96.9653L67.0984 100.608L57.2078 100.685L50.0072 98.152C45.0888 93.56 41.6179 93.488 39.4344 94.4453C37.7096 95.2027 37.5736 97.6053 39.1864 98.5813L40.7515 99.5253L44.8702 103.304C45.1555 103.565 45.4702 103.789 45.8086 103.973L54.7179 108.795C55.0566 108.979 55.419 109.12 55.7923 109.216L62.8491 111.016C64.4859 111.435 65.8107 112.637 66.3838 114.224L73.467 133.883C74.051 135.504 74.1976 137.248 73.899 138.941L72.4648 147.027C72.3448 147.699 72.1475 148.349 71.8755 148.968C71.6064 149.589 71.2598 150.176 70.8494 150.717C69.631 152.328 69.0152 154.317 69.1166 156.336L69.303 160.157C69.3376 160.88 69.2816 161.603 69.1379 162.312L65.4667 180.136C73.835 206.051 94.4664 189.795 94.4664 189.795C95.7166 170.541 104.871 147.541 104.871 147.541L109.07 142.155C110.27 140.619 111.275 138.949 112.072 137.171L119.638 120.277C120.536 118.275 121.157 116.157 121.482 113.987L122.29 108.611L125.681 100.456C126.377 98.7813 126.033 96.856 124.801 95.5253Z" fill="#FFC89F"/>
<path d="M261.455 415.939C261.455 415.939 257.929 424.128 234.708 423.195L237.612 386.288L248.081 394.581L253.265 393.339C253.265 393.339 256.063 407.333 261.455 415.939Z" fill="#FFC89F"/>
<path d="M250.441 130.104C250.441 130.104 249.324 140.267 238.801 136.515C238.801 136.515 242.287 135.093 243.879 132.432C243.879 132.432 237.047 140.211 225.449 134.275L238.023 74.4774C238.023 74.4774 263.3 98.2027 250.441 130.104Z" fill="#1B1A2E"/>
<path d="M201.284 149.291C181.216 150.875 163.663 135.891 162.078 115.821L158.573 71.432C156.988 51.3627 171.972 33.8107 192.04 32.2267C212.109 30.6427 229.663 45.6267 231.247 65.6933L234.751 110.083C236.337 130.152 221.353 147.704 201.284 149.291Z" fill="#FFC89F"/>
<path d="M201.284 149.291C198.172 149.803 194.957 149.792 191.806 149.317C191.017 149.211 190.239 149.032 189.456 148.877C188.676 148.709 187.913 148.469 187.14 148.267C186.75 148.176 186.382 148.019 186.004 147.888L184.875 147.485C184.127 147.205 183.404 146.859 182.667 146.549C181.942 146.213 181.248 145.813 180.538 145.448C179.84 145.059 179.167 144.627 178.487 144.208C177.823 143.765 177.187 143.28 176.537 142.819C175.904 142.333 175.304 141.805 174.694 141.293C172.313 139.179 170.24 136.72 168.646 133.997C170.686 136.4 172.914 138.592 175.353 140.507C175.981 140.963 176.592 141.437 177.219 141.888C177.867 142.312 178.499 142.757 179.157 143.16C179.829 143.539 180.477 143.96 181.158 144.323C181.849 144.667 182.524 145.043 183.226 145.36C183.933 145.667 184.625 146.011 185.344 146.291C186.069 146.552 186.785 146.845 187.518 147.085C188.256 147.307 188.985 147.571 189.734 147.763L190.86 148.04C191.236 148.131 191.606 148.253 191.989 148.312C195.02 148.96 198.131 149.259 201.284 149.291Z" fill="#FF9A6C"/>
<path d="M232.169 126.728C232.03 127.216 231.884 127.704 231.726 128.189L231.486 128.917L231.19 129.624L230.569 131.029C230.332 131.483 230.078 131.925 229.83 132.376C229.705 132.6 229.588 132.829 229.454 133.048L229.03 133.688C228.742 134.112 228.473 134.552 228.166 134.963C227.86 135.373 227.537 135.773 227.222 136.179C226.91 136.587 226.558 136.96 226.228 137.349L225.71 137.92L225.169 138.467C224.804 138.824 224.46 139.208 224.073 139.541C223.313 140.227 222.54 140.899 221.724 141.515C221.308 141.813 220.905 142.125 220.481 142.413C220.052 142.688 219.633 142.981 219.196 143.243C218.318 143.763 217.428 144.272 216.468 144.627C217.281 144.019 218.057 143.379 218.817 142.72C219.585 142.075 220.324 141.397 221.062 140.728C221.425 140.381 221.782 140.035 222.15 139.699C222.51 139.357 222.854 138.995 223.206 138.645C223.566 138.301 223.9 137.933 224.244 137.573L224.758 137.035L225.249 136.475C226.596 135.013 227.812 133.443 228.969 131.827C229.254 131.419 229.532 131.005 229.825 130.603L230.62 129.331L231.03 128.699L231.396 128.04C231.644 127.603 231.902 127.165 232.169 126.728Z" fill="#FF9A6C"/>
<path d="M160.696 114.48L162.587 114.331C166.32 114.037 169.108 110.771 168.813 107.037L167.86 94.9707C167.565 91.2373 164.3 88.4507 160.566 88.744L158.676 88.8933C154.943 89.1893 152.155 92.4533 152.45 96.1867L153.403 108.256C153.698 111.989 156.963 114.776 160.696 114.48Z" fill="#FFC89F"/>
<path d="M158.705 96.0987C158 96.408 157.554 96.9867 157.296 97.624C157.022 98.2587 156.911 98.96 156.86 99.656C156.79 101.051 156.99 102.48 157.479 103.752C157.728 104.384 158.058 104.973 158.49 105.437C158.695 105.667 158.981 105.899 159.141 105.963C159.177 105.979 159.198 105.981 159.194 105.989L159.178 106.013C159.193 106.027 159.272 105.931 159.322 105.805C159.429 105.544 159.481 105.189 159.525 104.84C159.567 104.485 159.577 104.12 159.59 103.752C159.612 103.013 159.593 102.267 159.587 101.507C159.861 102.219 160.055 102.952 160.202 103.701C160.276 104.08 160.322 104.461 160.35 104.856C160.377 105.251 160.377 105.651 160.267 106.107C160.2 106.331 160.121 106.595 159.84 106.845C159.702 106.965 159.503 107.059 159.314 107.08C159.124 107.109 158.957 107.08 158.814 107.043C158.261 106.867 157.959 106.6 157.633 106.309C156.996 105.723 156.567 104.987 156.26 104.237C155.668 102.72 155.528 101.085 155.828 99.5173C155.981 98.736 156.254 97.9627 156.724 97.296C156.966 96.9707 157.25 96.6693 157.593 96.4533C157.933 96.2347 158.323 96.104 158.705 96.0987Z" fill="#FF9A6C"/>
<path d="M160.277 99.184C160.049 98.7227 159.92 98.296 159.808 97.88C159.7 97.4693 159.619 97.0693 159.535 96.704C159.451 96.3387 159.369 96.0053 159.256 95.768C159.199 95.648 159.13 95.5387 158.983 95.4373C158.837 95.328 158.628 95.2693 158.374 95.192C158.541 94.992 158.771 94.8533 159.063 94.7947C159.354 94.7413 159.7 94.832 159.961 95.0133C160.491 95.3946 160.704 95.936 160.817 96.416C160.927 96.9067 160.92 97.3893 160.838 97.8533C160.747 98.3173 160.591 98.7707 160.277 99.184Z" fill="#FF9A6C"/>
<path d="M219.249 87.048C219.391 88.856 218.041 90.4347 216.236 90.5787C214.428 90.72 212.849 89.3707 212.706 87.5653C212.563 85.76 213.913 84.1787 215.719 84.0347C217.527 83.8934 219.105 85.2427 219.249 87.048Z" fill="#1B1A2E"/>
<path d="M222.508 81.5307C221.991 81.2054 221.452 80.92 220.89 80.6907C220.612 80.5734 220.327 80.4667 220.044 80.3654C219.754 80.2827 219.471 80.1814 219.178 80.1147C218.01 79.8374 216.802 79.7041 215.612 79.8427C215.311 79.8427 215.02 79.9281 214.724 79.9681L214.282 80.0454C214.138 80.0747 213.996 80.128 213.85 80.1654L212.987 80.4187C212.712 80.5387 212.434 80.6534 212.154 80.7654L211.735 80.9361L211.338 81.1547L210.541 81.592C210.02 81.9014 209.535 82.272 209.012 82.5974C209.472 82.1947 209.935 81.7867 210.423 81.4134L211.202 80.912L211.593 80.664L212.011 80.4587C212.289 80.3227 212.569 80.1894 212.852 80.0587C213.144 79.9574 213.442 79.8641 213.738 79.7681C213.887 79.7201 214.034 79.6667 214.186 79.632L214.647 79.5467C214.954 79.5014 215.258 79.408 215.57 79.4054C216.815 79.2747 218.082 79.4267 219.266 79.792C220.452 80.1574 221.575 80.7334 222.508 81.5307Z" fill="#1B1A2E"/>
<path d="M188.181 91.312C187.663 90.984 187.124 90.7014 186.562 90.472C186.284 90.3547 186 90.248 185.717 90.1467C185.426 90.064 185.142 89.96 184.848 89.896C183.681 89.6187 182.473 89.4854 181.284 89.6214C180.983 89.6214 180.693 89.7094 180.397 89.7494L179.955 89.824C179.808 89.8534 179.668 89.9094 179.523 89.9467L178.659 90.2C178.384 90.3174 178.106 90.432 177.826 90.544L177.406 90.7147L177.01 90.9334L176.213 91.3734C175.692 91.6827 175.207 92.0507 174.684 92.376C175.144 91.976 175.606 91.568 176.095 91.192L176.874 90.6934L177.265 90.4427L177.682 90.24C177.961 90.104 178.241 89.968 178.524 89.84C178.817 89.736 179.114 89.6454 179.41 89.5467C179.559 89.5014 179.706 89.4454 179.858 89.4134L180.318 89.328C180.626 89.2827 180.929 89.1894 181.243 89.1867C182.487 89.0534 183.754 89.2054 184.938 89.5734C186.124 89.9387 187.247 90.5147 188.181 91.312Z" fill="#1B1A2E"/>
<path d="M203.37 96.7067C203.766 98.072 204.116 99.448 204.458 100.824C204.805 102.2 205.118 103.584 205.432 104.968C205.581 105.651 205.76 106.379 205.743 107.115C205.739 107.845 205.622 108.581 205.344 109.261C205.07 109.939 204.644 110.579 204.028 110.995C203.425 111.376 202.832 111.76 202.221 112.128C202.774 111.68 203.346 111.259 203.904 110.821C204.445 110.403 204.809 109.789 205.029 109.144C205.243 108.493 205.349 107.805 205.328 107.117C205.331 106.427 205.164 105.763 205.004 105.064C204.701 103.677 204.399 102.291 204.13 100.896C203.856 99.504 203.59 98.1093 203.37 96.7067Z" fill="#1B1A2E"/>
<path d="M205.859 119.837C205.288 121.509 204.148 122.835 202.633 123.795C202.256 124.043 201.836 124.227 201.415 124.413C200.979 124.565 200.535 124.728 200.061 124.805C199.131 124.989 198.135 125.016 197.18 124.832C195.253 124.477 193.572 123.411 192.45 122.056C191.883 121.381 191.433 120.637 191.106 119.845C190.797 119.045 190.568 118.213 190.594 117.315C191.433 117.749 192.191 118.165 192.897 118.536C193.499 118.853 194.062 119.141 194.619 119.397C195.827 119.952 196.908 120.328 197.96 120.52C198.487 120.621 199.017 120.659 199.586 120.672C199.864 120.693 200.156 120.661 200.456 120.664C200.756 120.624 201.073 120.632 201.389 120.579C201.782 120.539 202.181 120.475 202.603 120.408C203.574 120.243 204.638 120.021 205.859 119.837Z" fill="#E43F5A"/>
<path d="M202.603 120.408C202.311 120.728 201.975 121.029 201.604 121.293C200.472 122.104 198.858 122.483 197.332 122.2C195.802 121.915 194.493 121.04 193.677 119.947C193.352 119.501 193.086 119.035 192.897 118.536C193.499 118.853 194.062 119.141 194.619 119.397C195.827 119.952 196.908 120.328 197.96 120.52C198.487 120.621 199.017 120.659 199.586 120.672C199.864 120.693 200.156 120.661 200.456 120.664C200.756 120.624 201.073 120.632 201.389 120.579C201.782 120.539 202.181 120.475 202.603 120.408Z" fill="white"/>
<path d="M221.788 72.4134C220.276 72.4454 219.127 72.44 218.039 72.4934C216.964 72.5414 216.02 72.5787 215.076 72.688C214.956 72.688 214.836 72.6987 214.722 72.7254L214.364 72.768C214.244 72.7787 214.124 72.792 214.002 72.7947C213.879 72.8027 213.762 72.84 213.639 72.8534C213.394 72.8934 213.141 72.912 212.882 72.9334C212.63 72.984 212.369 73.0267 212.096 73.056C211.961 73.0747 211.818 73.08 211.676 73.0934C211.539 73.1227 211.403 73.1547 211.257 73.1734C210.972 73.2214 210.67 73.2534 210.354 73.2854C209.731 73.3681 209.091 73.4827 208.292 73.48C208.383 73.1147 208.506 72.7654 208.657 72.4374C208.808 72.1094 208.966 71.7761 209.17 71.4854C209.38 71.2054 209.603 70.928 209.843 70.6614C209.96 70.5254 210.087 70.4001 210.212 70.2721C210.347 70.1574 210.485 70.04 210.629 69.9334C210.914 69.7147 211.212 69.5094 211.517 69.3121C211.837 69.1414 212.172 68.9894 212.511 68.848C212.682 68.776 212.851 68.704 213.028 68.648L213.567 68.5147C213.932 68.4427 214.292 68.3334 214.668 68.3254C216.156 68.1681 217.687 68.488 218.964 69.1814C219.13 69.256 219.279 69.3707 219.431 69.4667C219.583 69.568 219.735 69.6667 219.876 69.776C220.162 70.0027 220.431 70.2481 220.676 70.5121C221.159 71.0507 221.583 71.664 221.788 72.4134Z" fill="#1B1A2E"/>
<path d="M187.461 81.5307C185.948 81.56 184.798 81.5573 183.71 81.6107C182.637 81.6587 181.692 81.6933 180.747 81.8053C180.628 81.8053 180.509 81.8133 180.392 81.84L180.036 81.8853C179.916 81.896 179.796 81.9067 179.673 81.912C179.551 81.92 179.433 81.9573 179.31 81.968C179.066 82.008 178.813 82.0267 178.554 82.0507C178.301 82.1013 178.041 82.144 177.768 82.1733C177.633 82.192 177.49 82.1973 177.348 82.2107C177.211 82.2373 177.074 82.2693 176.929 82.288C176.644 82.336 176.342 82.3707 176.026 82.4027C175.403 82.4853 174.762 82.6 173.964 82.5973C174.055 82.2293 174.178 81.8827 174.329 81.5547C174.481 81.2267 174.638 80.8907 174.842 80.6027C175.052 80.32 175.276 80.0427 175.515 79.7787C175.632 79.64 175.759 79.5173 175.884 79.3867C176.019 79.272 176.157 79.1573 176.301 79.0507C176.586 78.832 176.884 78.6267 177.189 78.4267C177.509 78.256 177.844 78.1067 178.184 77.9653C178.354 77.8933 178.523 77.8213 178.7 77.7653L179.24 77.6293C179.604 77.5573 179.964 77.4507 180.34 77.4427C181.828 77.2827 183.358 77.6053 184.637 78.2987C184.801 78.3733 184.951 78.488 185.104 78.584C185.255 78.6853 185.406 78.784 185.549 78.8933C185.834 79.12 186.103 79.3653 186.349 79.6267C186.831 80.168 187.254 80.7813 187.461 81.5307Z" fill="#1B1A2E"/>
<path d="M234.015 108.691L235.906 108.541C239.639 108.248 242.426 104.981 242.132 101.248L241.178 89.1813C240.884 85.448 237.618 82.6613 233.884 82.9547L231.996 83.104C228.263 83.4 225.474 86.664 225.77 90.3973L226.722 102.467C227.018 106.2 230.282 108.987 234.015 108.691Z" fill="#FFC89F"/>
<path d="M232.727 89.2693C233.409 89.1307 234.127 89.12 234.836 89.216C235.545 89.3333 236.239 89.568 236.879 89.9093C238.164 90.5973 239.223 91.7307 239.817 93.0827C240.103 93.76 240.313 94.4773 240.367 95.2107C240.42 95.9253 240.449 96.6 240.471 97.2986C240.513 98.6826 240.529 100.072 240.455 101.467C240.164 100.101 239.961 98.728 239.788 97.352C239.689 96.672 239.639 95.9627 239.543 95.3013C239.473 94.6533 239.279 94.0267 239.017 93.4373C238.769 92.84 238.412 92.288 237.988 91.7973C237.572 91.2987 237.081 90.856 236.529 90.496C235.98 90.1387 235.383 89.8373 234.74 89.6347C234.097 89.432 233.423 89.3227 232.727 89.2693Z" fill="#FF9A6C"/>
<path d="M236.553 103.779C236.142 103.627 235.801 103.365 235.505 103.061C235.212 102.757 234.972 102.4 234.793 102.016C234.614 101.629 234.497 101.216 234.454 100.795C234.417 100.373 234.438 99.944 234.59 99.5307C234.804 99.912 234.958 100.272 235.121 100.621L235.588 101.648L236.068 102.669C236.228 103.019 236.401 103.368 236.553 103.779Z" fill="#FF9A6C"/>
<path d="M228.478 84.5307C227.798 84.2907 227.148 84 226.543 83.6533C225.937 83.2987 225.385 82.88 224.876 82.4214C222.857 80.536 221.743 77.84 220.809 75.0854C219.884 72.3094 219.073 69.424 218.233 66.536C217.814 65.0907 217.396 63.64 216.924 62.2027C216.46 60.7653 215.932 59.344 215.404 57.9254L213.793 53.6854L212.971 51.568C212.66 50.8747 212.392 50.1654 212.074 49.4747C211.912 49.1307 211.766 48.7787 211.611 48.432C211.46 48.0827 211.272 47.7493 211.111 47.4027C210.801 46.704 210.41 46.0454 210.06 45.3574C209.3 44.0187 208.443 42.72 207.434 41.528C206.8 40.7787 206.095 40.088 205.344 39.4507C211.773 43.2907 218.1 50.456 219.353 63.7414C220.814 79.232 227.502 83.808 230.873 85.1414C230.049 84.9894 229.246 84.7973 228.478 84.5307ZM175.789 210.04C174.889 210.128 173.99 210.173 173.101 210.144C172.104 210.12 171.106 210.024 170.138 209.763C168.189 209.285 166.42 208 165.273 206.272C164.693 205.413 164.279 204.451 163.997 203.464C163.719 202.475 163.562 201.461 163.452 200.456C163.396 199.936 163.345 199.413 163.3 198.891C164.291 204.757 167.54 210.147 175.789 210.04ZM199.271 152.717C201.169 153.984 202.682 155.824 203.554 157.915C204.439 160.013 204.684 162.267 204.749 164.464C204.804 166.683 204.44 168.893 203.978 171.083C203.527 173.184 202.957 175.283 202.296 177.376C203.848 170.499 204.485 159.787 196.969 151.309C197.254 151.472 197.538 151.635 197.826 151.797C198.308 152.099 198.805 152.392 199.271 152.717ZM132.847 110.96C132.308 110.285 131.791 109.592 131.336 108.856C131.092 108.501 130.873 108.128 130.659 107.752C130.433 107.384 130.245 106.995 130.047 106.608C129.282 105.056 128.629 103.445 128.079 101.787C125.748 95.1707 125.506 87.6134 127.175 80.7147C128.022 77.256 129.319 73.976 130.912 70.8267C132.516 67.6773 134.471 64.68 136.303 61.5814C136.561 61.1467 136.814 60.7094 137.068 60.2747C134.249 67.7067 132.058 75.016 130.166 81.0694C123.243 103.224 137.844 114.925 140.696 116.957C137.581 115.627 134.923 113.493 132.847 110.96ZM243.524 48.4774C221.94 5.3067 189.766 20.7787 189.766 20.7787C168.244 15.7334 154.738 26.8747 145.664 42.016H145.663L145.661 42.0187C144.686 43.5467 143.786 45.1067 142.856 46.648C141.897 48.1734 141.007 49.728 140.038 51.2427C138.163 54.3013 136.203 57.304 134.303 60.3654C133.354 61.896 132.423 63.4533 131.539 65.04L130.243 67.4507L129.046 69.9254C128.683 70.7734 128.33 71.624 127.98 72.4747C127.665 73.3387 127.379 74.2187 127.099 75.0933C126.836 75.976 126.654 76.8853 126.443 77.7787C126.326 78.2213 126.269 78.68 126.2 79.1333L125.996 80.4933C125.826 81.392 125.81 82.3094 125.715 83.216L125.596 84.5733C125.571 85.0267 125.562 85.4827 125.544 85.9333C125.531 86.8427 125.436 87.7467 125.441 88.6507C125.45 89.5574 125.438 90.4613 125.418 91.3653C125.369 93.1787 125.411 95 125.523 96.8267C125.625 98.6587 125.883 100.491 126.327 102.293C126.778 104.093 127.427 105.859 128.325 107.504C128.551 107.915 128.768 108.328 129.025 108.723C129.268 109.123 129.518 109.52 129.794 109.899C130.327 110.672 130.943 111.387 131.57 112.08C132.214 112.763 132.898 113.405 133.636 113.981C134.364 114.568 135.136 115.096 135.95 115.549C137.547 116.448 139.267 117.139 141.077 117.376C140.449 118.043 136.637 122.259 132.156 131.048C127.25 140.675 137.513 144.299 137.513 144.299C131.666 135.768 140.534 120.163 140.534 120.163C128.919 150.888 153.567 152.117 153.567 152.117C144.138 161.669 146.221 171.779 146.221 171.779C136.807 195.021 161.286 188.659 163.363 188.083C162.847 189.016 162.462 190.005 162.152 191.019C161.819 192.056 161.593 193.125 161.436 194.211C161.284 195.296 161.207 196.397 161.239 197.504C161.262 198.608 161.404 199.723 161.702 200.797C162.298 202.963 163.437 204.92 164.721 206.664C165.372 207.536 166.089 208.363 166.914 209.096C167.738 209.829 168.673 210.467 169.694 210.952C170.716 211.44 171.818 211.771 172.933 211.941C174.05 212.112 175.171 212.136 176.276 212.093C178.487 212 180.642 211.672 182.724 211.189C186.691 210.267 190.437 209.059 194.436 208.504C192.577 222.845 179.009 222.963 173.828 232.115C168.644 241.269 177.57 247.771 177.57 247.771C176.495 244.981 177.237 241.584 177.237 241.584C176.934 247.589 181.064 248.739 181.064 248.739C180.363 245.763 180.863 243.237 180.863 243.237C183.2 253.152 189.309 251.816 189.309 251.816C186.999 249.125 186.808 242.768 186.808 242.768C190.118 258.123 201.479 254.429 201.479 254.429C200.26 253.749 199.319 252.656 199.319 252.656C208.437 255.976 209.138 245.605 209.138 245.605C203.616 249.936 201.048 247.821 199.86 244.621C198.54 241.061 199.213 237.088 201.366 233.963C207.763 224.675 205.493 216.787 205.493 216.787C217.668 197.507 200.795 185.483 200.795 185.483C207.823 187.752 211.63 199.096 211.63 199.096C215.294 190.819 201.518 184.891 200.186 184.341C201.621 182.469 202.831 180.443 203.869 178.315C204.898 176.181 205.761 173.939 206.278 171.581C206.542 170.408 206.704 169.203 206.777 167.992C206.861 166.781 206.834 165.557 206.721 164.344C206.498 161.907 205.626 159.541 204.377 157.496C203.14 155.432 201.587 153.648 199.897 151.96C198.17 150.307 196.303 148.845 194.317 147.592C192.322 146.355 190.248 145.269 188.138 144.261C186.253 143.376 184.336 142.557 182.352 141.883C168.632 134.685 165.014 122.685 164.476 113.571C164.141 107.915 165.344 102.301 167.655 97.128C171.899 87.6267 170.833 77.992 170.833 77.992C173.528 74.688 176.643 68.5307 179.725 51.0934C182.209 37.0427 189.095 35.1254 190.769 35.1174C190.794 35.1174 190.824 35.1174 190.852 35.1174C193.794 35.4827 196.594 36.3867 199.154 37.6693C199.798 38 200.427 38.3547 201.038 38.7387C201.653 39.1147 202.25 39.5174 202.825 39.952C203.965 40.8294 205.071 41.7547 206.104 42.7733C207.143 43.784 208.133 44.8667 209.054 46.0214C209.949 47.1974 210.765 48.4453 211.436 49.776C211.614 50.104 211.763 50.4453 211.912 50.7867C212.062 51.128 212.216 51.4667 212.351 51.816C212.598 52.52 212.878 53.208 213.089 53.928C213.545 55.3574 213.91 56.8134 214.254 58.2747C214.598 59.7334 214.897 61.2054 215.225 62.6667L216.228 67.0587C216.564 68.5227 216.908 69.992 217.281 71.4614C217.649 72.9334 218.081 74.4027 218.601 75.856C219.132 77.3067 219.75 78.7547 220.585 80.12C220.998 80.8027 221.462 81.4667 221.993 82.0827C222.526 82.696 223.127 83.264 223.783 83.7547C225.1 84.7334 226.649 85.3574 228.201 85.616C229.716 85.8827 231.233 85.856 232.708 85.6614C232.782 85.672 232.825 85.6774 232.825 85.6774C245.214 105.136 252.42 126.896 249.166 135.304C246.289 142.747 235.406 146.208 235.406 146.208C239.473 151.328 245.713 144.189 245.713 144.189C244.356 148.221 238.766 150.443 238.766 150.443C259.265 152.912 265.108 91.648 243.524 48.4774Z" fill="#1B1A2E"/>
<path d="M232.825 85.6773C234.505 88.136 236.063 90.6773 237.569 93.2507C239.052 95.8373 240.447 98.4747 241.761 101.155C244.383 106.515 246.607 112.08 248.303 117.821C249.103 120.704 249.764 123.637 250.116 126.624C250.279 128.12 250.369 129.629 250.3 131.144C250.225 132.651 250.023 134.195 249.393 135.613L248.895 136.648C248.724 136.992 248.492 137.296 248.292 137.621L247.98 138.099L247.623 138.541C247.375 138.829 247.159 139.144 246.889 139.411C245.865 140.528 244.687 141.48 243.463 142.344C242.225 143.197 240.908 143.915 239.564 144.565C238.217 145.211 236.833 145.776 235.407 146.208C238.18 145.133 240.841 143.755 243.215 141.995C244.391 141.107 245.519 140.149 246.476 139.04C246.729 138.776 246.929 138.469 247.159 138.184L247.492 137.752L247.777 137.288C247.959 136.973 248.175 136.677 248.327 136.349L248.769 135.36C248.852 135.197 248.9 135.024 248.953 134.853C249.007 134.683 249.065 134.515 249.113 134.341C249.183 133.987 249.287 133.64 249.329 133.28C249.447 132.565 249.524 131.843 249.543 131.112C249.596 129.651 249.497 128.179 249.324 126.717C248.953 123.795 248.273 120.907 247.46 118.061C246.652 115.213 245.697 112.405 244.636 109.635C243.572 106.864 242.38 104.147 241.156 101.44C239.921 98.7413 238.596 96.08 237.196 93.456C235.82 90.8213 234.34 88.24 232.825 85.6773Z" fill="#1F4068"/>
<path d="M170.9 78.2267C171.38 83.52 170.789 88.9574 169.1 94.0294C168.249 96.5627 167.145 98.992 166.011 101.392C164.876 103.792 163.698 106.173 162.516 108.549C160.19 113.309 157.569 117.96 156.193 123.011C155.499 125.523 155.167 128.131 155.318 130.736C155.451 133.344 156.126 135.917 157.085 138.387L157.005 138.424C155.778 136.067 154.919 133.48 154.63 130.795C154.329 128.112 154.613 125.373 155.29 122.768C155.967 120.155 157.076 117.696 158.257 115.309C159.443 112.923 160.772 110.621 162.092 108.323C163.407 106.021 164.681 103.696 165.752 101.275C166.826 98.8534 167.684 96.344 168.403 93.8133C169.13 91.2827 169.762 88.7253 170.141 86.12C170.53 83.5173 170.733 80.8854 170.812 78.2294L170.9 78.2267Z" fill="#1F4068"/>
<path d="M176.112 67.0534C174.722 72.2614 172.292 77.2054 169.147 81.5947C167.557 83.7814 165.788 85.8187 164.027 87.8507L158.748 93.9494L153.514 100.067C151.792 102.12 150.139 104.221 148.569 106.381C145.408 110.685 142.711 115.315 140.543 120.237L140.461 120.205C142.113 115.077 144.669 110.232 147.811 105.835C149.382 103.635 151.11 101.555 152.889 99.5307C154.664 97.5014 156.523 95.5574 158.393 93.6267C160.257 91.6907 162.103 89.7387 163.81 87.6667C165.519 85.5974 167.079 83.4107 168.548 81.1787C170.028 78.9547 171.432 76.6853 172.68 74.3227C173.929 71.9627 175.036 69.5254 176.029 67.0267L176.112 67.0534Z" fill="#1F4068"/>
<path d="M140.416 78.536C140.004 81.0533 139.814 83.5813 139.851 86.096C139.925 88.6133 140.225 91.1147 140.829 93.552C141.408 95.992 142.267 98.3653 143.346 100.64C143.89 101.776 144.479 102.893 145.137 103.971C145.779 105.061 146.495 106.109 147.281 107.112C145.45 105.331 143.955 103.208 142.736 100.949C142.119 99.8213 141.595 98.6453 141.122 97.4453C140.665 96.2427 140.289 95.008 139.977 93.7573C139.374 91.2507 139.103 88.6667 139.17 86.096C139.248 83.5253 139.674 80.9733 140.416 78.536Z" fill="#1F4068"/>
<path d="M146.221 171.779C146.45 172.371 146.604 172.968 146.823 173.544C147.06 174.115 147.24 174.699 147.518 175.243L147.9 176.069L148.339 176.867C148.475 177.136 148.638 177.389 148.802 177.643C148.969 177.893 149.111 178.163 149.303 178.395L149.831 179.131L150.412 179.824C150.805 180.283 151.227 180.715 151.664 181.139C152.545 181.973 153.503 182.741 154.566 183.403C153.349 183.072 152.224 182.432 151.22 181.659C150.215 180.88 149.312 179.952 148.586 178.899C147.88 177.837 147.25 176.712 146.883 175.491C146.65 174.899 146.553 174.267 146.41 173.656C146.302 173.035 146.26 172.403 146.221 171.779Z" fill="#1F4068"/>
<path d="M167.421 188.291C168.284 190.376 169.398 192.317 170.778 194.053C172.151 195.792 173.746 197.347 175.481 198.725C177.211 200.115 179.079 201.333 181.021 202.429C182.968 203.517 184.982 204.501 187.072 205.347C184.867 204.851 182.741 204.027 180.702 203.035C179.68 202.541 178.691 201.979 177.722 201.384C176.761 200.776 175.832 200.115 174.934 199.411C173.161 197.979 171.534 196.339 170.23 194.459C168.914 192.595 167.937 190.488 167.421 188.291Z" fill="#1F4068"/>
<path d="M166.063 59.128C163.913 61.928 161.969 64.8667 160.272 67.9307C160.055 68.312 159.847 68.696 159.654 69.088L159.053 70.256C158.685 71.0507 158.29 71.832 157.958 72.64C157.244 74.2373 156.65 75.8827 156.11 77.544C155.56 79.2027 155.135 80.8987 154.775 82.608C154.409 84.3147 154.156 86.048 153.979 87.7867C153.813 89.528 153.737 91.28 153.769 93.0347C153.79 94.7894 153.927 96.5467 154.238 98.2827C153.295 94.872 153.096 91.2747 153.297 87.7333C153.509 84.1867 154.199 80.6667 155.276 77.2773C156.38 73.896 157.839 70.6267 159.681 67.592C161.501 64.544 163.655 61.7094 166.063 59.128Z" fill="#1F4068"/>
<path d="M188.132 31.0693C186.306 31.0267 184.503 31.1574 182.774 31.5787C181.048 32.008 179.4 32.696 177.899 33.6373C177.138 34.0907 176.423 34.6213 175.739 35.1867C175.047 35.7467 174.405 36.368 173.779 37.008C172.545 38.304 171.421 39.7227 170.448 41.264C171.098 39.552 172.093 37.9734 173.268 36.552C174.449 35.1307 175.851 33.8747 177.439 32.8907C178.239 32.4133 179.071 31.9814 179.943 31.648C180.821 31.3334 181.716 31.056 182.637 30.912C184.47 30.5974 186.352 30.6667 188.132 31.0693Z" fill="#1F4068"/>
<path d="M224.919 48.9493C224.148 46.8213 223.188 44.7894 221.977 42.9254C220.74 41.08 219.265 39.4053 217.556 38C215.852 36.592 213.945 35.432 211.918 34.512C209.884 33.6054 207.746 32.8987 205.523 32.48C207.792 32.536 210.045 33.0693 212.181 33.88C214.321 34.696 216.332 35.8694 218.116 37.3254C218.999 38.0667 219.817 38.8827 220.569 39.752C221.313 40.632 221.972 41.5787 222.556 42.5654C223.695 44.5574 224.5 46.7253 224.919 48.9493Z" fill="#1F4068"/>
<path d="M241.7 80.88C240.102 81.512 238.316 81.784 236.564 81.568C234.804 81.384 233.116 80.728 231.598 79.84C230.097 78.9253 228.748 77.7813 227.596 76.4773C226.444 75.176 225.441 73.744 224.71 72.1787C225.75 73.5494 226.878 74.8267 228.089 76.0027C229.305 77.1733 230.62 78.2347 232.049 79.088C233.476 79.9414 235.03 80.5867 236.665 80.8933C238.302 81.2213 240.004 81.1627 241.7 80.88Z" fill="#1F4068"/>
<path d="M241.7 80.88C241.569 81.1013 241.433 81.3227 241.289 81.5387L241.073 81.864C240.993 81.968 240.905 82.064 240.823 82.1653L240.302 82.752C240.113 82.9333 239.913 83.1013 239.716 83.2773C239.524 83.4587 239.313 83.616 239.094 83.7627C238.878 83.9067 238.67 84.072 238.441 84.2027C238.214 84.3387 237.982 84.4587 237.753 84.5867C237.521 84.712 237.276 84.8107 237.038 84.9253C236.07 85.3307 235.06 85.632 234.028 85.7814C233.001 85.9334 231.95 85.976 230.924 85.8053C231.94 85.6107 232.921 85.3813 233.884 85.112C234.846 84.8347 235.788 84.5147 236.694 84.12C237.612 83.7493 238.473 83.264 239.308 82.7307C240.164 82.2133 240.9 81.544 241.7 80.88Z" fill="#1F4068"/>
<path d="M166.402 100.187C165.404 104.637 164.708 109.139 164.333 113.659C164.276 114.224 164.25 114.789 164.22 115.357L164.125 117.053C164.103 118.187 164.045 119.32 164.07 120.453C164.056 122.72 164.169 124.984 164.364 127.24C164.539 129.499 164.85 131.747 165.239 133.976C165.62 136.211 166.121 138.421 166.702 140.613C167.294 142.8 167.982 144.965 168.781 147.091C169.571 149.219 170.476 151.312 171.562 153.315C169.108 149.461 167.373 145.176 166.044 140.8C164.731 136.413 163.886 131.883 163.491 127.315C163.11 122.749 163.148 118.144 163.655 113.595C164.148 109.045 165.076 104.549 166.402 100.187Z" fill="#1F4068"/>
<path d="M194.436 208.504C196.081 208.12 197.838 208.067 199.539 208.491C200.385 208.717 201.198 209.085 201.942 209.565C202.687 210.051 203.32 210.693 203.862 211.389C204.925 212.808 205.545 214.485 205.84 216.176C206.131 217.869 206.158 219.6 205.865 221.269C205.794 219.581 205.573 217.92 205.171 216.32C204.756 214.731 204.137 213.192 203.164 211.92C202.22 210.619 200.864 209.688 199.342 209.141C197.801 208.632 196.126 208.48 194.436 208.504Z" fill="#1F4068"/>
<path d="M167.272 160.491C165.539 163.168 163.938 165.933 162.821 168.883C162.261 170.355 161.836 171.875 161.581 173.413C161.475 174.187 161.386 174.963 161.372 175.741C161.364 176.517 161.388 177.296 161.488 178.067C161.853 181.157 163.343 184.099 165.539 186.381C166.628 187.536 167.878 188.528 169.19 189.419C170.503 190.312 171.902 191.072 173.332 191.76C176.201 193.12 179.199 194.181 182.228 195.136C183.74 195.613 185.279 196.035 186.81 196.541C188.341 197.032 189.835 197.64 191.309 198.288C194.243 199.613 197.043 201.283 199.515 203.365C200.756 204.397 201.884 205.565 202.887 206.827C203.389 207.459 203.845 208.125 204.25 208.821C204.653 209.517 205.02 210.24 205.256 211.013L205.172 211.04C204.543 209.584 203.577 208.299 202.543 207.115C201.501 205.928 200.318 204.875 199.079 203.901C196.593 201.957 193.81 200.421 190.924 199.147C189.483 198.499 188.011 197.923 186.517 197.4C185.029 196.875 183.497 196.424 181.976 195.912C178.939 194.899 175.948 193.696 173.122 192.173C171.704 191.424 170.34 190.576 169.018 189.669C168.362 189.208 167.724 188.72 167.11 188.205C166.491 187.696 165.894 187.157 165.333 186.581C164.2 185.445 163.18 184.179 162.385 182.76C161.583 181.349 161.032 179.787 160.761 178.171C160.504 176.552 160.546 174.896 160.817 173.291C161.096 171.685 161.568 170.123 162.192 168.635C163.456 165.656 165.204 162.933 167.201 160.44L167.272 160.491Z" fill="#1F4068"/>
<path d="M185.251 188.757C185.786 188.915 186.322 189.077 186.856 189.248L187.657 189.507C187.927 189.587 188.188 189.688 188.445 189.803C189.47 190.256 190.531 190.653 191.499 191.235C193.51 192.261 195.326 193.64 197.027 195.123C198.718 196.627 200.193 198.365 201.452 200.235C202.704 202.107 203.754 204.133 204.355 206.296C203.414 204.269 202.223 202.392 200.894 200.632C200.227 199.752 199.523 198.907 198.781 198.093L197.647 196.896L196.439 195.773C196.053 195.379 195.609 195.053 195.189 194.696C194.763 194.349 194.349 193.987 193.893 193.677L192.555 192.709C192.099 192.4 191.621 192.125 191.158 191.824C190.24 191.205 189.24 190.733 188.269 190.192C187.792 189.901 187.267 189.717 186.767 189.472C186.261 189.24 185.757 189.003 185.251 188.757Z" fill="#1F4068"/>
<path d="M187.195 226.368C186.121 227.533 185.052 228.659 184.244 229.981C183.794 230.605 183.465 231.304 183.089 231.971C182.785 232.675 182.435 233.357 182.211 234.093C181.689 235.536 181.334 237.04 181.114 238.571C180.906 240.104 180.813 241.659 180.863 243.237C180.451 241.707 180.348 240.096 180.433 238.504C180.52 236.907 180.852 235.317 181.385 233.8C181.638 233.035 182.007 232.317 182.354 231.589L182.986 230.563C183.097 230.395 183.186 230.213 183.314 230.056L183.689 229.584C184.638 228.285 185.894 227.251 187.195 226.368Z" fill="#1F4068"/>
<path d="M185.095 228.341C184.077 229.208 183.143 230.099 182.336 231.112C181.55 232.136 180.829 233.205 180.218 234.344C179.601 235.48 179.065 236.664 178.572 237.872C178.088 239.083 177.643 240.317 177.237 241.584C177.285 240.248 177.552 238.931 177.926 237.648C178.299 236.363 178.819 235.117 179.448 233.925C180.1 232.747 180.894 231.637 181.826 230.661C182.766 229.688 183.888 228.896 185.095 228.341Z" fill="#1F4068"/>
<path d="M197.347 208.789C198.322 209.232 199.223 209.872 199.973 210.675C200.717 211.483 201.289 212.459 201.648 213.507C202.384 215.616 202.295 217.917 201.786 220.037C201.255 222.165 200.314 224.171 199.07 225.949C197.83 227.728 196.286 229.312 194.459 230.443C196.061 229.021 197.4 227.365 198.498 225.576C199.584 223.781 200.447 221.851 200.935 219.829C201.432 217.821 201.549 215.696 200.999 213.712C200.719 212.725 200.274 211.779 199.644 210.949C199.021 210.112 198.226 209.4 197.347 208.789Z" fill="#1F4068"/>
<path d="M167.537 133.003C168.591 135.227 169.982 137.24 171.546 139.101C173.112 140.963 174.861 142.667 176.626 144.363C178.384 146.067 180.174 147.757 182.008 149.395C183.841 151.035 185.716 152.627 187.517 154.317C189.321 156 191.026 157.813 192.497 159.821C193.971 161.821 195.242 164 196.141 166.336C197.039 168.672 197.577 171.144 197.737 173.627C197.899 176.109 197.73 178.597 197.299 181.024L197.212 181.011C197.353 178.555 197.354 176.107 197.051 173.693C196.756 171.283 196.176 168.917 195.27 166.677C194.381 164.432 193.219 162.293 191.827 160.301C190.432 158.312 188.851 156.445 187.178 154.656C185.498 152.872 183.696 151.197 181.821 149.611C179.947 148.021 177.99 146.525 176.132 144.901C174.284 143.267 172.539 141.491 171.017 139.525C169.497 137.568 168.22 135.387 167.456 133.035L167.537 133.003Z" fill="#1F4068"/>
<path d="M231.641 62.9307C232.433 63.7947 233.217 64.6667 233.996 65.5467C234.774 66.4294 235.582 67.2854 236.289 68.2267L238.462 71.0054L239.004 71.7014L239.505 72.4293L240.505 73.8827L241.508 75.336L242.006 76.0667C242.164 76.3147 242.313 76.568 242.468 76.8187L244.302 79.8374C244.454 80.0907 244.612 80.3387 244.756 80.5947L245.174 81.3734L246.009 82.9307L246.844 84.4854C247.129 85.0027 247.364 85.544 247.625 86.072C249.71 90.296 251.441 94.6934 252.86 99.1814C253.58 101.424 254.174 103.701 254.716 105.989C255.196 108.293 255.665 110.6 255.889 112.941C255.041 108.323 253.724 103.819 252.209 99.3947C251.449 97.184 250.609 95.0027 249.726 92.84L248.34 89.6214C247.86 88.5574 247.334 87.512 246.836 86.456C244.78 82.264 242.521 78.16 239.94 74.2614L238.988 72.7893L238.51 72.0507L237.998 71.3387L235.953 68.4854C235.3 67.5121 234.545 66.616 233.82 65.696C233.086 64.7813 232.361 63.8587 231.641 62.9307Z" fill="#1F4068"/>
<path d="M237.612 386.288L237.073 393.747L236.508 401.2L235.335 416.107L234.1 431.008L233.46 438.456L232.793 445.901L233.329 438.445L233.895 430.992L235.068 416.085L236.305 401.184L236.945 393.736L237.612 386.288Z" fill="#A65B3C"/>
<path d="M95.3366 133.075C94.7777 131.043 94.6228 128.904 94.7556 126.795C94.8958 124.683 95.4081 122.595 96.255 120.651C97.1228 118.715 98.3518 116.941 99.8516 115.448C100.236 115.085 100.611 114.712 101.027 114.384C101.231 114.216 101.427 114.037 101.639 113.88L102.277 113.411L102.598 113.179L102.932 112.965L103.599 112.541C104.049 112.267 104.518 112.024 104.977 111.768C103.158 112.827 101.46 114.093 99.9977 115.592C98.5454 117.099 97.3353 118.843 96.4985 120.757C95.6441 122.667 95.1414 124.725 94.959 126.811C94.8646 127.856 94.8548 128.907 94.9166 129.955C94.9713 131.003 95.1046 132.048 95.3366 133.075Z" fill="#FF9A6C"/>
<path d="M88.857 144.565C87.6826 144.965 86.4421 145.163 85.1973 145.216C83.9522 145.264 82.6925 145.125 81.4893 144.771C80.2912 144.405 79.1568 143.803 78.2168 142.973C77.272 142.149 76.536 141.109 76.0034 139.995C76.3301 140.52 76.6544 141.048 77.0581 141.512C77.4384 141.997 77.8792 142.427 78.3496 142.819C79.2938 143.595 80.3914 144.179 81.5663 144.517C82.733 144.883 83.9661 145.013 85.193 145.011C85.8077 145.011 86.4226 144.968 87.0346 144.893C87.6469 144.821 88.256 144.715 88.857 144.565Z" fill="#FF9A6C"/>
<path d="M92.6106 130.152C92.1714 128.992 91.6866 127.853 91.1709 126.728C90.9117 126.165 90.6487 125.605 90.3813 125.048C90.1021 124.496 89.8325 123.939 89.5458 123.392C88.4109 121.195 87.1687 119.051 85.8095 116.987C85.1562 115.936 84.4247 114.939 83.7207 113.923L82.5975 112.448C82.409 112.203 82.225 111.952 82.0327 111.712L81.4423 110.997C81.0466 110.523 80.6597 110.04 80.2565 109.571L79.0071 108.197C78.7986 107.971 78.5967 107.736 78.3823 107.512L77.7253 106.856L76.4141 105.541C78.2437 107.208 80.0245 108.947 81.5999 110.867L82.2066 111.571C82.4029 111.811 82.5879 112.061 82.7791 112.304L83.9165 113.779C84.6295 114.795 85.3711 115.789 86.033 116.84C87.3783 118.925 88.6285 121.075 89.7277 123.299C90.8301 125.52 91.8279 127.8 92.6106 130.152Z" fill="#FF9A6C"/>
<path d="M88.4957 87.608C87.2109 87.8854 85.9563 88.28 84.7229 88.7227C83.4899 89.1707 82.2789 89.6747 81.0965 90.24C78.7328 91.3707 76.4597 92.696 74.3482 94.2453C72.2144 95.7653 70.2504 97.5173 68.4333 99.4027C66.628 101.304 64.9896 103.363 63.5176 105.541C63.8752 104.989 64.2184 104.427 64.5944 103.888C64.9765 103.355 65.3405 102.805 65.7485 102.288L66.3509 101.507L66.9818 100.747C67.3946 100.235 67.8477 99.7573 68.2837 99.264C69.1832 98.3013 70.1194 97.3733 71.1122 96.5067C71.5976 96.0613 72.1149 95.6507 72.62 95.2293C73.14 94.824 73.6544 94.4107 74.192 94.0293C76.3293 92.488 78.6152 91.152 81.0104 90.056C83.4077 88.9733 85.9053 88.0747 88.4957 87.608Z" fill="#FF9A6C"/>
<path d="M104.106 97.4453C103.481 97.4186 102.862 97.312 102.251 97.176C101.639 97.0427 101.039 96.8586 100.45 96.6453C100.154 96.5386 99.8666 96.4133 99.577 96.2933C99.2957 96.1546 99.0055 96.0347 98.7346 95.8747C98.1789 95.5867 97.6549 95.2373 97.1597 94.8586C97.4423 94.9946 97.7047 95.16 97.989 95.288C98.2645 95.4293 98.5415 95.568 98.8258 95.6933C99.3893 95.9466 99.9594 96.1867 100.541 96.3947C101.12 96.6133 101.709 96.8 102.302 96.9786C102.599 97.0666 102.898 97.1493 103.199 97.2266C103.499 97.3066 103.802 97.376 104.106 97.4453Z" fill="#FF9A6C"/>
<path d="M106.833 90.3414C106.023 90.4587 105.199 90.4641 104.379 90.4081C103.56 90.3494 102.742 90.2107 101.952 89.9627C101.164 89.7174 100.4 89.3627 99.7385 88.8587C99.4113 88.6027 99.1097 88.3147 98.8436 88C98.59 87.672 98.3703 87.3227 98.2036 86.9494C98.6303 87.6454 99.1956 88.24 99.8588 88.6934C100.525 89.1387 101.262 89.4747 102.032 89.7094C102.799 89.9547 103.597 90.0987 104.399 90.2054C104.801 90.2561 105.206 90.2907 105.612 90.3094C106.018 90.3387 106.425 90.3467 106.833 90.3414Z" fill="#FF9A6C"/>
<path d="M106.833 90.3414C106.144 89.9947 105.549 89.472 105.057 88.872C104.811 88.5707 104.604 88.2374 104.434 87.888C104.261 87.5387 104.158 87.1574 104.103 86.776C104.259 87.1307 104.421 87.4694 104.617 87.7894C104.817 88.1067 105.024 88.4187 105.264 88.7067C105.498 88.9973 105.751 89.2774 106.012 89.5494C106.277 89.816 106.547 90.0854 106.833 90.3414Z" fill="#FF9A6C"/>
<path d="M112.229 94.48C112.129 93.7013 112.157 92.9067 112.25 92.1253C112.339 91.344 112.518 90.5707 112.769 89.8213C112.828 89.632 112.894 89.4453 112.971 89.264C113.046 89.0827 113.113 88.896 113.196 88.7173C113.373 88.3627 113.53 88 113.746 87.6693C113.85 87.5013 113.942 87.328 114.057 87.168L114.397 86.6853C114.508 86.5227 114.641 86.376 114.769 86.2266C114.896 86.0773 115.025 85.9306 115.156 85.7866C114.714 86.432 114.27 87.072 113.925 87.768C113.564 88.4533 113.263 89.1707 113.022 89.904C112.77 90.6373 112.588 91.392 112.452 92.1547C112.384 92.5387 112.333 92.9227 112.296 93.3093C112.254 93.6987 112.233 94.088 112.229 94.48Z" fill="#FF9A6C"/>
<path d="M418.028 446.301H17.002V445.501H418.028V446.301Z" fill="#1B1A2E"/>
<path d="M408.879 137.336H336.313C333.479 137.336 331.18 139.635 331.18 142.472V169.531L321.956 176.773H331.18H408.879C411.716 176.773 414.015 174.475 414.015 171.637V142.472C414.015 139.635 411.716 137.336 408.879 137.336Z" fill="#FFDEE4"/>
<path d="M397.847 157.056C397.847 158.952 396.308 160.493 394.41 160.493C392.511 160.493 390.972 158.952 390.972 157.056C390.972 155.157 392.511 153.619 394.41 153.619C396.308 153.619 397.847 155.157 397.847 157.056Z" fill="white"/>
<path d="M376.033 157.056C376.033 158.952 374.495 160.493 372.596 160.493C370.697 160.493 369.159 158.952 369.159 157.056C369.159 155.157 370.697 153.619 372.596 153.619C374.495 153.619 376.033 155.157 376.033 157.056Z" fill="white"/>
<path d="M354.22 157.056C354.22 158.952 352.681 160.493 350.783 160.493C348.884 160.493 347.345 158.952 347.345 157.056C347.345 155.157 348.884 153.619 350.783 153.619C352.681 153.619 354.22 155.157 354.22 157.056Z" fill="white"/>
<path d="M410.615 196.053H362.583C360.705 196.053 359.183 197.576 359.183 199.453V217.363L353.079 222.157H359.183H410.615C412.492 222.157 414.015 220.635 414.015 218.76V199.453C414.015 197.576 412.492 196.053 410.615 196.053Z" fill="#FFDEE4"/>
<path d="M403.313 209.107C403.313 210.363 402.295 211.381 401.039 211.381C399.78 211.381 398.761 210.363 398.761 209.107C398.761 207.848 399.78 206.829 401.039 206.829C402.295 206.829 403.313 207.848 403.313 209.107Z" fill="white"/>
<path d="M388.874 209.107C388.874 210.363 387.855 211.381 386.599 211.381C385.343 211.381 384.324 210.363 384.324 209.107C384.324 207.848 385.343 206.829 386.599 206.829C387.855 206.829 388.874 207.848 388.874 209.107Z" fill="white"/>
<path d="M374.433 209.107C374.433 210.363 373.417 211.381 372.158 211.381C370.902 211.381 369.884 210.363 369.884 209.107C369.884 207.848 370.902 206.829 372.158 206.829C373.417 206.829 374.433 207.848 374.433 209.107Z" fill="white"/>
<path d="M404.364 44.1654L319.602 44.216C314.292 44.2186 309.991 48.5253 309.996 53.8347L310.026 104.488L292.77 118.056L310.034 118.045L404.41 117.989C409.716 117.987 414.018 113.68 414.015 108.373L413.983 53.7707C413.978 48.464 409.674 44.1627 404.364 44.1654Z" fill="white"/>
<path d="M404.369 44.2987H404.364L319.601 44.3493C317.068 44.352 314.689 45.3387 312.9 47.1307C311.111 48.92 310.127 51.3013 310.129 53.8347L310.159 104.555L293.153 117.923L404.409 117.856C406.94 117.853 409.319 116.867 411.108 115.075C412.897 113.285 413.881 110.904 413.881 108.373L413.849 53.7707C413.847 51.24 412.86 48.8614 411.068 47.072C409.279 45.2827 406.9 44.2987 404.369 44.2987ZM292.383 118.189L309.892 104.424L309.863 53.8347C309.86 51.232 310.873 48.784 312.711 46.9413C314.551 45.0987 316.999 44.0853 319.601 44.0826L404.364 44.032H404.369C406.972 44.032 409.417 45.0453 411.257 46.8826C413.097 48.7226 414.113 51.168 414.116 53.7707L414.148 108.373C414.148 110.976 413.137 113.424 411.297 115.264C409.457 117.107 407.012 118.12 404.409 118.123L292.383 118.189Z" fill="#FFDEE4"/>
<path d="M340.495 81.1147C340.503 93.264 350.356 103.107 362.505 103.099C374.652 103.093 384.495 93.2374 384.489 81.0907C384.481 68.9414 374.628 59.0987 362.479 59.1067C350.329 59.112 340.487 68.968 340.495 81.1147Z" fill="#FFDEE4"/>
<path d="M358.769 91.7253L349.46 83.1414L352.484 79.864L358.655 85.5547L372.321 71.9787L375.463 75.1414L358.769 91.7253Z" fill="white"/>
<path d="M108.774 50.4827C108.842 51.6507 108.881 52.816 108.915 53.9814C108.95 55.1467 108.961 56.3147 108.985 57.48C108.987 58.6453 109.001 59.8134 108.993 60.9787L108.975 62.728C108.96 63.312 108.953 63.896 108.929 64.4774C108.893 63.896 108.873 63.312 108.844 62.7307L108.788 60.9814C108.754 59.816 108.742 58.648 108.719 57.4827C108.717 56.3173 108.702 55.1494 108.711 53.984C108.719 52.816 108.732 51.6507 108.774 50.4827Z" fill="#1F4068"/>
<path d="M94.728 55.168C95.207 56.2347 95.659 57.3093 96.1064 58.3866C96.5547 59.464 96.9806 60.5493 97.4187 61.6293C97.8368 62.72 98.2656 63.8026 98.6736 64.896L99.2808 66.536C99.4742 67.088 99.676 67.6346 99.8616 68.1893C99.6198 67.656 99.3936 67.12 99.1592 66.5866L98.483 64.9707C98.0352 63.8933 97.6086 62.808 97.171 61.728C96.7536 60.64 96.3238 59.5547 95.9166 58.4613C95.5086 57.368 95.1048 56.2747 94.728 55.168Z" fill="#1F4068"/>
<path d="M122.325 55.4613C121.948 56.5653 121.544 57.6613 121.136 58.7547C120.729 59.8453 120.299 60.9307 119.882 62.0187C119.444 63.1013 119.017 64.1867 118.57 65.264L117.893 66.8773C117.659 67.4133 117.433 67.9493 117.191 68.48C117.377 67.928 117.578 67.3813 117.772 66.8293L118.379 65.1893C118.787 64.096 119.216 63.0106 119.634 61.9226C120.072 60.84 120.498 59.7546 120.946 58.68C121.394 57.6026 121.846 56.5253 122.325 55.4613Z" fill="#1F4068"/>
</svg>
